<svg width="400" height="400" viewBox="0 0 400 400" fill="none" xmlns="http://www.w3.org/2000/svg">
<g clip-path="url(#clip0_26_951)">
<path d="M199.48 2.02002C89.5802 2.02002 0.490234 91.11 0.490234 201.01C0.490234 310.91 89.5802 400 199.48 400C309.38 400 398.47 310.91 398.47 201.01C398.47 91.11 309.38 2.02002 199.48 2.02002ZM199.48 389.65C95.3002 389.65 10.8402 305.19 10.8402 201.01C10.8402 96.83 95.3002 12.37 199.48 12.37C303.66 12.37 388.12 96.83 388.12 201.01C388.12 305.19 303.66 389.65 199.48 389.65Z" fill="black"/>
<path d="M199.48 103.35C145.55 103.35 101.82 147.07 101.82 201.01C101.82 254.95 145.54 298.67 199.48 298.67C253.42 298.67 297.14 254.95 297.14 201.01C297.14 147.07 253.41 103.35 199.48 103.35ZM199.48 257.77C168.13 257.77 142.72 232.36 142.72 201.01C142.72 169.66 168.13 144.25 199.48 144.25C230.83 144.25 256.24 169.66 256.24 201.01C256.24 232.36 230.83 257.77 199.48 257.77Z" fill="black"/>
<path d="M199.48 235.07C218.291 235.07 233.54 219.821 233.54 201.01C233.54 182.199 218.291 166.95 199.48 166.95C180.67 166.95 165.42 182.199 165.42 201.01C165.42 219.821 180.67 235.07 199.48 235.07Z" fill="black"/>
<path d="M199.48 32.88C188.87 42.05 182.95 52.15 182.95 62.78C182.95 73.41 188.86 83.51 199.48 92.68C210.09 83.51 216.01 73.41 216.01 62.78C216.01 52.15 210.09 42.04 199.48 32.88Z" fill="black"/>
<path d="M135.14 45.6801C128.84 58.2101 127.25 69.8101 131.31 79.6201C135.37 89.4301 144.71 96.5101 158.02 100.92C164.32 88.3901 165.91 76.7901 161.85 66.9801C157.78 57.1501 148.45 50.0801 135.14 45.6801Z" fill="black"/>
<path d="M80.5904 82.12C79.5704 96.11 82.5304 107.43 90.0404 114.95C97.5504 122.47 108.88 125.43 122.87 124.4C123.89 110.41 120.93 99.09 113.42 91.57C105.91 84.05 94.5804 81.1 80.5904 82.12Z" fill="black"/>
<path d="M44.1401 136.67C48.5501 149.98 55.6201 159.31 65.4401 163.38C75.2601 167.45 86.8601 165.85 99.3801 159.55C94.9701 146.24 87.9001 136.91 78.0801 132.84C68.2601 128.77 56.6701 130.37 44.1401 136.67Z" fill="black"/>
<path d="M31.3403 201.01C40.5103 211.62 50.6103 217.54 61.2403 217.54C71.8703 217.54 81.9703 211.63 91.1403 201.01C81.9703 190.4 71.8703 184.48 61.2403 184.48C50.6103 184.48 40.5103 190.4 31.3403 201.01Z" fill="black"/>
<path d="M44.1401 265.35C56.6701 271.65 68.2701 273.24 78.0801 269.18C87.9001 265.11 94.9701 255.78 99.3801 242.47C86.8501 236.17 75.2501 234.58 65.4401 238.64C55.6301 242.7 48.5501 252.04 44.1401 265.35Z" fill="black"/>
<path d="M80.5904 319.9C94.5804 320.92 105.9 317.96 113.42 310.45C120.93 302.94 123.9 291.61 122.87 277.62C108.88 276.6 97.5604 279.56 90.0404 287.07C82.5304 294.59 79.5704 305.91 80.5904 319.9Z" fill="black"/>
<path d="M135.14 356.35C148.45 351.94 157.78 344.87 161.85 335.05C165.92 325.23 164.32 313.63 158.02 301.11C144.71 305.52 135.38 312.59 131.31 322.41C127.24 332.22 128.84 343.82 135.14 356.35Z" fill="black"/>
<path d="M199.48 369.14C210.09 359.97 216.01 349.87 216.01 339.24C216.01 328.61 210.1 318.51 199.48 309.34C188.87 318.51 182.95 328.61 182.95 339.24C182.95 349.87 188.87 359.98 199.48 369.14Z" fill="black"/>
<path d="M263.82 356.35C270.12 343.82 271.71 332.22 267.65 322.41C263.58 312.59 254.25 305.52 240.94 301.11C234.64 313.64 233.05 325.24 237.11 335.05C241.17 344.86 250.51 351.94 263.82 356.35Z" fill="black"/>
<path d="M318.37 319.9C319.39 305.91 316.43 294.59 308.92 287.07C301.41 279.56 290.08 276.59 276.09 277.62C275.07 291.61 278.03 302.93 285.54 310.45C293.06 317.96 304.38 320.92 318.37 319.9Z" fill="black"/>
<path d="M354.81 265.35C350.4 252.04 343.33 242.71 333.51 238.64C323.69 234.57 312.09 236.17 299.57 242.47C303.98 255.78 311.05 265.11 320.87 269.18C330.69 273.25 342.29 271.65 354.81 265.35Z" fill="black"/>
<path d="M367.611 201.01C358.441 190.4 348.341 184.48 337.711 184.48C327.081 184.48 316.981 190.39 307.811 201.01C316.981 211.62 327.081 217.54 337.711 217.54C348.341 217.54 358.451 211.62 367.611 201.01Z" fill="black"/>
<path d="M354.81 136.67C342.28 130.37 330.68 128.78 320.87 132.84C311.05 136.91 303.98 146.24 299.57 159.55C312.1 165.85 323.7 167.44 333.51 163.38C343.32 159.32 350.41 149.98 354.81 136.67Z" fill="black"/>
<path d="M318.37 82.12C304.38 81.1 293.06 84.06 285.54 91.57C278.03 99.08 275.06 110.41 276.09 124.4C290.08 125.42 301.4 122.46 308.92 114.95C316.43 107.43 319.39 96.11 318.37 82.12Z" fill="black"/>
<path d="M263.82 45.6801C250.51 50.0901 241.18 57.1601 237.11 66.9801C233.04 76.8001 234.64 88.4001 240.94 100.92C254.25 96.5101 263.58 89.4401 267.65 79.6201C271.72 69.8001 270.12 58.2001 263.82 45.6801Z" fill="black"/>
</g>
<defs>
<clipPath id="clip0_26_951">
<rect width="400" height="400" fill="white"/>
</clipPath>
</defs>
</svg>
