<svg width="400" height="400" viewBox="0 0 400 400" fill="none" xmlns="http://www.w3.org/2000/svg">
<g clip-path="url(#clip0_47_999)">
<path d="M223.039 27.0599C223.039 40.5199 198.659 177.47 198.659 177.47C198.659 177.47 174.279 40.5199 174.279 27.0599C174.279 13.5999 185.199 2.67993 198.659 2.67993C212.119 2.67993 223.039 13.5999 223.039 27.0599Z" fill="#020203"/>
<path d="M223.039 375.62C223.039 362.16 198.659 225.21 198.659 225.21C198.659 225.21 174.279 362.16 174.279 375.62C174.279 389.08 185.189 400 198.659 400C212.129 400 223.039 389.09 223.039 375.62Z" fill="#020203"/>
<path d="M372.939 225.72C359.479 225.72 222.529 201.34 222.529 201.34C222.529 201.34 359.479 176.96 372.939 176.96C386.399 176.96 397.319 187.87 397.319 201.34C397.319 214.81 386.399 225.72 372.939 225.72Z" fill="#020203"/>
<path d="M24.38 225.72C37.84 225.72 174.79 201.34 174.79 201.34C174.79 201.34 37.84 176.96 24.38 176.96C10.92 176.96 0 187.88 0 201.34C0 214.8 10.91 225.72 24.38 225.72Z" fill="#020203"/>
<path d="M92.66 60.8699C102.18 70.3899 181.78 184.47 181.78 184.47C181.78 184.47 67.7 104.87 58.18 95.3499C48.66 85.8299 48.66 70.3999 58.18 60.8799C67.7 51.3599 83.14 51.3499 92.66 60.8699Z" fill="#020203"/>
<path d="M339.129 307.34C329.609 297.82 215.529 218.22 215.529 218.22C215.529 218.22 295.129 332.3 304.649 341.82C314.169 351.34 329.599 351.34 339.119 341.82C348.649 332.29 348.649 316.86 339.129 307.34Z" fill="#020203"/>
<path d="M339.129 95.34C329.609 104.86 215.529 184.46 215.529 184.46C215.529 184.46 295.129 70.38 304.649 60.86C314.169 51.34 329.599 51.34 339.119 60.86C348.649 70.39 348.649 85.82 339.129 95.34Z" fill="#020203"/>
<path d="M92.66 341.81C102.18 332.29 181.78 218.21 181.78 218.21C181.78 218.21 67.7 297.81 58.18 307.33C48.66 316.85 48.66 332.28 58.18 341.8C67.71 351.33 83.14 351.33 92.66 341.81Z" fill="#020203"/>
<path d="M154.49 30.9999C159.64 43.4399 189.53 179.29 189.53 179.29C189.53 179.29 114.6 62.0899 109.44 49.6499C104.29 37.2099 110.19 22.9499 122.63 17.7999C135.07 12.6499 149.33 18.5599 154.49 30.9999Z" fill="#020203"/>
<path d="M287.881 353.03C282.731 340.59 207.801 223.4 207.801 223.4C207.801 223.4 237.691 359.25 242.841 371.69C247.991 384.13 262.251 390.04 274.691 384.88C287.121 379.73 293.031 365.47 287.881 353.03Z" fill="#020203"/>
<path d="M369.001 157.17C356.561 162.32 220.711 192.21 220.711 192.21C220.711 192.21 337.911 117.28 350.341 112.13C362.781 106.98 377.041 112.88 382.191 125.32C387.341 137.76 381.441 152.02 369.001 157.17Z" fill="#020203"/>
<path d="M46.9696 290.56C59.4096 285.41 176.6 210.48 176.6 210.48C176.6 210.48 40.7496 240.36 28.3196 245.51C15.8796 250.66 9.96961 264.92 15.1296 277.36C20.2696 289.8 34.5296 295.71 46.9696 290.56Z" fill="#020203"/>
<path d="M46.9702 112.12C59.4102 117.27 176.6 192.2 176.6 192.2C176.6 192.2 40.7502 162.32 28.3202 157.17C15.8902 152.02 9.9702 137.76 15.1302 125.32C20.2902 112.88 34.5302 106.97 46.9702 112.12Z" fill="#020203"/>
<path d="M369.001 245.51C356.561 240.36 220.711 210.47 220.711 210.47C220.711 210.47 337.911 285.4 350.341 290.55C362.771 295.7 377.041 289.8 382.191 277.36C387.351 264.93 381.441 250.67 369.001 245.51Z" fill="#020203"/>
<path d="M287.881 49.6499C282.731 62.0899 207.801 179.28 207.801 179.28C207.801 179.28 237.681 43.4299 242.831 30.9999C247.981 18.5699 262.241 12.6499 274.681 17.8099C287.121 22.9599 293.031 37.2199 287.881 49.6499Z" fill="#020203"/>
<path d="M154.49 371.68C159.64 359.24 189.53 223.39 189.53 223.39C189.53 223.39 114.6 340.59 109.45 353.02C104.3 365.46 110.2 379.72 122.64 384.87C135.08 390.02 149.33 384.12 154.49 371.68Z" fill="#020203"/>
<path d="M198.659 181.45C209.629 181.45 218.549 190.37 218.549 201.34C218.549 212.31 209.629 221.23 198.659 221.23C187.689 221.23 178.769 212.31 178.769 201.34C178.769 190.37 187.689 181.45 198.659 181.45ZM198.659 177.47C185.499 177.47 174.789 188.18 174.789 201.34C174.789 214.5 185.499 225.21 198.659 225.21C211.819 225.21 222.529 214.5 222.529 201.34C222.529 188.18 211.819 177.47 198.659 177.47Z" fill="#020203"/>
</g>
<defs>
<clipPath id="clip0_47_999">
<rect width="400" height="400" fill="white"/>
</clipPath>
</defs>
</svg>
