<?xml version="1.0" encoding="utf-8"?>
<!-- Generator: Adobe Illustrator 27.3.1, SVG Export Plug-In . SVG Version: 6.00 Build 0)  -->
<svg version="1.1" id="Layer_1" xmlns="http://www.w3.org/2000/svg" xmlns:xlink="http://www.w3.org/1999/xlink" x="0px" y="0px"
	 viewBox="0 0 500 500" style="enable-background:new 0 0 400 400;" xml:space="preserve">
<path fill-rule="evenodd" clip-rule="evenodd" d="M376.4 160.619C327.07 91.4192 230.85 75.3092 161.65 124.649C92.48 173.989 76.34 270.209 125.71 339.399C175.04 408.599 271.26 424.709 340.46 375.369C409.63 325.999 425.74 229.789 376.4 160.619ZM357.61 173.449C315.37 114.179 232.96 100.369 173.69 142.649C114.46 184.899 100.65 267.309 142.89 326.569C185.16 385.809 267.57 399.609 326.81 357.369C386.08 315.099 399.89 232.689 357.61 173.449Z" fill="black"/>
<path d="M161.65 124.649L161.505 124.446L161.505 124.446L161.65 124.649ZM376.4 160.619L376.196 160.764L376.196 160.764L376.4 160.619ZM125.71 339.399L125.914 339.254L125.913 339.254L125.71 339.399ZM340.46 375.369L340.605 375.573L340.605 375.573L340.46 375.369ZM173.69 142.649L173.835 142.853L173.69 142.649ZM357.61 173.449L357.406 173.594L357.407 173.594L357.61 173.449ZM142.89 326.569L142.687 326.714L142.687 326.714L142.89 326.569ZM326.81 357.369L326.955 357.573H326.955L326.81 357.369ZM161.795 124.853C230.883 75.5929 326.947 91.6768 376.196 160.764L376.604 160.474C327.193 91.1616 230.817 75.0255 161.505 124.446L161.795 124.853ZM125.913 339.254C76.6238 270.177 92.7375 174.113 161.795 124.853L161.505 124.446C92.2225 173.866 76.0562 270.242 125.506 339.544L125.913 339.254ZM340.315 375.166C271.227 424.426 175.163 408.342 125.914 339.254L125.506 339.544C174.917 408.857 271.293 424.993 340.605 375.573L340.315 375.166ZM376.196 160.764C425.456 229.822 409.372 325.876 340.315 375.166L340.605 375.573C409.887 326.123 426.024 229.757 376.603 160.474L376.196 160.764ZM173.835 142.853C232.993 100.653 315.247 114.437 357.406 173.594L357.814 173.304C315.493 113.922 232.927 100.085 173.545 142.446L173.835 142.853ZM143.094 326.424C100.934 267.276 114.718 185.022 173.835 142.853L173.545 142.446C114.203 184.776 100.366 267.342 142.687 326.714L143.094 326.424ZM326.665 357.166C267.537 399.325 185.283 385.552 143.094 326.424L142.687 326.714C185.037 386.067 267.603 399.893 326.955 357.573L326.665 357.166ZM357.407 173.594C399.606 232.722 385.823 314.976 326.665 357.166L326.955 357.573C386.338 315.223 400.174 232.656 357.814 173.304L357.407 173.594Z" fill="black"/>
<path fill-rule="evenodd" clip-rule="evenodd" d="M346.68 181.809C309.04 129.029 235.64 116.739 182.87 154.379C130.06 192.019 117.77 265.419 155.41 318.189C193.08 370.999 266.47 383.289 319.25 345.649C372.03 308.009 384.32 234.589 346.68 181.809ZM338.95 187.33C304.36 138.81 236.9 127.49 188.38 162.11C139.83 196.69 128.55 264.189 163.16 312.71C197.75 361.229 265.21 372.51 313.73 337.93C362.25 303.31 373.57 235.85 338.95 187.33Z" fill="black"/>
<path d="M182.87 154.379L183.015 154.583L183.016 154.583L182.87 154.379ZM346.68 181.809L346.477 181.955L346.68 181.809ZM155.41 318.189L155.207 318.335H155.207L155.41 318.189ZM188.38 162.11L188.525 162.313L188.525 162.313L188.38 162.11ZM338.95 187.33L338.746 187.475L338.746 187.475L338.95 187.33ZM163.16 312.71L163.364 312.564L163.363 312.564L163.16 312.71ZM313.73 337.93L313.875 338.133L313.875 338.133L313.73 337.93ZM183.016 154.583C235.673 117.023 308.917 129.287 346.477 181.955L346.884 181.664C309.164 128.772 235.608 116.456 182.725 154.176L183.016 154.583ZM155.614 318.044C118.054 265.387 130.318 192.143 183.015 154.583L182.725 154.176C129.803 191.896 117.487 265.452 155.207 318.335L155.614 318.044ZM319.105 345.446C266.438 383.006 193.204 370.742 155.614 318.044L155.207 318.335C192.957 371.257 266.503 383.573 319.396 345.853L319.105 345.446ZM346.477 181.955C384.037 234.622 371.773 307.886 319.105 345.446L319.396 345.853C372.288 308.133 384.604 234.557 346.884 181.664L346.477 181.955ZM188.525 162.313C236.933 127.773 304.237 139.067 338.746 187.475L339.154 187.184C304.483 138.552 236.867 127.206 188.235 161.906L188.525 162.313ZM163.363 312.564C128.834 264.157 140.088 196.813 188.525 162.313L188.235 161.906C139.572 196.566 128.266 264.222 162.956 312.855L163.363 312.564ZM313.585 337.726C265.177 372.226 197.873 360.972 163.364 312.564L162.956 312.855C197.627 361.487 265.243 372.793 313.875 338.133L313.585 337.726ZM338.746 187.475C373.286 235.882 361.992 303.186 313.585 337.726L313.875 338.133C362.507 303.433 373.854 235.817 339.153 187.184L338.746 187.475Z" fill="black"/>
<path fill-rule="evenodd" clip-rule="evenodd" d="M249.39 95.7796L249.48 95.5896L249.35 95.6196L249.39 95.7796ZM215.21 54.0996C201.91 45.4296 184.63 41.0196 163.95 40.0996C172.97 58.5396 183.94 72.4496 197.24 81.0796C212.56 91.0096 229.52 95.9296 249.13 95.4596C241.79 77.5196 230.5 64.0596 215.21 54.0996Z" fill="black" stroke="#010101" stroke-width="0.5" stroke-miterlimit="10" stroke-linecap="round" stroke-linejoin="round"/>
<path fill-rule="evenodd" clip-rule="evenodd" d="M251.15 95.7796L251.02 95.5896L251.18 95.6196L251.15 95.7796ZM285.33 54.0996C298.63 45.4296 315.91 41.0196 336.59 40.0996C327.54 58.5396 316.6 72.4496 303.27 81.0796C287.98 91.0096 271.02 95.9296 251.41 95.4596C258.75 77.5196 270.04 64.0596 285.33 54.0996Z" fill="black" stroke="#010101" stroke-width="0.5" stroke-miterlimit="10" stroke-linecap="round" stroke-linejoin="round"/>
<path fill-rule="evenodd" clip-rule="evenodd" d="M140.4 141.14L140.37 140.92L140.28 141.05L140.4 141.14ZM86.7804 135.84C71.2404 139.12 55.9204 148.2 40.6304 162.16C60.0504 168.81 77.6404 170.92 93.1804 167.61C110.99 163.8 126.5 155.28 140 141.1C122.12 133.58 104.62 132.06 86.7804 135.84Z" fill="black" stroke="#010101" stroke-width="0.5" stroke-miterlimit="10" stroke-linecap="round" stroke-linejoin="round"/>
<path fill-rule="evenodd" clip-rule="evenodd" d="M141.66 139.88L141.44 139.85L141.57 139.76L141.66 139.88ZM136.37 86.2496C139.65 70.7096 148.73 55.3896 162.73 40.0996C169.35 59.5196 171.46 77.1096 168.15 92.6496C164.34 110.46 155.82 125.97 141.64 139.47C134.1 121.6 132.58 104.1 136.37 86.2496Z" fill="black" stroke="#010101" stroke-width="0.5" stroke-miterlimit="10" stroke-linecap="round" stroke-linejoin="round"/>
<path fill-rule="evenodd" clip-rule="evenodd" d="M360.45 141.14L360.48 140.92L360.57 141.05L360.45 141.14ZM414.05 135.84C429.59 139.12 444.95 148.2 460.24 162.16C440.79 168.81 423.23 170.92 407.69 167.61C389.85 163.8 374.37 155.28 360.84 141.1C378.71 133.58 396.2 132.06 414.05 135.84Z" fill="black" stroke="#010101" stroke-width="0.5" stroke-miterlimit="10" stroke-linecap="round" stroke-linejoin="round"/>
<path fill-rule="evenodd" clip-rule="evenodd" d="M359.19 139.88L359.41 139.85L359.28 139.76L359.19 139.88ZM364.49 86.2496C361.21 70.7096 352.13 55.3896 338.13 40.0996C331.51 59.5196 329.4 77.1096 332.71 92.6496C336.52 110.46 345.04 125.97 359.22 139.47C366.73 121.6 368.24 104.1 364.49 86.2496Z" fill="black" stroke="#010101" stroke-width="0.5" stroke-miterlimit="10" stroke-linecap="round" stroke-linejoin="round"/>
<path fill-rule="evenodd" clip-rule="evenodd" d="M95.5702 250.909L95.4102 250.779V250.939L95.5702 250.909ZM53.9302 285.059C45.2602 298.359 40.8502 315.639 39.9302 336.349C58.3402 327.299 72.2802 316.329 80.9102 303.029C90.8102 287.709 95.7602 270.749 95.2902 251.169C77.3202 258.479 63.8902 269.799 53.9302 285.059Z" fill="black" stroke="#010101" stroke-width="0.5" stroke-miterlimit="10" stroke-linecap="round" stroke-linejoin="round"/>
<path fill-rule="evenodd" clip-rule="evenodd" d="M95.5702 249.12L95.4102 249.25V249.09L95.5702 249.12ZM53.9302 214.94C45.2602 201.64 40.8502 184.39 39.9302 163.68C58.3402 172.73 72.2802 183.67 80.9102 197C90.8102 212.29 95.7602 229.25 95.2902 248.86C77.3202 241.55 63.8902 230.23 53.9302 214.94Z" fill="black" stroke="#010101" stroke-width="0.5" stroke-miterlimit="10" stroke-linecap="round" stroke-linejoin="round"/>
<path fill-rule="evenodd" clip-rule="evenodd" d="M405.5 250.909L405.66 250.779V250.939L405.5 250.909ZM447.15 285.059C455.82 298.359 460.23 315.639 461.15 336.349C442.74 327.299 428.8 316.329 420.17 303.029C410.24 287.709 405.32 270.749 405.79 251.169C423.76 258.479 437.19 269.799 447.15 285.059Z" fill="black" stroke="#010101" stroke-width="0.5" stroke-miterlimit="10" stroke-linecap="round" stroke-linejoin="round"/>
<path fill-rule="evenodd" clip-rule="evenodd" d="M405.5 249.12L405.66 249.25V249.09L405.5 249.12ZM447.15 214.94C455.82 201.64 460.23 184.39 461.15 163.68C442.74 172.73 428.8 183.67 420.17 197C410.24 212.29 405.32 229.25 405.79 248.86C423.76 241.55 437.19 230.23 447.15 214.94Z" fill="black" stroke="#010101" stroke-width="0.5" stroke-miterlimit="10" stroke-linecap="round" stroke-linejoin="round"/>
<path fill-rule="evenodd" clip-rule="evenodd" d="M249.23 404.159L249.36 404.319H249.2L249.23 404.159ZM215.06 445.809C201.76 454.479 184.48 458.889 163.8 459.809C172.85 441.399 183.79 427.459 197.12 418.829C212.41 408.899 229.37 403.979 248.98 404.449C241.63 422.409 230.35 435.839 215.06 445.809Z" fill="black" stroke="#010101" stroke-width="0.5" stroke-miterlimit="10" stroke-linecap="round" stroke-linejoin="round"/>
<path fill-rule="evenodd" clip-rule="evenodd" d="M250.99 404.159L250.86 404.319H251.02L250.99 404.159ZM285.17 445.809C298.47 454.479 315.75 458.889 336.43 459.809C327.38 441.399 316.44 427.459 303.11 418.829C287.82 408.899 270.86 403.979 251.25 404.449C258.59 422.409 269.88 435.839 285.17 445.809Z" fill="black" stroke="#010101" stroke-width="0.5" stroke-miterlimit="10" stroke-linecap="round" stroke-linejoin="round"/>
<path fill-rule="evenodd" clip-rule="evenodd" d="M140.24 358.76L140.21 358.98L140.12 358.85L140.24 358.76ZM86.6202 364.09C71.1102 360.81 55.7602 351.73 40.4702 337.73C59.8902 331.08 77.4802 329 93.0202 332.31C110.83 336.09 126.34 344.61 139.87 358.79C121.96 366.33 104.46 367.84 86.6202 364.09Z" fill="black" stroke="#010101" stroke-width="0.5" stroke-miterlimit="10" stroke-linecap="round" stroke-linejoin="round"/>
<path fill-rule="evenodd" clip-rule="evenodd" d="M141.51 360.06L141.29 360.09L141.42 360.18L141.51 360.06ZM136.21 413.65C139.49 429.19 148.57 444.51 162.57 459.8C169.19 440.38 171.3 422.79 167.99 407.28C164.18 389.44 155.66 373.96 141.48 360.43C133.94 378.31 132.46 395.81 136.21 413.65Z" fill="black" stroke="#010101" stroke-width="0.5" stroke-miterlimit="10" stroke-linecap="round" stroke-linejoin="round"/>
<path fill-rule="evenodd" clip-rule="evenodd" d="M360.291 358.76L360.321 358.98L360.411 358.85L360.291 358.76ZM413.891 364.09C429.431 360.81 444.791 351.73 460.081 337.73C440.661 331.08 423.071 329 407.531 332.31C389.691 336.09 374.211 344.61 360.681 358.79C378.581 366.33 396.081 367.84 413.891 364.09Z" fill="black" stroke="#010101" stroke-width="0.5" stroke-miterlimit="10" stroke-linecap="round" stroke-linejoin="round"/>
<path fill-rule="evenodd" clip-rule="evenodd" d="M359.03 360.06L359.25 360.09L359.12 360.18L359.03 360.06ZM364.33 413.65C361.05 429.19 351.97 444.51 337.97 459.8C331.35 440.38 329.24 422.79 332.55 407.28C336.36 389.44 344.88 373.96 359.06 360.43C366.57 378.31 368.08 395.81 364.33 413.65Z" fill="black" stroke="#010101" stroke-width="0.5" stroke-miterlimit="10" stroke-linecap="round" stroke-linejoin="round"/>
</svg>
