<?xml version="1.0" encoding="utf-8"?>
<!-- Generator: Adobe Illustrator 27.3.1, SVG Export Plug-In . SVG Version: 6.00 Build 0)  -->
<svg version="1.1" id="Layer_1" xmlns="http://www.w3.org/2000/svg" xmlns:xlink="http://www.w3.org/1999/xlink" x="0px" y="0px"
	 viewBox="0 0 500 500" style="enable-background:new 0 0 500 500;" xml:space="preserve">
<style type="text/css">
	.st0{fill-rule:evenodd;clip-rule:evenodd;fill:none;stroke:#000000;stroke-width:0.5;stroke-miterlimit:10;}
	
		.st1{fill-rule:evenodd;clip-rule:evenodd;fill:none;stroke:#000000;stroke-width:0.81;stroke-linecap:round;stroke-linejoin:round;stroke-miterlimit:10;}
	
		.st2{fill-rule:evenodd;clip-rule:evenodd;fill:none;stroke:#171717;stroke-width:0.81;stroke-linecap:round;stroke-linejoin:round;stroke-miterlimit:10;}
</style>
<g>
	<path class="st0" d="M53.28,96.18c84.74-108.72,241.79-128.2,350.54-43.42c108.72,84.77,128.2,241.79,43.42,350.54
		c-84.77,108.72-241.83,128.2-350.54,43.42C-12.05,361.95-31.49,204.93,53.28,96.18z"/>
	<path class="st0" d="M58.5,100.05C140.99-5.82,293.89-24.75,399.74,57.77c105.84,82.49,124.77,235.39,42.28,341.23
		c-82.52,105.84-235.39,124.77-341.23,42.28C-5.09,358.77-24.02,205.9,58.5,100.05z"/>
	<path class="st1" d="M371.3,39.61c-76.36,51.83-118.2,122.49-121.24,210.03"/>
	<path class="st1" d="M460.25,128.19c-92.04,6.71-163.59,46.99-209.99,121.28"/>
	<path class="st1" d="M492.95,249.84c-83.08-40.21-165.15-41.11-242.48,0"/>
	<path class="st1" d="M460.46,371.12c-51.83-76.36-122.45-118.2-209.99-121.28"/>
	<path class="st1" d="M371.5,459.45c-6.71-92.04-46.99-163.59-121.24-209.99"/>
	<path class="st1" d="M250.26,492.5c40.21-83.11,41.11-165.18,0-242.52"/>
	<path class="st1" d="M129.19,459.87c76.36-51.83,118.2-122.49,121.28-210.03"/>
	<path class="st1" d="M40.23,371.22c92.04-6.71,163.59-46.99,210.03-121.28"/>
	<path class="st1" d="M7.74,249.46c83.08,40.21,165.15,41.11,242.52,0"/>
	<path class="st1" d="M40.03,128.36c51.87,76.36,122.49,118.2,210.03,121.28"/>
	<path class="st1" d="M129.12,39.5c6.71,92.07,46.95,163.59,121.24,210.03"/>
	<path class="st1" d="M250.26,6.98c-40.21,83.11-41.14,165.18,0,242.55"/>
	<line class="st2" x1="150.82" y1="349.01" x2="150.82" y2="348.84"/>
</g>
</svg>
