<?xml version="1.0" encoding="utf-8"?>
<!-- Generator: Adobe Illustrator 27.3.1, SVG Export Plug-In . SVG Version: 6.00 Build 0)  -->
<svg version="1.1" id="Layer_1" xmlns="http://www.w3.org/2000/svg" xmlns:xlink="http://www.w3.org/1999/xlink" x="0px" y="0px"
	 viewBox="0 0 500 500" style="enable-background:new 0 0 500 500;" xml:space="preserve">
<style type="text/css">
	.st0{fill-rule:evenodd;clip-rule:evenodd;fill:#ffff00;stroke:#000000;stroke-width:0.5;stroke-miterlimit:10;}
	.st1{fill-rule:evenodd;clip-rule:evenodd;fill:#B0B0B0;stroke:#000000;stroke-width:0.5;stroke-miterlimit:10;}
	.st2{fill-rule:evenodd;clip-rule:evenodd;fill:#aa3600;stroke:#000000;stroke-width:0.51;stroke-miterlimit:10;}
	.st3{fill-rule:evenodd;clip-rule:evenodd;fill:#0000fa;stroke:#000000;stroke-width:0.53;stroke-miterlimit:10;}

		.st4{fill-rule:evenodd;clip-rule:evenodd;fill:none;stroke:#010101;stroke-width:0.5;stroke-linecap:round;stroke-linejoin:round;stroke-miterlimit:10;}
	.st5{fill-rule:evenodd;clip-rule:evenodd;fill:#0000fa;stroke:#000000;stroke-width:0.56;stroke-miterlimit:10;}
	.st6{fill-rule:evenodd;clip-rule:evenodd;fill:#0000fa;stroke:#000000;stroke-width:0.55;stroke-miterlimit:10;}
</style>
<g>
	<path class="st0" d="M71.3,111.2C148.4,12.33,291.22-5.38,390.09,71.71c98.9,77.09,116.58,219.92,39.52,318.78
		c-77.09,98.9-219.92,116.58-318.78,39.49C11.93,352.93-5.76,210.1,71.3,111.2z"/>
	<path class="st1" d="M81.47,130.3c66.52-93.27,196.26-114.98,289.55-48.46C464.29,148.39,486,278.13,419.45,371.4
		c-66.52,93.3-196.26,115.01-289.55,48.46C36.63,353.3,14.92,223.6,81.47,130.3z"/>
	<path class="st2" d="M86.47,133.89C151.04,43.36,276.9,22.28,367.43,86.85s111.61,190.47,47.01,280.99
		c-64.57,90.53-190.43,111.58-280.96,47.01S21.87,224.39,86.47,133.89z"/>
	<path class="st0" d="M187.76,395.78c-12.05-34.49,6.17-72.25,40.65-84.27c3.68-1.29,7.39-2.23,11.11-2.83l0,0v-46.63h-46.98
		c-3.96,22.91-19.89,43.05-43.39,51.26c-34.49,12.05-72.22-6.17-84.27-40.65c-12.02-34.46,6.17-72.22,40.65-84.27
		c34.46-12.02,72.22,6.2,84.27,40.65c1.29,3.68,2.23,7.39,2.83,11.14h46.63v-47.23c-22.91-3.96-43.08-19.89-51.26-43.39
		c-12.05-34.49,6.17-72.25,40.62-84.27c34.49-12.05,72.25,6.17,84.27,40.65c12.05,34.46-6.17,72.22-40.62,84.27
		c-3.68,1.29-7.43,2.2-11.14,2.83v47.42h47.23c3.96-22.91,19.89-43.08,43.39-51.29c34.49-12.02,72.25,6.2,84.27,40.65
		c12.05,34.49-6.17,72.25-40.65,84.27c-34.46,12.05-72.22-6.17-84.27-40.65c-1.29-3.68-2.23-7.39-2.83-11.11h-46.88v46.44
		c22.91,3.93,43.08,19.89,51.29,43.39c12.02,34.46-6.2,72.22-40.65,84.27C237.54,448.46,199.78,430.27,187.76,395.78z
		 M250.54,250.98v-0.16h-0.19v0.16H250.54z"/>
	<path class="st3" d="M236.41,87.48c22.22-7.77,46.57,4,54.31,26.21c7.77,22.22-3.96,46.57-26.21,54.31
		c-22.22,7.77-46.57-3.96-54.31-26.18C202.42,119.57,214.16,95.25,236.41,87.48z"/>
	<path class="st0" d="M242.29,104.37c12.9-4.5,27.03,2.33,31.53,15.2c4.5,12.9-2.3,27.03-15.2,31.53c-12.9,4.5-27.03-2.3-31.53-15.2
		C222.59,123,229.39,108.87,242.29,104.37z"/>
	<line class="st4" x1="231.53" y1="127.75" x2="269.38" y2="127.75"/>
	<path class="st5" d="M84.9,265.76c-8.18-23.41,4.22-49.12,27.63-57.33c23.41-8.24,49.09,4.09,57.27,27.5
		c8.18,23.44-4.22,49.12-27.63,57.36C118.72,301.51,93.08,289.21,84.9,265.76z"/>
	<path class="st0" d="M103.97,259.09c-4.5-12.9,2.33-27.03,15.23-31.59c12.9-4.53,27,2.23,31.53,15.14
		c4.5,12.87-2.33,27.03-15.23,31.56C122.59,278.76,108.47,271.96,103.97,259.09z"/>
	<line class="st4" x1="127.34" y1="269.76" x2="127.34" y2="231.94"/>
	<path class="st3" d="M264.44,414.44c-22.34,7.8-46.85-4-54.69-26.34c-7.87-22.34,3.9-46.79,26.24-54.59
		c22.34-7.8,46.85,4,54.69,26.34C298.52,382.19,286.78,406.64,264.44,414.44z"/>
	<path class="st0" d="M258.43,397.32c-12.87,4.53-27.03-2.3-31.56-15.2c-4.56-12.9,2.23-27.03,15.1-31.53
		c12.9-4.5,27.03,2.33,31.59,15.23C278.1,378.7,271.33,392.83,258.43,397.32z"/>
	<line class="st4" x1="269.13" y1="373.98" x2="231.31" y2="373.98"/>
	<path class="st6" d="M415.29,237c8.02,23-4.15,48.27-27.16,56.36c-23.03,8.09-48.24-4.03-56.26-27.06
		c-8.06-23,4.12-48.27,27.12-56.36C382.03,201.86,407.24,213.97,415.29,237z"/>
	<path class="st0" d="M396.95,243.42c4.5,12.87-2.33,27.03-15.23,31.56c-12.87,4.56-27-2.2-31.5-15.1
		c-4.53-12.9,2.3-27.03,15.2-31.59C378.32,223.76,392.45,230.52,396.95,243.42z"/>
	<line class="st4" x1="373.57" y1="232.72" x2="373.57" y2="270.55"/>
	<line class="st4" x1="250.47" y1="0" x2="250.47" y2="499.06"/>
	<line class="st4" x1="0.94" y1="250.85" x2="500" y2="250.85"/>
</g>
</svg>
