<?xml version="1.0" encoding="utf-8"?>
<!-- Generator: Adobe Illustrator 27.3.1, SVG Export Plug-In . SVG Version: 6.00 Build 0)  -->
<svg version="1.1" id="Layer_1" xmlns="http://www.w3.org/2000/svg" xmlns:xlink="http://www.w3.org/1999/xlink" x="0px" y="0px"
	 viewBox="0 0 500 500" style="enable-background:new 0 0 500 500;" xml:space="preserve">
<style type="text/css">
	.st0{fill-rule:evenodd;clip-rule:evenodd;fill:#FFFFFF;stroke:#000000;stroke-width:0.5;stroke-miterlimit:10;}
	.st1{fill-rule:evenodd;clip-rule:evenodd;fill:#666666;stroke:#000000;stroke-width:0.5;stroke-miterlimit:10;}
	
		.st2{fill-rule:evenodd;clip-rule:evenodd;fill:none;stroke:#000000;stroke-width:0.5;stroke-linecap:round;stroke-linejoin:round;stroke-miterlimit:10;}
	
		.st3{fill-rule:evenodd;clip-rule:evenodd;fill:none;stroke:#000000;stroke-width:0.81;stroke-linecap:round;stroke-linejoin:round;stroke-miterlimit:10;}
	
		.st4{fill-rule:evenodd;clip-rule:evenodd;fill:none;stroke:#171717;stroke-width:0.81;stroke-linecap:round;stroke-linejoin:round;stroke-miterlimit:10;}
	
		.st5{fill-rule:evenodd;clip-rule:evenodd;fill:#FFFFFF;stroke:#000000;stroke-width:0.81;stroke-linecap:round;stroke-linejoin:round;stroke-miterlimit:10;}
	.st6{fill-rule:evenodd;clip-rule:evenodd;fill:none;stroke:#000000;stroke-width:0.5;stroke-miterlimit:10;}
</style>
<g>
	<path class="st0" d="M53.34,96.28c84.82-108.83,242.04-128.33,350.9-43.47c108.83,84.86,128.33,242.04,43.47,350.9
		c-84.86,108.83-242.07,128.33-350.9,43.47C-12.06,362.32-31.52,205.14,53.34,96.28z"/>
	<path class="st1" d="M58.57,100.16C141.17-5.83,294.2-24.78,400.15,57.83c105.95,82.57,124.93,235.63,42.33,341.58
		s-235.63,124.9-341.58,42.33C-5.06,359.13-24.04,206.11,58.57,100.16z"/>
	<path class="st2" d="M460.76,128.32c-92.17,6.72-163.8,47.04-210.24,121.4"/>
	<path class="st2" d="M460.97,371.5c-51.92-76.44-122.61-118.32-210.24-121.4"/>
	<path class="st3" d="M250.52,493c40.25-83.2,41.15-165.35,0-242.77"/>
	<path class="st2" d="M40.28,371.6c92.13-6.72,163.76-47.04,210.24-121.4"/>
	<path class="st2" d="M40.07,128.49c51.92,76.44,122.61,118.32,210.24,121.4"/>
	<path class="st2" d="M250.52,6.99c-40.25,83.2-41.15,165.35,0,242.8"/>
	<line class="st4" x1="151.01" y1="349.37" x2="150.98" y2="349.19"/>
	<path class="st5" d="M249.31,250.1l-0.31-0.17c0.1-0.21,0.24-0.42,0.35-0.62c-0.17,0.17-0.31,0.38-0.45,0.59l-0.28-0.21
		c0.59-0.8,1.18-1.59,1.73-2.36l0.31,0.14C250.21,248.37,249.76,249.23,249.31,250.1z M250.52,7.02
		c38.31,81.64,39.52,162.27,1.14,238.47C308.5,166.49,307.6,85.82,250.52,7.02z"/>
	<path class="st5" d="M248.62,249.68l-0.31,0.17c-0.1-0.21-0.24-0.42-0.38-0.62c0.1,0.24,0.21,0.48,0.31,0.69l-0.35,0.14
		c-0.38-0.9-0.76-1.8-1.14-2.7l0.28-0.17C247.58,248.02,248.1,248.85,248.62,249.68z M38.72,127.1
		c89.85,7.62,160.3,46.9,207.09,118.21C205.81,156.61,135.49,117.06,38.72,127.1z"/>
	<path class="st5" d="M251.39,251.1l0.03,0.35c-0.24,0.03-0.48,0.03-0.76,0.03c0.28,0.03,0.52,0.07,0.76,0.1l-0.03,0.35
		c-1-0.14-1.97-0.24-2.94-0.35v-0.35C249.41,251.21,250.42,251.14,251.39,251.1z M40.28,371.6
		c51.54-73.98,120.78-115.37,205.95-120.26C149.38,241.65,79.97,282.76,40.28,371.6z"/>
	<path class="st5" d="M251.73,249.93l0.31,0.14c-0.14,0.24-0.24,0.45-0.35,0.66c0.14-0.21,0.31-0.42,0.45-0.59l0.28,0.21
		c-0.59,0.8-1.18,1.56-1.77,2.36l-0.28-0.17C250.8,251.66,251.25,250.79,251.73,249.93z M250.52,493
		C212.21,411.37,211,330.7,249.34,254.5C192.54,333.5,193.44,414.21,250.52,493z"/>
	<path class="st5" d="M249.52,249.16l0.31-0.21c0.14,0.21,0.24,0.42,0.38,0.62c-0.1-0.24-0.21-0.45-0.28-0.69l0.31-0.1
		c0.38,0.9,0.76,1.77,1.18,2.67l-0.31,0.21C250.59,250.83,250.04,249.99,249.52,249.16z M459.41,371.74
		c-89.81-7.65-160.3-46.9-207.09-118.25C292.33,342.23,362.64,381.79,459.41,371.74z"/>
	<path class="st5" d="M250.24,248.78l-0.03-0.35c0.24-0.03,0.48-0.03,0.73-0.03c-0.24-0.03-0.48-0.07-0.73-0.1l0.03-0.35
		c0.97,0.14,1.94,0.24,2.91,0.35l0.03,0.35C252.18,248.68,251.21,248.75,250.24,248.78z M461.35,128.28
		c-51.54,73.98-120.78,115.37-205.95,120.26C352.21,258.24,421.66,217.12,461.35,128.28z"/>
	<path class="st6" d="M94.62,127.35C162.41,40.41,288,24.86,374.94,92.61c86.94,67.78,102.49,193.34,34.71,280.31
		c-67.75,86.94-193.34,102.49-280.28,34.71S26.87,214.28,94.62,127.35z"/>
	<line class="st2" x1="249.31" y1="6.36" x2="249.31" y2="500"/>
</g>
</svg>
