<?xml version="1.0" encoding="utf-8"?>
<!-- Generator: Adobe Illustrator 27.3.1, SVG Export Plug-In . SVG Version: 6.00 Build 0)  -->
<svg version="1.1" id="Layer_1" xmlns="http://www.w3.org/2000/svg" xmlns:xlink="http://www.w3.org/1999/xlink" x="0px" y="0px"
	 viewBox="0 0 500 500" style="enable-background:new 0 0 500 500;" xml:space="preserve">
<style type="text/css">
	.st0{fill-rule:evenodd;clip-rule:evenodd;fill:#FFFFFF;stroke:#000000;stroke-width:0.5;stroke-miterlimit:10;}
	.st1{fill-rule:evenodd;clip-rule:evenodd;fill:#666666;stroke:#000000;stroke-width:0.5;stroke-miterlimit:10;}
	.st2{fill-rule:evenodd;clip-rule:evenodd;fill:#333333;stroke:#000000;stroke-width:0.5;stroke-miterlimit:10;}
	.st3{fill-rule:evenodd;clip-rule:evenodd;fill:#FFFFFF;stroke:#000000;stroke-width:0.43;stroke-miterlimit:10;}
	
		.st4{fill-rule:evenodd;clip-rule:evenodd;fill:none;stroke:#000000;stroke-width:0.5;stroke-linecap:round;stroke-linejoin:round;stroke-miterlimit:10;}
</style>
<g>
	<path class="st0" d="M71.33,111.2C148.42,12.33,291.22-5.38,390.12,71.71c98.87,77.09,116.58,219.92,39.49,318.79
		c-77.09,98.9-219.89,116.58-318.79,39.49C11.95,352.93-5.76,210.1,71.33,111.2z"/>
	<path class="st1" d="M81.46,130.3c66.55-93.27,196.26-114.98,289.56-48.46c93.3,66.55,115.01,196.29,48.46,289.56
		c-66.55,93.3-196.26,115.01-289.56,48.46S14.91,223.6,81.46,130.3z"/>
	<path class="st0" d="M210.48,437.07c-9.88-13.88-11.55-31.12-5.92-45.97l-49.78,17.4c-8.62,2.2-15.36,3.4-23.54,2.05
		c-26.75-4.5-44.81-29.83-40.34-56.58c2.83-16.8,13.88-30.18,28.32-36.69l0.03,0.03l-44.68-21.49c-9.47-4.15-16.11-9.13-21.77-17.12
		c-15.76-22.06-10.6-52.77,11.45-68.5c13.88-9.88,31.15-11.55,45.97-5.92l0,0l-17.4-49.81c-2.64-7.55-3.49-15.89-2.08-24.36
		c4.47-26.72,29.83-44.81,56.58-40.31c16.77,2.8,30.18,13.85,36.66,28.29l23.03-47.36c5.07-8.24,8.34-12.87,14.95-17.56
		c22.06-15.73,52.77-10.6,68.5,11.45c9.88,13.88,11.55,31.15,5.92,45.97l43.27-15.17c9.63-4.97,19.98-6.83,31.03-5
		c26.75,4.5,44.81,29.83,40.34,56.58c-2.83,16.8-13.88,30.18-28.32,36.69l44.75,21.49c8.46,4.37,16.17,9.16,21.87,17.15
		c15.73,22.06,10.6,52.77-11.49,68.5c-13.88,9.91-31.12,11.55-45.97,5.95l17.43,49.78c1.89,7.99,3.05,15.1,1.73,23.13
		c-4.5,26.75-29.83,44.81-56.58,40.34c-16.8-2.8-30.18-13.85-36.69-28.32l-21.65,45.06c-4.5,8.65-9.16,16.08-17.12,21.77
		C256.92,464.29,226.21,459.16,210.48,437.07z M295.94,390.03l20.33-44.9l3.15-6.99c10.64-18.38,30.52-28.48,51.26-24.98
		c3.84,0.63,7.52,1.7,10.95,3.18l0.03,0.06l-19.23-51.57c-5.48-21.24,1.51-41.94,18.35-53.97c3.18-2.23,6.48-4.06,9.94-5.48
		l0.06,0.03l-52.2-23.73c-18.06-10.7-27.91-30.4-24.48-50.91c0.63-3.62,1.6-7.08,2.93-10.35l-52.58,19.64
		c-19.51,6.01-41.47-0.82-53.97-18.38c-2.27-3.18-4.09-6.51-5.51-9.97l-22.59,49.91l-0.06,0.06l0,0
		c-9.69,17.94-30.02,28.57-51.23,25.02c-3.9-0.66-7.65-1.76-11.14-3.24l19.89,52.74l0.03,0.09h-0.03
		c5.82,19.54-1.04,41.41-18.53,53.9c-3.15,2.27-6.48,4.09-9.91,5.48l51.26,23.41c18.06,9.53,28.73,29.89,25.17,51.13
		c-0.63,3.78-1.7,7.39-3.12,10.79l51.86-19.51c20.52-5.51,41.69,1.45,53.9,18.53c2.27,3.18,4.09,6.51,5.48,9.94V390.03z
		 M184.55,381.06l0.16-0.06L184.55,381.06z M296.35,110.61h0.03H296.35z"/>
	<path class="st2" d="M112.8,125.65c7.11-14.69,24.8-20.89,39.52-13.78c14.69,7.08,20.89,24.8,13.78,39.49
		c-7.08,14.73-24.8,20.93-39.49,13.81C111.89,158.06,105.72,140.37,112.8,125.65z"/>
	<path class="st3" d="M125.2,131.62c3.81-7.87,13.28-11.17,21.15-7.36c7.87,3.78,11.17,13.25,7.39,21.15
		c-3.81,7.87-13.28,11.17-21.15,7.36C124.7,148.96,121.39,139.49,125.2,131.62z"/>
	<line class="st4" x1="130.55" y1="147.42" x2="148.39" y2="129.58"/>
	<path class="st2" d="M65.23,259.95c-5.38-15.42,2.77-32.32,18.19-37.7c15.42-5.38,32.32,2.77,37.7,18.19
		c5.38,15.42-2.77,32.32-18.19,37.7C87.5,283.51,70.61,275.36,65.23,259.95z"/>
	<path class="st3" d="M78.22,255.41c-2.89-8.24,1.48-17.28,9.72-20.17s17.28,1.48,20.17,9.72c2.89,8.28-1.48,17.31-9.72,20.17
		C90.12,268.03,81.09,263.66,78.22,255.41z"/>
	<line class="st4" x1="93.17" y1="262.81" x2="93.17" y2="237.57"/>
	<path class="st2" d="M126.77,388.49c-14.73-7.11-20.89-24.8-13.81-39.52c7.11-14.73,24.83-20.89,39.52-13.78
		c14.73,7.08,20.89,24.8,13.81,39.49C159.19,389.4,141.47,395.57,126.77,388.49z"/>
	<path class="st3" d="M132.75,376.09c-7.87-3.81-11.17-13.28-7.39-21.15c3.81-7.87,13.28-11.17,21.15-7.39
		c7.87,3.81,11.2,13.28,7.39,21.15C150.09,376.59,140.62,379.9,132.75,376.09z"/>
	<line class="st4" x1="148.55" y1="370.74" x2="130.71" y2="352.9"/>
	<path class="st2" d="M260.22,436.1c-15.42,5.41-32.32-2.74-37.7-18.16c-5.38-15.42,2.77-32.32,18.19-37.7
		c15.42-5.38,32.32,2.74,37.7,18.19C283.79,413.85,275.64,430.71,260.22,436.1z"/>
	<path class="st3" d="M255.69,423.13c-8.24,2.86-17.31-1.48-20.17-9.75c-2.89-8.24,1.48-17.28,9.72-20.17
		c8.24-2.86,17.31,1.48,20.17,9.75C268.31,411.21,263.94,420.24,255.69,423.13z"/>
	<line class="st4" x1="263.09" y1="408.18" x2="237.85" y2="408.18"/>
	<path class="st2" d="M388.92,374.17c-7.08,14.73-24.8,20.89-39.49,13.81c-14.73-7.11-20.89-24.8-13.81-39.52
		c7.11-14.69,24.8-20.89,39.52-13.78C389.84,341.76,396.03,359.47,388.92,374.17z"/>
	<path class="st3" d="M376.56,368.19c-3.81,7.9-13.28,11.2-21.15,7.39c-7.9-3.81-11.2-13.28-7.39-21.15
		c3.81-7.87,13.28-11.17,21.15-7.39C377.03,350.85,380.33,360.32,376.56,368.19z"/>
	<line class="st4" x1="371.21" y1="352.43" x2="353.37" y2="370.24"/>
	<path class="st2" d="M436.88,241.1c5.38,15.42-2.77,32.32-18.19,37.7c-15.42,5.38-32.32-2.77-37.7-18.19
		c-5.38-15.42,2.77-32.32,18.19-37.7C414.6,217.53,431.47,225.68,436.88,241.1z"/>
	<path class="st3" d="M423.88,245.63c2.86,8.28-1.48,17.31-9.72,20.17c-8.28,2.89-17.31-1.48-20.2-9.72
		c-2.86-8.24,1.48-17.28,9.75-20.17C411.96,233.01,420.99,237.38,423.88,245.63z"/>
	<line class="st4" x1="408.94" y1="238.27" x2="408.94" y2="263.47"/>
	<path class="st2" d="M375.14,112.49c14.73,7.11,20.89,24.83,13.81,39.52c-7.11,14.73-24.83,20.89-39.52,13.81
		c-14.73-7.11-20.89-24.83-13.81-39.52C342.73,111.58,360.45,105.41,375.14,112.49z"/>
	<path class="st3" d="M369.16,124.89c7.87,3.81,11.2,13.28,7.39,21.15c-3.81,7.87-13.28,11.2-21.15,7.39
		c-7.87-3.81-11.17-13.28-7.39-21.15C351.82,124.42,361.3,121.11,369.16,124.89z"/>
	<line class="st4" x1="353.37" y1="130.24" x2="371.21" y2="148.08"/>
	<path class="st2" d="M240.72,65.61c15.42-5.38,32.32,2.77,37.7,18.19c5.38,15.42-2.77,32.32-18.19,37.7s-32.32-2.77-37.7-18.19
		C217.15,87.89,225.3,70.99,240.72,65.61z"/>
	<path class="st3" d="M245.25,78.6c8.24-2.89,17.31,1.48,20.17,9.72c2.89,8.24-1.48,17.31-9.72,20.17
		c-8.24,2.89-17.31-1.48-20.17-9.72C232.63,90.53,237,81.47,245.25,78.6z"/>
	<line class="st4" x1="237.88" y1="93.55" x2="263.09" y2="93.55"/>
	<path class="st0" d="M189.02,163.22c47.58-33.95,113.72-22.84,147.64,24.73c33.95,47.58,22.88,113.72-24.7,147.67
		c-47.58,33.92-113.75,22.84-147.67-24.73C130.33,263.31,141.44,197.14,189.02,163.22z"/>
	<line class="st4" x1="250.47" y1="0" x2="250.47" y2="499.06"/>
	<line class="st4" x1="0.94" y1="250.85" x2="500" y2="250.85"/>
	<line class="st4" x1="74.82" y1="426.62" x2="427.69" y2="73.76"/>
	<line class="st4" x1="426.9" y1="425.96" x2="74.04" y2="73.07"/>
</g>
</svg>
