<?xml version="1.0" encoding="utf-8"?>
<!-- Generator: Adobe Illustrator 27.3.1, SVG Export Plug-In . SVG Version: 6.00 Build 0)  -->
<svg version="1.1" id="Layer_1" xmlns="http://www.w3.org/2000/svg" xmlns:xlink="http://www.w3.org/1999/xlink" x="0px" y="0px"
	 viewBox="0 0 500 500" style="enable-background:new 0 0 500 500;" xml:space="preserve">
<style type="text/css">
	.st0{fill-rule:evenodd;clip-rule:evenodd;fill:#FFFFFF;stroke:#000000;stroke-width:0.8;stroke-miterlimit:10;}
	.st1{fill-rule:evenodd;clip-rule:evenodd;fill:#666666;stroke:#000000;stroke-width:0.5;stroke-miterlimit:10;}
	
		.st2{fill-rule:evenodd;clip-rule:evenodd;fill:#FFFFFF;stroke:#000000;stroke-width:0.5;stroke-linecap:round;stroke-linejoin:round;stroke-miterlimit:10;}
	
		.st3{fill-rule:evenodd;clip-rule:evenodd;fill:none;stroke:#000000;stroke-width:0.81;stroke-linecap:round;stroke-linejoin:round;stroke-miterlimit:10;}
	
		.st4{fill-rule:evenodd;clip-rule:evenodd;fill:none;stroke:#171717;stroke-width:0.81;stroke-linecap:round;stroke-linejoin:round;stroke-miterlimit:10;}
	
		.st5{fill-rule:evenodd;clip-rule:evenodd;fill:none;stroke:#000000;stroke-width:0.5;stroke-linecap:round;stroke-linejoin:round;stroke-miterlimit:10;}
</style>
<path class="st0" d="M53.29,96.17C138.06-12.54,295.1-32.01,403.81,52.75C512.55,137.52,532,294.53,447.27,403.27
	C362.5,511.98,205.46,531.46,96.75,446.69C-11.99,361.92-31.44,204.92,53.29,96.17z"/>
<path class="st1" d="M58.52,100.05C141.04-5.82,293.89-24.75,399.76,57.77c105.84,82.48,124.76,235.37,42.24,341.21
	c-82.48,105.84-235.37,124.76-341.21,42.28C-5.04,358.74-23.96,205.88,58.52,100.05z"/>
<path class="st2" d="M242.48,499.45c-32.94-63.66-42.52-126.7-27.68-187.94c-45.64,43.42-105.08,66.57-176.69,69.79
	c-2.77-4.46-5.36-8.96-7.82-13.56c38.61-60.48,88.43-100.37,148.88-118.19c-60.37-17.78-110.13-57.61-148.74-117.91
	c2.53-4.67,5.22-9.27,8.06-13.8c71.34,3.25,130.61,26.36,176.14,69.58c-14.57-61-4.95-123.79,27.85-187.18
	c5.33-0.17,10.66-0.17,16.02,0c32.8,63.38,42.45,126.15,27.89,187.14c45.53-43.21,104.8-66.29,176.18-69.58
	c2.8,4.53,5.47,9.17,7.99,13.84c-38.75,60.51-88.71,100.37-149.36,118.08c60.72,17.65,110.71,57.54,149.5,118.05
	c-2.53,4.71-5.22,9.34-8.06,13.91c-71.48-3.29-130.82-26.47-176.38-69.85c14.74,61.14,5.16,124.07-27.75,187.59
	C253.17,499.59,247.84,499.59,242.48,499.45z"/>
<path class="st3" d="M460.27,128.18c-92.03,6.71-163.58,46.98-210.01,121.27"/>
<path class="st3" d="M460.48,371.09C408.65,294.73,338,252.9,250.47,249.82"/>
<path class="st3" d="M250.26,492.46c40.2-83.11,41.14-165.17,0-242.5"/>
<path class="st3" d="M40.28,371.2c92.03-6.71,163.58-46.98,209.98-121.27"/>
<path class="st3" d="M40.08,128.35c51.83,76.36,122.48,118.19,210.01,121.27"/>
<path class="st3" d="M250.26,6.98c-40.17,83.11-41.1,165.17,0,242.53"/>
<line class="st4" x1="150.86" y1="348.98" x2="150.83" y2="348.81"/>
<path class="st3" d="M250.4,7.01c40.2,83.07,41.1,165.17,0,242.5"/>
<path class="st3" d="M250.26,249.44c-51.83-76.36-122.48-118.19-210.01-121.27"/>
<path class="st3" d="M460.27,128.18c-51.83,76.36-122.48,118.19-210.01,121.27"/>
<path class="st3" d="M250.26,249.44c51.86,76.32,122.48,118.15,210.01,121.23"/>
<path class="st3" d="M40.25,370.68c51.86-76.36,122.48-118.19,210.01-121.23"/>
<path class="st3" d="M250.26,492.46c-40.2-83.11-41.1-165.17,0-242.5"/>
<line class="st5" x1="250.82" y1="6.36" x2="250.82" y2="492.64"/>
</svg>
