<?xml version="1.0" encoding="utf-8"?>
<!-- Generator: Adobe Illustrator 27.3.1, SVG Export Plug-In . SVG Version: 6.00 Build 0)  -->
<svg version="1.1" id="Layer_1" xmlns="http://www.w3.org/2000/svg" xmlns:xlink="http://www.w3.org/1999/xlink" x="0px" y="0px"
	 viewBox="0 0 500 500" style="enable-background:new 0 0 500 500;" xml:space="preserve">
<style type="text/css">
	.st0{fill-rule:evenodd;clip-rule:evenodd;fill:#FFFFFF;stroke:#000000;stroke-width:0.5;stroke-miterlimit:10;}
	.st1{fill-rule:evenodd;clip-rule:evenodd;fill:none;stroke:#000000;stroke-width:0.7;stroke-miterlimit:10;}
	
		.st2{fill-rule:evenodd;clip-rule:evenodd;fill:none;stroke:#171717;stroke-width:0.5;stroke-linecap:round;stroke-linejoin:round;stroke-miterlimit:10;}
	
		.st3{fill-rule:evenodd;clip-rule:evenodd;fill:none;stroke:#000000;stroke-width:0.5;stroke-linecap:round;stroke-linejoin:round;stroke-miterlimit:10;}
	
		.st4{fill-rule:evenodd;clip-rule:evenodd;fill:#666666;stroke:#000000;stroke-width:0.55;stroke-linecap:round;stroke-linejoin:round;stroke-miterlimit:10;}
	
		.st5{fill-rule:evenodd;clip-rule:evenodd;fill:none;stroke:#000000;stroke-width:0.55;stroke-linecap:round;stroke-linejoin:round;stroke-miterlimit:10;}
</style>
<g>
	<path class="st0" d="M70.97,109.97C148.13,11.02,291.04-6.71,390.03,70.45c98.95,77.16,116.68,220.11,39.52,319.06
		c-77.16,98.98-220.07,116.68-319.06,39.52C11.54,351.9-6.19,208.96,70.97,109.97z"/>
	<path class="st1" d="M164.13,127.48c66.67-47.52,159.39-32,206.94,34.67s32,159.39-34.67,206.94s-159.39,32.03-206.94-34.67
		C81.93,267.75,97.46,175.04,164.13,127.48z"/>
	<line class="st2" x1="156.66" y1="343.21" x2="156.63" y2="343.05"/>
	<line class="st3" x1="250.26" y1="0" x2="250.26" y2="499.48"/>
	<line class="st3" x1="0.52" y1="249.74" x2="500" y2="249.74"/>
	<line class="st3" x1="73.68" y1="426.35" x2="426.84" y2="73.16"/>
	<line class="st3" x1="426.84" y1="426.35" x2="73.68" y2="73.16"/>
	<g>
		<line class="st3" x1="154.68" y1="19.02" x2="345.84" y2="480.49"/>
		<line class="st3" x1="19.54" y1="345.32" x2="480.98" y2="154.19"/>
		<line class="st3" x1="154.68" y1="480.49" x2="345.84" y2="19.02"/>
		<line class="st3" x1="480.98" y1="345.32" x2="19.54" y2="154.19"/>
	</g>
	<g>
		<g>
			<path class="st4" d="M250.35,99.99l0.16,0.22v-0.19L250.35,99.99z M305.56,86.73c13.45-9.29,23.65-24.97,31.18-46.17
				c-22.49-0.5-40.78,3.46-54.23,12.75c-15.4,10.68-26.04,25.76-31.78,46.55C272.21,101.91,290.1,97.35,305.56,86.73z"/>
			<line class="st5" x1="250.35" y1="99.99" x2="336.74" y2="40.56"/>
		</g>
		<g>
			<path class="st4" d="M308.27,110.73l0.06,0.25l0.06-0.16L308.27,110.73z M364.36,119.52c15.97-3.43,31.4-14.05,46.45-30.77
				c-20.63-9.04-39.05-12.35-54.99-8.88c-18.33,3.97-33.92,13.89-47.15,30.89C327.73,120.84,346.03,123.45,364.36,119.52z"/>
			<line class="st5" x1="308.27" y1="110.73" x2="410.81" y2="88.75"/>
		</g>
		<g>
			<path class="st4" d="M356.55,144.55l-0.06,0.28l0.13-0.13L356.55,144.55z M405.33,173.59c16.09,2.77,34.36-1.35,54.55-11.27
				c-15.75-16.06-31.62-25.98-47.71-28.72c-18.49-3.12-36.66,0.28-55.27,11.15C370.85,161.18,386.85,170.41,405.33,173.59z"/>
			<line class="st5" x1="356.55" y1="144.55" x2="459.88" y2="162.32"/>
		</g>
		<g>
			<path class="st4" d="M389.36,192.49l-0.16,0.25l0.19-0.06L389.36,192.49z M422.84,238.37c13.7,8.85,32.12,12.25,54.58,11.05
				c-8.19-20.94-18.86-36.34-32.6-45.16c-15.78-10.14-33.82-14.14-55.21-11.46C395.98,213.4,407.1,228.2,422.84,238.37z"/>
			<line class="st5" x1="389.36" y1="192.49" x2="477.42" y2="249.43"/>
		</g>
		<g>
			<g>
				<path class="st4" d="M100.51,250.09l0.22-0.16h-0.19L100.51,250.09z M87.22,194.88c-9.26-13.45-24.94-23.65-46.14-31.18
					c-0.5,22.49,3.46,40.78,12.75,54.23c10.64,15.4,25.76,26.04,46.55,31.78C102.43,228.23,97.86,210.34,87.22,194.88z"/>
				<line class="st5" x1="100.51" y1="250.09" x2="41.08" y2="163.7"/>
			</g>
			<g>
				<path class="st4" d="M111.25,192.17l0.25-0.06l-0.16-0.06L111.25,192.17z M120.04,136.08c-3.43-15.97-14.05-31.4-30.77-46.45
					c-9.04,20.63-12.35,39.05-8.88,55.02c3.97,18.3,13.86,33.89,30.89,47.11C121.36,172.71,123.94,154.41,120.04,136.08z"/>
				<line class="st5" x1="111.25" y1="192.17" x2="89.27" y2="89.63"/>
			</g>
			<g>
				<path class="st4" d="M145.07,143.92l0.25,0.03l-0.13-0.13L145.07,143.92z M174.11,95.11c2.77-16.09-1.35-34.36-11.27-54.55
					c-16.06,15.75-26.01,31.62-28.72,47.74c-3.12,18.45,0.25,36.63,11.15,55.24C161.7,129.59,170.93,113.6,174.11,95.11z"/>
				<line class="st5" x1="145.07" y1="143.92" x2="162.84" y2="40.56"/>
			</g>
			<g>
				<path class="st4" d="M193.01,111.08l0.22,0.16l-0.06-0.19L193.01,111.08z M238.89,77.63c8.85-13.73,12.25-32.15,11.05-54.61
					c-20.97,8.19-36.34,18.86-45.16,32.6c-10.14,15.78-14.14,33.82-11.46,55.21C213.92,104.46,228.69,93.35,238.89,77.63z"/>
				<line class="st5" x1="193.01" y1="111.08" x2="249.94" y2="23.02"/>
			</g>
		</g>
	</g>
	<g>
		<path class="st4" d="M250.61,399.08l-0.16-0.22v0.16L250.61,399.08z M195.4,412.34c-13.45,9.26-23.65,24.94-31.18,46.17
			c22.49,0.47,40.78-3.46,54.23-12.75c15.4-10.68,26.04-25.79,31.78-46.58C228.75,397.16,210.86,401.73,195.4,412.34z"/>
		<line class="st5" x1="250.61" y1="399.08" x2="164.22" y2="458.51"/>
	</g>
	<g>
		<path class="st4" d="M192.34,386.86l-0.06-0.25l-0.06,0.16L192.34,386.86z M136.03,379.68c-15.87,3.91-30.96,14.96-45.54,32.09
			c20.85,8.44,39.37,11.24,55.24,7.31c18.17-4.5,33.48-14.86,46.2-32.25C172.6,377.32,154.24,375.24,136.03,379.68z"/>
		<line class="st5" x1="192.34" y1="386.86" x2="90.5" y2="411.77"/>
	</g>
	<g>
		<path class="st4" d="M144.41,354.52l0.06-0.28l-0.13,0.13L144.41,354.52z M95.63,325.48c-16.09-2.77-34.36,1.35-54.55,11.27
			c15.75,16.03,31.62,25.98,47.71,28.72c18.49,3.12,36.66-0.28,55.27-11.15C130.11,337.89,114.12,328.66,95.63,325.48z"/>
		<line class="st5" x1="144.41" y1="354.52" x2="41.08" y2="336.76"/>
	</g>
	<g>
		<path class="st4" d="M111.6,306.55l0.16-0.22l-0.19,0.06L111.6,306.55z M78.12,260.7c-13.7-8.88-32.12-12.25-54.58-11.05
			c8.19,20.94,18.86,36.31,32.6,45.16c15.78,10.11,33.82,14.14,55.21,11.43C104.98,285.64,93.87,270.87,78.12,260.7z"/>
		<line class="st5" x1="111.6" y1="306.55" x2="23.54" y2="249.65"/>
	</g>
	<g>
		<path class="st4" d="M400.45,248.95l-0.22,0.16l0.19,0.03L400.45,248.95z M413.74,304.16c9.26,13.48,24.94,23.65,46.14,31.21
			c0.5-22.52-3.46-40.82-12.75-54.23c-10.64-15.43-25.76-26.04-46.55-31.78C398.53,270.81,403.1,288.73,413.74,304.16z"/>
		<line class="st5" x1="400.45" y1="248.95" x2="459.88" y2="335.37"/>
	</g>
	<g>
		<path class="st4" d="M388.11,306.93l-0.25,0.06l0.16,0.06L388.11,306.93z M379.6,363.08c3.53,15.94,14.23,31.3,31.02,46.26
			c8.94-20.63,12.16-39.08,8.6-55.02c-4.06-18.3-14.05-33.86-31.15-46.99C378.12,326.46,375.6,344.75,379.6,363.08z"/>
		<line class="st5" x1="388.11" y1="306.93" x2="410.62" y2="409.35"/>
	</g>
	<g>
		<path class="st4" d="M355.89,355.15l-0.25-0.03l0.13,0.13L355.89,355.15z M326.85,403.93c-2.77,16.12,1.35,34.36,11.27,54.58
			c16.06-15.78,26.01-31.65,28.72-47.74c3.12-18.49-0.25-36.66-11.15-55.24C339.26,369.45,330.03,385.48,326.85,403.93z"/>
		<line class="st5" x1="355.89" y1="355.15" x2="338.13" y2="458.51"/>
	</g>
	<g>
		<path class="st4" d="M306.95,387.33l-0.25-0.13l0.09,0.16L306.95,387.33z M261.85,421.85c-8.57,13.92-11.53,32.41-9.83,54.83
			c20.79-8.66,35.9-19.68,44.41-33.63c9.76-16,13.38-34.11,10.2-55.43C286.19,394.45,271.68,405.88,261.85,421.85z"/>
		<line class="st5" x1="306.95" y1="387.33" x2="252.02" y2="476.68"/>
	</g>
</g>
</svg>
