<?xml version="1.0" encoding="utf-8"?>
<!-- Generator: Adobe Illustrator 27.3.1, SVG Export Plug-In . SVG Version: 6.00 Build 0)  -->
<svg version="1.1" id="Layer_1" xmlns="http://www.w3.org/2000/svg" xmlns:xlink="http://www.w3.org/1999/xlink" x="0px" y="0px"
	 viewBox="0 0 500 500" style="enable-background:new 0 0 500 500;" xml:space="preserve">
<style type="text/css">
	.st0{fill-rule:evenodd;clip-rule:evenodd;fill:#666666;stroke:#000000;stroke-width:0.5;stroke-miterlimit:10;}
	
		.st1{fill-rule:evenodd;clip-rule:evenodd;fill:none;stroke:#171717;stroke-width:0.5;stroke-linecap:round;stroke-linejoin:round;stroke-miterlimit:10;}
	.st2{fill-rule:evenodd;clip-rule:evenodd;fill:#FFFFFF;stroke:#000000;stroke-width:0.5;stroke-miterlimit:10;}
	
		.st3{fill-rule:evenodd;clip-rule:evenodd;fill:none;stroke:#000000;stroke-width:0.34;stroke-linecap:round;stroke-linejoin:round;stroke-miterlimit:10;}
	.st4{fill-rule:evenodd;clip-rule:evenodd;fill:none;stroke:#000000;stroke-width:0.5;stroke-miterlimit:10;}
</style>
<g>
	<g>
		<path class="st0" d="M231.38,498.48h-0.1l-1.56-38.83c-16.21-1.59-32.18-5.06-47.6-10.32l-4.88,15.8l-0.03,0.03
			c11.85,3.98,23.59,7.07,35.27,9.18l-6.72,21.65c-21.58-4.23-40.71-10.57-58.37-18.15h-0.07l11.78-37.93
			c-14.31-6.89-27.92-15.45-40.53-25.64l-9.77,12.89l0,0c9.77,7.79,19.78,14.69,30,20.65l-13.72,18.05
			c-18.85-11.29-34.64-23.8-48.67-36.93l-0.07-0.03l23.83-31.39c-7.38-7.59-14.27-15.8-20.58-24.67
			c-3.88-5.44-7.48-11.02-10.77-16.66l-13.58,8.38h-0.03c6.31,10.81,13.16,20.82,20.54,30.07l-19.26,11.92
			c-13.51-17.32-23.77-34.68-32.15-52l-0.03-0.03l33.33-20.58c-6.55-15.24-11.16-30.97-13.89-46.91L26.26,291l0,0
			c2.49,12.26,5.72,23.94,9.73,35.09l-22.1,5.06c-7.17-20.79-11.26-40.46-13.61-59.59v-0.07l40.67-9.28
			c-0.83-16.35,0.24-32.74,3.19-48.78l-17.53-2.81c-2.25,12.3-3.64,24.35-4.09,36.2l-22.38-3.57c1.11-21.96,4.68-41.78,9.67-60.38
			v-0.03l40.26,6.44c4.71-15.24,11.16-29.97,19.3-43.89l0.45,0.24l-16.66-8.49c-5.96,10.98-10.95,22.07-15,33.15l-20.2-10.25
			c7.79-20.58,17.25-38.32,27.68-54.49l0.03-0.03l38.04,19.37l-0.49-0.28c9.87-13.03,21.44-25.05,34.61-35.75l-12.75-14.48
			c-9.6,8-18.33,16.42-26.22,25.25L63.91,82.62c14.83-16.21,30.21-29.2,45.9-40.36l0.03-0.03l28.2,32.11l-0.03-0.03
			c14.38-9.11,29.45-16.25,44.97-21.51l-6.69-18.01c-11.81,4.05-23,8.8-33.53,14.2l-7.86-21.24c19.68-9.84,38.66-16.46,57.3-21.24
			l0.07-0.03l14.72,39.8v-0.03c15.76-3.29,31.77-4.75,47.7-4.37V22.62c-12.51-0.28-24.63,0.28-36.38,1.7V1.63
			c21.86-2.36,41.99-1.97,61.11,0h0.07v42.3c14.48,2.04,28.75,5.61,42.54,10.64l-0.03,0.1l6.27-19.5
			c-11.81-4.12-23.52-7.31-35.13-9.56l6.93-21.55c21.55,4.43,40.57,10.98,58.17,18.71l0.07,0.03l-13.48,41.88l0.07-0.21
			c12.82,6.51,25.05,14.38,36.48,23.56l-0.17,0.21l11.71-15.07c-9.67-7.9-19.57-14.93-29.72-21.03l13.93-17.88
			c18.71,11.54,34.33,24.22,48.22,37.52l0.07,0.03l-25.81,33.15l0.17-0.21c7.48,7.62,14.45,15.94,20.82,24.87
			c2.81,3.95,5.47,7.97,7.97,12.02l-0.21,0.1l15.94-10.22c-6.51-10.67-13.55-20.58-21.06-29.69l19.05-12.26
			c13.82,17.11,24.35,34.26,33.01,51.41l0.03,0.07l-35.13,22.59l0.1-0.07c6.89,14.86,11.88,30.28,15.04,45.9l-0.14,0.03l17.84-3.78
			c-2.29-12.3-5.34-24.04-9.18-35.23l22.17-4.71c6.86,20.89,10.64,40.64,12.68,59.76v0.07l-40.15,8.52l0.24-0.03
			c1.39,17.18,0.66,34.44-2.15,51.38l16.35,2.88h0.03c2.46-12.26,4.02-24.28,4.64-36.13l22.31,3.91
			c-1.42,21.96-5.3,41.71-10.57,60.21v0.07l-38.28-6.72c-4.54,15.73-10.95,30.97-19.16,45.38l14.72,8.14l0,0
			c6.31-10.77,11.71-21.65,16.18-32.63l19.82,10.98c-8.52,20.27-18.6,37.69-29.62,53.45l-0.03,0.07l-34.64-19.19
			c-9.18,12.4-19.85,23.9-31.94,34.26l11.12,12.02l0,0c9.39-8.25,17.91-16.91,25.57-25.91l15.38,16.63
			c-14.41,16.59-29.48,29.97-44.86,41.5l-0.03,0.03l-27.02-29.2c-13.1,8.8-26.88,15.9-41.02,21.37l6.34,15.35l0,0
			c11.67-4.5,22.66-9.67,32.98-15.45l8.66,20.92c-19.3,10.57-38.04,17.91-56.47,23.38l-0.03,0.03l-15.21-36.65
			c-15.59,3.98-31.46,6.1-47.32,6.41l0.66,15.87v0.03c12.51-0.21,24.6-1.25,36.27-3.15l0.94,22.62
			C270.7,499.27,250.57,499.69,231.38,498.48z"/>
	</g>
	<line class="st1" x1="147.13" y1="354.05" x2="147.09" y2="353.88"/>
	<path class="st2" d="M141.76,97.73c83.84-59.76,200.44-40.26,260.24,43.58s40.26,200.44-43.58,260.24S157.97,441.8,98.18,357.96
		C38.42,274.13,57.92,157.52,141.76,97.73z"/>
	<line class="st3" x1="250.09" y1="64.47" x2="250.09" y2="438.02"/>
	<line class="st3" x1="63.33" y1="251.23" x2="436.88" y2="251.23"/>
	<g>
		<path class="st4" d="M231.38,498.48h-0.1l-1.56-38.83c-16.21-1.59-32.18-5.06-47.6-10.32l-4.88,15.8l-0.03,0.03
			c11.85,3.98,23.59,7.07,35.27,9.18l-6.72,21.65c-21.58-4.23-40.71-10.57-58.37-18.15h-0.07l11.78-37.93
			c-14.31-6.89-27.92-15.45-40.53-25.64l-9.77,12.89l0,0c9.77,7.79,19.78,14.69,30,20.65l-13.72,18.05
			c-18.85-11.29-34.64-23.8-48.67-36.93l-0.07-0.03l23.83-31.39c-7.38-7.59-14.27-15.8-20.58-24.67
			c-3.88-5.44-7.48-11.02-10.77-16.66l-13.58,8.38h-0.03c6.31,10.81,13.16,20.82,20.54,30.07l-19.26,11.92
			c-13.51-17.32-23.77-34.68-32.15-52l-0.03-0.03l33.33-20.58c-6.55-15.24-11.16-30.97-13.89-46.91L26.26,291l0,0
			c2.49,12.26,5.72,23.94,9.73,35.09l-22.1,5.06c-7.17-20.79-11.26-40.46-13.61-59.59v-0.07l40.67-9.28
			c-0.83-16.35,0.24-32.74,3.19-48.78l-17.53-2.81c-2.25,12.3-3.64,24.35-4.09,36.2l-22.38-3.57c1.11-21.96,4.68-41.78,9.67-60.38
			v-0.03l40.26,6.44c4.71-15.24,11.16-29.97,19.3-43.89l0.45,0.24l-16.66-8.49c-5.96,10.98-10.95,22.07-15,33.15l-20.2-10.25
			c7.79-20.58,17.25-38.32,27.68-54.49l0.03-0.03l38.04,19.37l-0.49-0.28c9.87-13.03,21.44-25.05,34.61-35.75l-12.75-14.48
			c-9.6,8-18.33,16.42-26.22,25.25L63.91,82.62c14.83-16.21,30.21-29.2,45.9-40.36l0.03-0.03l28.2,32.11l-0.03-0.03
			c14.38-9.11,29.45-16.25,44.97-21.51l-6.69-18.01c-11.81,4.05-23,8.8-33.53,14.2l-7.86-21.24c19.68-9.84,38.66-16.46,57.3-21.24
			l0.07-0.03l14.72,39.8v-0.03c15.76-3.29,31.77-4.75,47.7-4.37V22.62c-12.51-0.28-24.63,0.28-36.38,1.7V1.63
			c21.86-2.36,41.99-1.97,61.11,0h0.07v42.3c14.48,2.04,28.75,5.61,42.54,10.64l-0.03,0.1l6.27-19.5
			c-11.81-4.12-23.52-7.31-35.13-9.56l6.93-21.55c21.55,4.43,40.57,10.98,58.17,18.71l0.07,0.03l-13.48,41.88l0.07-0.21
			c12.82,6.51,25.05,14.38,36.48,23.56l-0.17,0.21l11.71-15.07c-9.67-7.9-19.57-14.93-29.72-21.03l13.93-17.88
			c18.71,11.54,34.33,24.22,48.22,37.52l0.07,0.03l-25.81,33.15l0.17-0.21c7.48,7.62,14.45,15.94,20.82,24.87
			c2.81,3.95,5.47,7.97,7.97,12.02l-0.21,0.1l15.94-10.22c-6.51-10.67-13.55-20.58-21.06-29.69l19.05-12.26
			c13.82,17.11,24.35,34.26,33.01,51.41l0.03,0.07l-35.13,22.59l0.1-0.07c6.89,14.86,11.88,30.28,15.04,45.9l-0.14,0.03l17.84-3.78
			c-2.29-12.3-5.34-24.04-9.18-35.23l22.17-4.71c6.86,20.89,10.64,40.64,12.68,59.76v0.07l-40.15,8.52l0.24-0.03
			c1.39,17.18,0.66,34.44-2.15,51.38l16.35,2.88h0.03c2.46-12.26,4.02-24.28,4.64-36.13l22.31,3.91
			c-1.42,21.96-5.3,41.71-10.57,60.21v0.07l-38.28-6.72c-4.54,15.73-10.95,30.97-19.16,45.38l14.72,8.14l0,0
			c6.31-10.77,11.71-21.65,16.18-32.63l19.82,10.98c-8.52,20.27-18.6,37.69-29.62,53.45l-0.03,0.07l-34.64-19.19
			c-9.18,12.4-19.85,23.9-31.94,34.26l11.12,12.02l0,0c9.39-8.25,17.91-16.91,25.57-25.91l15.38,16.63
			c-14.41,16.59-29.48,29.97-44.86,41.5l-0.03,0.03l-27.02-29.2c-13.1,8.8-26.88,15.9-41.02,21.37l6.34,15.35l0,0
			c11.67-4.5,22.66-9.67,32.98-15.45l8.66,20.92c-19.3,10.57-38.04,17.91-56.47,23.38l-0.03,0.03l-15.21-36.65
			c-15.59,3.98-31.46,6.1-47.32,6.41l0.66,15.87v0.03c12.51-0.21,24.6-1.25,36.27-3.15l0.94,22.62
			C270.7,499.27,250.57,499.69,231.38,498.48z"/>
	</g>
</g>
</svg>
