<?xml version="1.0" encoding="utf-8"?>
<!-- Generator: Adobe Illustrator 27.3.1, SVG Export Plug-In . SVG Version: 6.00 Build 0)  -->
<svg version="1.1" id="Layer_1" xmlns="http://www.w3.org/2000/svg" xmlns:xlink="http://www.w3.org/1999/xlink" x="0px" y="0px"
	 viewBox="0 0 500 500" style="enable-background:new 0 0 500 500;" xml:space="preserve">
<style type="text/css">
	.st0{fill-rule:evenodd;clip-rule:evenodd;fill:#FFFFFF;stroke:#000000;stroke-width:0.5;stroke-miterlimit:10;}
	.st1{fill-rule:evenodd;clip-rule:evenodd;fill:#666666;stroke:#000000;stroke-width:0.5;stroke-miterlimit:10;}
	.st2{fill-rule:evenodd;clip-rule:evenodd;fill:#333333;stroke:#000000;stroke-width:0.5;stroke-miterlimit:10;}

		.st3{fill-rule:evenodd;clip-rule:evenodd;fill:none;stroke:#000000;stroke-width:0.5;stroke-linecap:round;stroke-linejoin:round;stroke-miterlimit:10;}
</style>
<g>
	<path class="st0" d="M71.33,111.2C148.42,12.33,291.22-5.38,390.12,71.71c98.87,77.09,116.58,219.92,39.49,318.79
		c-77.09,98.9-219.89,116.58-318.79,39.49C11.95,352.93-5.76,210.1,71.33,111.2z"/>
	<path class="st1" d="M81.46,130.3c66.55-93.27,196.26-114.98,289.56-48.46c93.3,66.55,115.01,196.29,48.46,289.56
		c-66.55,93.3-196.26,115.01-289.56,48.46S14.91,223.6,81.46,130.3z"/>
	<path class="st0" d="M221.96,434.49c-22.09-15.73-27.22-46.44-11.49-68.53c7.87-11.01,19.45-17.81,31.84-19.89v-75.43L189.93,323
		c7.3,10.26,10.67,23.25,8.43,36.6c-4.47,26.75-29.8,44.81-56.55,40.34c-26.75-4.47-44.81-29.83-40.34-56.55
		c4.47-26.75,29.83-44.81,56.55-40.34c7.65,1.26,14.57,4.25,20.45,8.46l53.93-53.93h-77.12c-1.16,7.17-3.96,14.16-8.46,20.45
		c-15.73,22.09-46.44,27.22-68.5,11.49c-22.09-15.76-27.22-46.44-11.49-68.53c15.76-22.06,46.44-27.22,68.53-11.45
		c11.01,7.84,17.81,19.45,19.92,31.81l75.52,0.03h0.06l-52.39-52.39c-5.88,4.22-12.81,7.17-20.45,8.46
		c-26.72,4.47-52.08-13.59-56.55-40.34c-4.47-26.75,13.59-52.08,40.34-56.55c26.75-4.5,52.08,13.56,56.55,40.31
		c2.23,13.37-1.13,26.37-8.43,36.6l52.39,52.39v-74.2c-12.4-2.08-23.98-8.91-31.84-19.92c-15.73-22.09-10.6-52.77,11.49-68.5
		c22.06-15.76,52.77-10.6,68.5,11.45c15.73,22.09,10.6,52.77-11.49,68.53c-6.29,4.47-13.28,7.27-20.42,8.46v75.68l53.9-53.9
		c-7.27-10.23-10.67-23.22-8.43-36.6c4.47-26.75,29.83-44.81,56.58-40.31c26.72,4.47,44.81,29.8,40.31,56.55
		c-4.47,26.75-29.8,44.81-56.55,40.34c-7.65-1.29-14.54-4.25-20.45-8.46l-52.45,52.45h74.2c1.16-7.14,3.96-14.16,8.46-20.45
		c15.73-22.06,46.41-27.22,68.5-11.45c22.06,15.73,27.22,46.44,11.49,68.5c-15.76,22.09-46.44,27.22-68.53,11.49
		c-11.01-7.87-17.81-19.45-19.92-31.84h-75.58l53.84,53.84c5.92-4.22,12.81-7.21,20.45-8.46c26.75-4.47,52.08,13.59,56.55,40.34
		c4.5,26.72-13.59,52.08-40.31,56.55c-26.75,4.47-52.11-13.59-56.58-40.34c-2.23-13.34,1.16-26.34,8.43-36.6l-53.97-53.93
		l0.06,76.97c7.14,1.16,14.13,3.96,20.42,8.46c22.09,15.73,27.22,46.44,11.49,68.5C274.73,445.1,244.02,450.22,221.96,434.49z"/>
	<path class="st2" d="M240.18,78.16c16.27-5.7,34.08,2.89,39.74,19.16c5.7,16.27-2.89,34.08-19.16,39.74s-34.08-2.93-39.74-19.16
		C215.32,101.64,223.91,83.83,240.18,78.16z"/>
	<path class="st0" d="M244.81,91.38c8.94-3.12,18.75,1.6,21.87,10.57c3.15,8.94-1.6,18.75-10.54,21.87
		c-8.97,3.15-18.75-1.6-21.9-10.54C231.12,104.31,235.84,94.53,244.81,91.38z"/>
	<line class="st3" x1="236.53" y1="107.62" x2="264.41" y2="107.62"/>
	<path class="st2" d="M240.18,424.92c16.27,5.66,34.08-2.93,39.74-19.19c5.7-16.24-2.89-34.05-19.16-39.74
		c-16.27-5.66-34.08,2.93-39.74,19.16C215.32,401.42,223.91,419.23,240.18,424.92z"/>
	<path class="st0" d="M244.81,411.68c8.94,3.12,18.75-1.6,21.87-10.57c3.15-8.94-1.6-18.75-10.54-21.87
		c-8.97-3.15-18.75,1.6-21.9,10.54C231.12,398.74,235.84,408.53,244.81,411.68z"/>
	<line class="st3" x1="236.53" y1="395.44" x2="264.41" y2="395.44"/>
	<path class="st2" d="M423.19,259.79c5.66-16.27-2.93-34.05-19.19-39.71c-16.24-5.66-34.05,2.96-39.74,19.23
		c-5.66,16.24,2.93,34.05,19.19,39.68C399.68,284.65,417.49,276.06,423.19,259.79z"/>
	<path class="st0" d="M409.94,255.19c3.12-8.87-1.6-18.63-10.57-21.81c-8.94-3.18-18.75,1.45-21.87,10.32
		c-3.12,8.84,1.6,18.63,10.57,21.81C397.01,268.69,406.83,264.07,409.94,255.19z"/>
	<line class="st3" x1="393.71" y1="263.47" x2="393.71" y2="235.56"/>
	<path class="st2" d="M77.75,239.24c-5.66,16.27,2.93,34.05,19.19,39.71c16.24,5.66,34.05-2.93,39.74-19.19
		c5.66-16.27-2.93-34.05-19.19-39.71C101.26,214.38,83.45,223,77.75,239.24z"/>
	<path class="st0" d="M91,243.83c-3.12,8.87,1.6,18.66,10.57,21.84c8.94,3.15,18.75-1.45,21.87-10.32
		c3.12-8.87-1.6-18.66-10.57-21.81C103.93,230.37,94.11,234.99,91,243.83z"/>
	<line class="st3" x1="107.2" y1="235.56" x2="107.2" y2="263.47"/>
	<path class="st2" d="M365.76,379.33c15.51-7.49,22.03-26.15,14.54-41.63c-7.49-15.51-26.18-22.03-41.69-14.54
		s-22.03,26.15-14.51,41.63C331.59,380.31,350.25,386.82,365.76,379.33z"/>
	<path class="st0" d="M359.66,366.71c8.5-4.06,12.05-14.32,7.96-22.91c-4.09-8.56-14.29-12.24-22.75-8.18
		c-8.5,4.06-12.05,14.32-7.96,22.91C340.97,367.09,351.19,370.77,359.66,366.71z"/>
	<line class="st3" x1="342.35" y1="361.08" x2="362.08" y2="341.35"/>
	<path class="st2" d="M136.62,379.33c-15.51-7.49-22.03-26.15-14.51-41.63c7.49-15.51,26.15-22.03,41.66-14.54
		s22.03,26.15,14.54,41.63C170.83,380.31,152.14,386.82,136.62,379.33z"/>
	<path class="st0" d="M142.73,366.71c-8.46-4.06-12.05-14.32-7.96-22.91c4.09-8.56,14.29-12.24,22.78-8.18
		c8.46,4.06,12.05,14.32,7.96,22.91C161.42,367.09,151.22,370.77,142.73,366.71z"/>
	<line class="st3" x1="160.07" y1="361.08" x2="140.34" y2="341.35"/>
	<path class="st2" d="M136.62,121.18c-15.51,7.49-22.03,26.15-14.51,41.63c7.49,15.51,26.15,22,41.66,14.54
		c15.51-7.49,22.03-26.15,14.54-41.66C170.83,120.2,152.14,113.69,136.62,121.18z"/>
	<path class="st0" d="M142.73,133.8c-8.46,4.06-12.05,14.32-7.96,22.88c4.09,8.59,14.29,12.24,22.78,8.18
		c8.46-4.06,12.05-14.32,7.96-22.88C161.42,133.39,151.22,129.74,142.73,133.8z"/>
	<line class="st3" x1="160.07" y1="139.4" x2="140.34" y2="159.13"/>
	<path class="st2" d="M365.76,121.18c15.51,7.49,22.03,26.15,14.54,41.63c-7.49,15.51-26.18,22-41.69,14.54
		c-15.51-7.49-22.03-26.15-14.51-41.66C331.59,120.2,350.25,113.69,365.76,121.18z"/>
	<path class="st0" d="M359.66,133.8c8.5,4.06,12.05,14.32,7.96,22.88c-4.09,8.59-14.29,12.24-22.75,8.18
		c-8.5-4.06-12.05-14.32-7.96-22.88C340.97,133.39,351.19,129.74,359.66,133.8z"/>
	<line class="st3" x1="342.35" y1="139.4" x2="362.08" y2="159.13"/>
	<line class="st3" x1="250.47" y1="0" x2="250.47" y2="499.06"/>
	<line class="st3" x1="0.94" y1="250.85" x2="500" y2="250.85"/>
	<line class="st3" x1="74.82" y1="426.62" x2="427.69" y2="73.76"/>
	<line class="st3" x1="426.9" y1="425.96" x2="74.04" y2="73.07"/>
</g>
</svg>
