<?xml version="1.0" encoding="utf-8"?>
<!-- Generator: Adobe Illustrator 27.3.1, SVG Export Plug-In . SVG Version: 6.00 Build 0)  -->
<svg version="1.1" id="Layer_1" xmlns="http://www.w3.org/2000/svg" xmlns:xlink="http://www.w3.org/1999/xlink" x="0px" y="0px"
	 viewBox="0 0 500 500" style="enable-background:new 0 0 500 500;" xml:space="preserve">
<style type="text/css">
	.st0{fill-rule:evenodd;clip-rule:evenodd;fill:#FFFFFF;stroke:#000000;stroke-width:0.5;stroke-miterlimit:10;}
	.st1{fill-rule:evenodd;clip-rule:evenodd;fill:#666666;stroke:#000000;stroke-width:0.5;stroke-miterlimit:10;}
	
		.st2{fill-rule:evenodd;clip-rule:evenodd;fill:none;stroke:#171717;stroke-width:0.5;stroke-linecap:round;stroke-linejoin:round;stroke-miterlimit:10;}
	.st3{fill-rule:evenodd;clip-rule:evenodd;fill:#FFFFFF;stroke:#000000;stroke-width:0.52;stroke-miterlimit:10;}
	
		.st4{fill-rule:evenodd;clip-rule:evenodd;fill:#666666;stroke:#010101;stroke-width:0.5;stroke-linecap:round;stroke-linejoin:round;stroke-miterlimit:10;}
	
		.st5{fill-rule:evenodd;clip-rule:evenodd;fill:none;stroke:#010101;stroke-width:0.5;stroke-linecap:round;stroke-linejoin:round;stroke-miterlimit:10;}
</style>
<g>
	<path class="st0" d="M71.58,110.09c77.24-99.05,220.3-116.8,319.39-39.56c99.05,77.24,116.8,220.33,39.56,319.39
		c-77.24,99.09-220.3,116.8-319.39,39.56C12.09,352.27-5.66,209.17,71.58,110.09z"/>
	<path class="st1" d="M161.65,124.65c69.2-49.34,165.42-33.23,214.75,35.97c49.34,69.17,33.23,165.38-35.94,214.75
		c-69.2,49.34-165.42,33.23-214.75-35.97C76.34,270.21,92.48,173.99,161.65,124.65z"/>
	<line class="st2" x1="157.36" y1="345.02" x2="157.33" y2="344.86"/>
	<path class="st0" d="M173.69,142.65c59.27-42.28,141.68-28.47,183.92,30.8c42.28,59.24,28.47,141.65-30.8,183.92
		c-59.24,42.24-141.65,28.44-183.92-30.8C100.65,267.31,114.46,184.9,173.69,142.65z"/>
	<path class="st1" d="M182.87,154.38c52.77-37.64,126.17-25.35,163.81,27.43s25.35,126.2-27.43,163.84S193.08,371,155.41,318.19
		C117.77,265.42,130.06,192.02,182.87,154.38z"/>
	<path class="st3" d="M188.38,162.11c48.52-34.62,115.98-23.3,150.57,25.22c34.62,48.52,23.3,115.98-25.22,150.6
		c-48.52,34.58-115.98,23.3-150.57-25.22C128.55,264.19,139.83,196.69,188.38,162.11z"/>
	<g>
		<path class="st4" d="M249.39,95.78l0.09-0.19l-0.13,0.03L249.39,95.78z M215.21,54.1c-13.3-8.67-30.58-13.08-51.26-14
			c9.02,18.44,19.99,32.35,33.29,40.98c15.32,9.93,32.28,14.85,51.89,14.38C241.79,77.52,230.5,64.06,215.21,54.1z"/>
		<path class="st4" d="M251.15,95.78l-0.13-0.19l0.16,0.03L251.15,95.78z M285.33,54.1c13.3-8.67,30.58-13.08,51.26-14
			c-9.05,18.44-19.99,32.35-33.32,40.98c-15.29,9.93-32.25,14.85-51.86,14.38C258.75,77.52,270.04,64.06,285.33,54.1z"/>
	</g>
	<g>
		<path class="st4" d="M140.4,141.14l-0.03-0.22l-0.09,0.13L140.4,141.14z M86.78,135.84c-15.54,3.28-30.86,12.36-46.15,26.32
			c19.42,6.65,37.01,8.76,52.55,5.45c17.81-3.81,33.32-12.33,46.82-26.51C122.12,133.58,104.62,132.06,86.78,135.84z"/>
		<path class="st4" d="M141.66,139.88l-0.22-0.03l0.13-0.09L141.66,139.88z M136.37,86.25c3.28-15.54,12.36-30.86,26.36-46.15
			c6.62,19.42,8.73,37.01,5.42,52.55c-3.81,17.81-12.33,33.32-26.51,46.82C134.1,121.6,132.58,104.1,136.37,86.25z"/>
	</g>
	<g>
		<path class="st4" d="M360.45,141.14l0.03-0.22l0.09,0.13L360.45,141.14z M414.05,135.84c15.54,3.28,30.9,12.36,46.19,26.32
			c-19.45,6.65-37.01,8.76-52.55,5.45c-17.84-3.81-33.32-12.33-46.85-26.51C378.71,133.58,396.2,132.06,414.05,135.84z"/>
		<path class="st4" d="M359.19,139.88l0.22-0.03l-0.13-0.09L359.19,139.88z M364.49,86.25c-3.28-15.54-12.36-30.86-26.36-46.15
			c-6.62,19.42-8.73,37.01-5.42,52.55c3.81,17.81,12.33,33.32,26.51,46.82C366.73,121.6,368.24,104.1,364.49,86.25z"/>
	</g>
	<g>
		<path class="st4" d="M95.57,250.91l-0.16-0.13v0.16L95.57,250.91z M53.93,285.06c-8.67,13.3-13.08,30.58-14,51.29
			c18.41-9.05,32.35-20.02,40.98-33.32c9.9-15.32,14.85-32.28,14.38-51.86C77.32,258.48,63.89,269.8,53.93,285.06z"/>
		<path class="st4" d="M95.57,249.12l-0.16,0.13v-0.16L95.57,249.12z M53.93,214.94c-8.67-13.3-13.08-30.55-14-51.26
			c18.41,9.05,32.35,19.99,40.98,33.32c9.9,15.29,14.85,32.25,14.38,51.86C77.32,241.55,63.89,230.23,53.93,214.94z"/>
	</g>
	<g>
		<path class="st4" d="M405.5,250.91l0.16-0.13v0.16L405.5,250.91z M447.15,285.06c8.67,13.3,13.08,30.58,14,51.29
			c-18.41-9.05-32.35-20.02-40.98-33.32c-9.93-15.32-14.85-32.28-14.38-51.86C423.76,258.48,437.19,269.8,447.15,285.06z"/>
		<path class="st4" d="M405.5,249.12l0.16,0.13v-0.16L405.5,249.12z M447.15,214.94c8.67-13.3,13.08-30.55,14-51.26
			c-18.41,9.05-32.35,19.99-40.98,33.32c-9.93,15.29-14.85,32.25-14.38,51.86C423.76,241.55,437.19,230.23,447.15,214.94z"/>
	</g>
	<g>
		<path class="st4" d="M249.23,404.16l0.13,0.16h-0.16L249.23,404.16z M215.06,445.81c-13.3,8.67-30.58,13.08-51.26,14
			c9.05-18.41,19.99-32.35,33.32-40.98c15.29-9.93,32.25-14.85,51.86-14.38C241.63,422.41,230.35,435.84,215.06,445.81z"/>
		<path class="st4" d="M250.99,404.16l-0.13,0.16h0.16L250.99,404.16z M285.17,445.81c13.3,8.67,30.58,13.08,51.26,14
			c-9.05-18.41-19.99-32.35-33.32-40.98c-15.29-9.93-32.25-14.85-51.86-14.38C258.59,422.41,269.88,435.84,285.17,445.81z"/>
	</g>
	<g>
		<path class="st4" d="M140.24,358.76l-0.03,0.22l-0.09-0.13L140.24,358.76z M86.62,364.09c-15.51-3.28-30.86-12.36-46.15-26.36
			c19.42-6.65,37.01-8.73,52.55-5.42c17.81,3.78,33.32,12.3,46.85,26.48C121.96,366.33,104.46,367.84,86.62,364.09z"/>
		<path class="st4" d="M141.51,360.06l-0.22,0.03l0.13,0.09L141.51,360.06z M136.21,413.65c3.28,15.54,12.36,30.86,26.36,46.15
			c6.62-19.42,8.73-37.01,5.42-52.52c-3.81-17.84-12.33-33.32-26.51-46.85C133.94,378.31,132.46,395.81,136.21,413.65z"/>
	</g>
	<g>
		<path class="st4" d="M360.29,358.76l0.03,0.22l0.09-0.13L360.29,358.76z M413.89,364.09c15.54-3.28,30.9-12.36,46.19-26.36
			c-19.42-6.65-37.01-8.73-52.55-5.42c-17.84,3.78-33.32,12.3-46.85,26.48C378.58,366.33,396.08,367.84,413.89,364.09z"/>
		<path class="st4" d="M359.03,360.06l0.22,0.03l-0.13,0.09L359.03,360.06z M364.33,413.65c-3.28,15.54-12.36,30.86-26.36,46.15
			c-6.62-19.42-8.73-37.01-5.42-52.52c3.81-17.84,12.33-33.32,26.51-46.85C366.57,378.31,368.08,395.81,364.33,413.65z"/>
	</g>
	<g>
		<line class="st5" x1="250.27" y1="0" x2="250.27" y2="500"/>
		<line class="st5" x1="0.27" y1="250" x2="500.27" y2="250"/>
		<line class="st5" x1="73.5" y1="426.8" x2="427.04" y2="73.23"/>
		<line class="st5" x1="427.04" y1="426.8" x2="73.5" y2="73.23"/>
		<g>
			<line class="st5" x1="154.59" y1="19.04" x2="345.95" y2="480.99"/>
			<line class="st5" x1="19.31" y1="345.68" x2="481.23" y2="154.35"/>
			<line class="st5" x1="154.59" y1="480.99" x2="345.95" y2="19.04"/>
			<line class="st5" x1="481.23" y1="345.68" x2="19.31" y2="154.35"/>
		</g>
	</g>
</g>
</svg>
