<?xml version="1.0" encoding="utf-8"?>
<!-- Generator: Adobe Illustrator 27.3.1, SVG Export Plug-In . SVG Version: 6.00 Build 0)  -->
<svg version="1.1" id="Layer_1" xmlns="http://www.w3.org/2000/svg" xmlns:xlink="http://www.w3.org/1999/xlink" x="0px" y="0px"
	 viewBox="0 0 500 500" style="enable-background:new 0 0 500 500;" xml:space="preserve">
<style type="text/css">
	.st0{fill-rule:evenodd;clip-rule:evenodd;fill:#FFFFFF;stroke:#000000;stroke-width:0.5;stroke-miterlimit:10;}
	.st1{fill-rule:evenodd;clip-rule:evenodd;fill:none;stroke:#000000;stroke-width:0.63;stroke-miterlimit:10;}
	.st2{fill-rule:evenodd;clip-rule:evenodd;fill:#666666;stroke:#000000;stroke-width:0.47;stroke-miterlimit:10;}
	.st3{fill-rule:evenodd;clip-rule:evenodd;fill:#FFFFFF;stroke:#000000;stroke-width:0.41;stroke-miterlimit:10;}
	
		.st4{fill-rule:evenodd;clip-rule:evenodd;fill:#666666;stroke:#010101;stroke-width:0.5;stroke-linecap:round;stroke-linejoin:round;stroke-miterlimit:10;}
	
		.st5{fill-rule:evenodd;clip-rule:evenodd;fill:none;stroke:#171717;stroke-width:0.5;stroke-linecap:round;stroke-linejoin:round;stroke-miterlimit:10;}
	
		.st6{fill-rule:evenodd;clip-rule:evenodd;fill:#666666;stroke:#000000;stroke-width:0.5;stroke-linecap:round;stroke-linejoin:round;stroke-miterlimit:10;}
	
		.st7{fill-rule:evenodd;clip-rule:evenodd;fill:none;stroke:#010101;stroke-width:0.5;stroke-linecap:round;stroke-linejoin:round;stroke-miterlimit:10;}
</style>
<g>
	<path class="st0" d="M71.55,110.03c77.16-99,220.18-116.74,319.21-39.54c99,77.2,116.71,220.21,39.54,319.21
		c-77.2,99.03-220.21,116.74-319.21,39.54C12.06,352.08-5.65,209.06,71.55,110.03z"/>
	<path class="st1" d="M173.16,140.84c60.18-42.91,143.87-28.89,186.75,31.29c42.91,60.18,28.92,143.84-31.26,186.75
		s-143.84,28.89-186.75-31.26C98.99,267.44,113.01,183.76,173.16,140.84z"/>
	<path class="st2" d="M191.69,167.91c45.21-32.26,108.14-21.71,140.4,23.51c32.23,45.25,21.71,108.17-23.54,140.4
		c-45.21,32.26-108.14,21.74-140.4-23.51S146.44,200.17,191.69,167.91z"/>
	<path class="st3" d="M199.57,177.87c39.73-28.33,95-19.09,123.36,20.67c28.33,39.73,19.06,95-20.67,123.32
		c-39.73,28.36-95,19.09-123.36-20.64C150.57,261.49,159.83,206.22,199.57,177.87z"/>
	<path class="st4" d="M231.77,430.09L231.77,430.09 M268.48,430.09c0-14.65-6.4-30.19-18.21-46.54
		c-11.82,16.35-18.18,31.89-18.18,46.54c0.03,16.79,5.77,32.36,18.18,47.17C262.71,462.45,268.44,446.89,268.48,430.09z"/>
	<path class="st4" d="M386.54,249.99l0.09-0.13l-0.09-0.13V249.99 M433.42,231.68c-14.65-0.03-30.15,6.36-46.51,18.18
		c16.35,11.82,31.86,18.21,46.51,18.21c16.83-0.03,32.36-5.77,47.17-18.21C465.78,237.45,450.25,231.71,433.42,231.68z"/>
	<path class="st4" d="M249.82,115.98h0.25l-0.13-0.09L249.82,115.98z M268.16,68.47c0-14.65-6.4-30.15-18.21-46.51
		c-11.82,16.35-18.21,31.86-18.18,46.51c0.03,16.83,5.77,32.36,18.18,47.17C262.39,100.83,268.13,85.29,268.16,68.47z"/>
	<path class="st4" d="M70.03,268.36c-14.81,0.03-30.44-6.46-46.92-18.37v-0.25c16.48-11.91,32.11-18.4,46.92-18.37
		c16.92,0.03,32.61,5.83,47.48,18.37v0.25C102.65,262.56,86.95,268.36,70.03,268.36z"/>
	<path class="st4" d="M391.58,365.31c-10.33-10.37-25.84-16.83-45.75-20.04c3.18,19.91,9.64,35.42,20.01,45.75
		c11.91,11.88,26.97,18.81,46.22,20.51C410.39,392.25,403.46,377.22,391.58,365.31z"/>
	<line class="st5" x1="157.25" y1="344.83" x2="157.22" y2="344.67"/>
	<path class="st4" d="M344.98,155.21l-0.19-0.16h0.16L344.98,155.21z M365.62,108.67c10.33-10.37,25.84-16.83,45.75-20.04
		c-3.21,19.94-9.64,35.42-20.04,45.78c-11.88,11.85-26.94,18.78-46.19,20.48C346.81,135.64,353.74,120.58,365.62,108.67z"/>
	<path class="st4" d="M156.97,156.6l0.16-0.19l-0.16,0.03V156.6z M136.33,110.06c-10.37-10.37-25.84-16.83-45.78-20.04
		c3.21,19.91,9.67,35.42,20.04,45.75c11.91,11.88,26.97,18.81,46.22,20.48C155.14,137,148.18,121.97,136.33,110.06z"/>
	<path class="st4" d="M199.22,126.88l0.22-0.09l-0.16-0.06L199.22,126.88z M197.96,75.97c-5.61-13.55-17.46-25.43-34.63-36.01
		c-4.66,19.63-4.63,36.42,1.01,49.94c6.46,15.53,17.71,27.7,34.85,36.61C205.02,108.07,204.36,91.5,197.96,75.97z"/>
	<path class="st4" d="M336.91,39.26l-0.22-0.09l0.06,0.16L336.91,39.26z M301.81,76.16c-5.61,13.52-5.67,30.31-0.98,49.94
		c17.17-10.59,28.99-22.5,34.6-36.01c6.4-15.57,7.06-32.11,1.23-50.54C319.52,48.46,308.27,60.62,301.81,76.16z"/>
	<path class="st4" d="M374.5,198.63l0.09,0.22l0.06-0.16L374.5,198.63z M425.39,196.93c13.52-5.73,25.3-17.68,35.73-34.94
		c-19.66-4.47-36.46-4.32-49.94,1.45c-15.44,6.59-27.51,17.93-36.3,35.16C393.38,204.24,409.92,203.45,425.39,196.93z"/>
	<path class="st4" d="M40.26,163.43l0.03,0.16l-0.13,0.06L40.26,163.43 M76.87,197.97c-13.58-5.48-25.58-17.2-36.3-34.28
		c19.57-4.82,36.36-4.95,49.94,0.57c15.57,6.3,27.82,17.46,36.9,34.53C109.04,204.74,92.47,204.24,76.87,197.97z"/>
	<path class="st4" d="M199,373.88l0.22,0.09l-0.16,0.06L199,373.88z M197.71,424.8c-5.61,13.52-17.46,25.4-34.66,35.98
		c-4.63-19.63-4.6-36.42,1.04-49.94c6.49-15.5,17.74-27.66,34.88-36.58C204.8,392.69,204.1,409.26,197.71,424.8z"/>
	<path class="st4" d="M302.98,424.96c5.67,13.52,17.55,25.33,34.82,35.83c4.54-19.66,4.41-36.42-1.29-49.94
		c-6.55-15.47-17.87-27.57-35.04-36.42c-1.76,5.64-2.9,11.09-3.47,16.42C296.74,402.9,298.47,414.18,302.98,424.96z"/>
	<path class="st6" d="M374.85,302.2l0.09-0.22l0.06,0.13L374.85,302.2z M425.77,303.18c13.58,5.51,25.52,17.3,36.2,34.41
		c-19.6,4.76-36.39,4.82-49.94-0.72c-15.57-6.36-27.79-17.55-36.8-34.66C393.63,296.31,410.2,296.84,425.77,303.18z"/>
	<path class="st4" d="M90.33,335.72c-13.58,5.86-30.5,6.02-50.32,1.54l-0.09-0.25c10.43-17.39,22.28-29.52,35.86-35.32
		c15.6-6.62,32.3-7.47,50.92-1.76l0.09,0.22C118.02,317.54,105.89,329.04,90.33,335.72z"/>
	<path class="st4" d="M155.64,343.29l0.16,0.16h-0.16V343.29z M134.97,389.82c-10.37,10.37-25.84,16.83-45.78,20.01
		c3.21-19.91,9.67-35.42,20.07-45.75c11.91-11.85,26.94-18.81,46.22-20.48C153.78,362.88,146.85,377.91,134.97,389.82z"/>
	<g>
		<line class="st7" x1="250.14" y1="0" x2="250.14" y2="499.73"/>
		<line class="st7" x1="0.27" y1="249.86" x2="500" y2="249.86"/>
		<line class="st7" x1="73.44" y1="426.56" x2="426.81" y2="73.19"/>
		<line class="st7" x1="426.81" y1="426.56" x2="73.44" y2="73.19"/>
		<g>
			<line class="st7" x1="154.51" y1="19.03" x2="345.73" y2="480.73"/>
			<line class="st7" x1="19.27" y1="345.49" x2="480.97" y2="154.27"/>
			<line class="st7" x1="154.51" y1="480.73" x2="345.73" y2="19.03"/>
			<line class="st7" x1="480.97" y1="345.49" x2="19.27" y2="154.27"/>
		</g>
	</g>
</g>
</svg>
