<svg width="400" height="400" viewBox="0 0 400 400" fill="none" xmlns="http://www.w3.org/2000/svg">
<path d="M358.562 231.938L390 200.5L358.562 169.062L375.579 127.978L334.495 110.971V66.5046H290.029L273.022 25.421L231.938 42.438L200.5 11L169.062 42.438L127.978 25.421L110.971 66.5046H66.5046V110.971L25.421 127.978L42.438 169.062L11 200.5L42.438 231.938L25.421 273.022L66.5046 290.029V334.495H110.971L127.978 375.579L169.062 358.562L200.5 390L231.938 358.562L273.022 375.579L290.029 334.495H334.495V290.029L375.579 273.022L358.562 231.938Z" stroke="#020203" stroke-width="3" stroke-miterlimit="10"/>
<path d="M200.5 322C267.603 322 322 267.603 322 200.5C322 133.397 267.603 79 200.5 79C133.397 79 79 133.397 79 200.5C79 267.603 133.397 322 200.5 322Z" stroke="#020203" stroke-width="3" stroke-miterlimit="10"/>
<path d="M200.5 286C247.72 286 286 247.72 286 200.5C286 153.28 247.72 115 200.5 115C153.28 115 115 153.28 115 200.5C115 247.72 153.28 286 200.5 286Z" stroke="#020203" stroke-width="3" stroke-miterlimit="10"/>
<path d="M200.5 231C217.345 231 231 217.345 231 200.5C231 183.655 217.345 170 200.5 170C183.655 170 170 183.655 170 200.5C170 217.345 183.655 231 200.5 231Z" stroke="#020203" stroke-width="3" stroke-miterlimit="10"/>
</svg>
