<svg width="400" height="400" viewBox="0 0 400 400" fill="none" xmlns="http://www.w3.org/2000/svg">
<path d="M355.313 230.691L387 199.005L355.313 167.309L372.461 125.911L331.063 108.763V63.9466H286.247L269.099 22.5389L227.691 39.6865L196.005 8L164.309 39.6865L122.911 22.5389L105.763 63.9466H60.9466V108.763L19.5389 125.911L36.6865 167.309L5 199.005L36.6865 230.691L19.5389 272.099L60.9466 289.247V334.063H105.763L122.911 375.461L164.309 358.313L196.005 390L227.691 358.313L269.099 375.461L286.247 334.063H331.063V289.247L372.461 272.099L355.313 230.691Z" stroke="#020203" stroke-width="3" stroke-miterlimit="10"/>
<path d="M278 280C232.951 280 196.5 243.549 196.5 198.5C196.5 153.451 160.049 117 115 117" stroke="#020203" stroke-width="3" stroke-miterlimit="10"/>
<path d="M278 117C278 162.049 241.549 198.5 196.5 198.5C151.451 198.5 115 234.951 115 280" stroke="#020203" stroke-width="3" stroke-miterlimit="10"/>
<path d="M291 265.733C246.364 273.63 203.871 243.782 196 199C188.129 154.218 145.636 124.37 101 132.267" stroke="#020203" stroke-width="3" stroke-miterlimit="10"/>
<path d="M262.733 104C270.63 148.636 240.782 191.129 196 199C151.218 206.871 121.37 249.364 129.267 294" stroke="#020203" stroke-width="3" stroke-miterlimit="10"/>
<path d="M301 248.022C258.448 263.53 211.488 241.597 196 199C180.512 156.403 133.552 134.47 91 149.978" stroke="#020203" stroke-width="3" stroke-miterlimit="10"/>
<path d="M245.022 94C260.53 136.552 238.597 183.512 196 199C153.403 214.488 131.47 261.448 146.978 304" stroke="#020203" stroke-width="3" stroke-miterlimit="10"/>
<path d="M308 228.995C268.755 251.639 218.657 238.222 196 199C173.343 159.778 123.245 146.361 84 169.005" stroke="#020203" stroke-width="3" stroke-miterlimit="10"/>
<path d="M225.995 87C248.639 126.245 235.222 176.343 196 199C156.778 221.657 143.361 271.755 166.005 311" stroke="#020203" stroke-width="3" stroke-miterlimit="10"/>
<path d="M312 209.002C277.285 237.82 225.632 233.352 196.5 199C167.368 164.648 115.715 160.18 81 188.998" stroke="#020203" stroke-width="3" stroke-miterlimit="10"/>
<path d="M206.002 83C234.82 117.715 230.352 169.368 196 198.5C161.648 227.632 157.18 279.285 185.998 314" stroke="#020203" stroke-width="3" stroke-miterlimit="10"/>
<path d="M312 188.997C282.877 223.353 231.215 227.821 196.5 199C161.785 170.179 110.132 174.647 81 209.003" stroke="#020203" stroke-width="3" stroke-miterlimit="10"/>
<path d="M185.997 83C220.353 112.123 224.821 163.785 196 198.5C167.179 233.215 171.647 284.868 206.003 314" stroke="#020203" stroke-width="3" stroke-miterlimit="10"/>
<path d="M308 169C285.343 208.229 235.245 221.648 196 199C156.755 176.352 106.657 189.771 84 229" stroke="#020203" stroke-width="3" stroke-miterlimit="10"/>
<path d="M166 87C205.229 109.657 218.648 159.755 196 199C173.352 238.245 186.771 288.343 226 311" stroke="#020203" stroke-width="3" stroke-miterlimit="10"/>
<path d="M301 150C285.512 192.588 238.552 214.501 196 199C153.448 183.499 106.488 205.422 91 248" stroke="#020203" stroke-width="3" stroke-miterlimit="10"/>
<path d="M147 94C189.588 109.488 211.501 156.448 196 199C180.499 241.552 202.422 288.512 245 304" stroke="#020203" stroke-width="3" stroke-miterlimit="10"/>
<path d="M291 132C283.129 176.961 240.636 206.929 196 199C151.364 191.071 108.871 221.039 101 266" stroke="#020203" stroke-width="3" stroke-miterlimit="10"/>
<path d="M129 104C173.955 111.871 203.918 154.364 196 199C188.082 243.636 218.036 286.129 263 294" stroke="#020203" stroke-width="3" stroke-miterlimit="10"/>
</svg>
