<svg width="400" height="400" viewBox="0 0 400 400" fill="none" xmlns="http://www.w3.org/2000/svg">
<g clip-path="url(#clip0_26_743)">
<path d="M198.85 48.76C114.69 48.76 46.46 116.99 46.46 201.15C46.46 285.31 114.69 353.54 198.85 353.54C283.01 353.54 351.24 285.31 351.24 201.15C351.24 116.99 283.01 48.76 198.85 48.76ZM198.85 344.14C119.88 344.14 55.86 280.12 55.86 201.15C55.86 122.18 119.88 58.16 198.85 58.16C277.82 58.16 341.84 122.18 341.84 201.15C341.84 280.12 277.82 344.14 198.85 344.14Z" fill="black"/>
<path d="M198.85 107.49C147.12 107.49 105.19 149.42 105.19 201.15C105.19 252.88 147.12 294.81 198.85 294.81C250.58 294.81 292.51 252.88 292.51 201.15C292.51 149.42 250.58 107.49 198.85 107.49ZM198.85 276.7C157.13 276.7 123.3 242.88 123.3 201.15C123.3 159.42 157.12 125.6 198.85 125.6C240.58 125.6 274.4 159.42 274.4 201.15C274.4 242.87 240.58 276.7 198.85 276.7Z" fill="black"/>
<path d="M198.85 244.72C222.913 244.72 242.42 225.213 242.42 201.15C242.42 177.087 222.913 157.58 198.85 157.58C174.787 157.58 155.28 177.087 155.28 201.15C155.28 225.213 174.787 244.72 198.85 244.72Z" fill="black"/>
<path d="M203.07 51.47H194.63C194.34 51.47 194.11 51.24 194.11 50.95V2.81999C194.11 2.52999 194.34 2.29999 194.63 2.29999H203.07C203.36 2.29999 203.59 2.52999 203.59 2.81999V50.96C203.59 51.24 203.36 51.47 203.07 51.47Z" fill="black"/>
<path d="M177.02 53.01L168.71 54.48C168.43 54.53 168.16 54.34 168.11 54.06L159.75 6.64998C159.7 6.36998 159.89 6.09998 160.17 6.04998L168.48 4.57998C168.76 4.52998 169.03 4.71998 169.08 4.99998L177.44 52.41C177.49 52.7 177.3 52.96 177.02 53.01Z" fill="black"/>
<path d="M151.63 59.06L143.7 61.95C143.43 62.05 143.13 61.91 143.03 61.64L126.56 16.4C126.46 16.13 126.6 15.83 126.87 15.73L134.8 12.84C135.07 12.74 135.37 12.88 135.47 13.15L151.93 58.38C152.03 58.66 151.9 58.96 151.63 59.06Z" fill="black"/>
<path d="M127.67 69.42L120.36 73.64C120.11 73.78 119.79 73.7 119.65 73.45L95.5802 31.76C95.4402 31.51 95.5202 31.19 95.7702 31.05L103.08 26.83C103.33 26.69 103.65 26.77 103.79 27.02L127.86 68.71C128 68.95 127.92 69.27 127.67 69.42Z" fill="black"/>
<path d="M105.88 83.78L99.4099 89.21C99.1899 89.39 98.8599 89.37 98.6799 89.15L67.7299 52.27C67.5499 52.05 67.5699 51.72 67.7899 51.54L74.2599 46.11C74.4799 45.93 74.8099 45.95 74.9899 46.17L105.93 83.05C106.12 83.27 106.1 83.59 105.88 83.78Z" fill="black"/>
<path d="M86.9102 101.71L81.4802 108.18C81.3002 108.4 80.9702 108.43 80.7502 108.24L43.8702 77.3C43.6502 77.12 43.6202 76.79 43.8102 76.57L49.2402 70.1C49.4202 69.88 49.7502 69.85 49.9702 70.04L86.8502 100.98C87.0602 101.16 87.0902 101.49 86.9102 101.71Z" fill="black"/>
<path d="M71.3399 122.66L67.12 129.97C66.98 130.22 66.66 130.3 66.41 130.16L24.7199 106.09C24.4699 105.95 24.3899 105.63 24.5299 105.38L28.7499 98.07C28.8899 97.82 29.2099 97.74 29.4599 97.88L71.15 121.95C71.4 122.09 71.4799 122.41 71.3399 122.66Z" fill="black"/>
<path d="M59.6499 145.99L56.7599 153.92C56.6599 154.19 56.3599 154.33 56.0899 154.23L10.8599 137.77C10.5899 137.67 10.4499 137.37 10.5499 137.1L13.4399 129.17C13.5399 128.9 13.8399 128.76 14.1099 128.86L59.3399 145.32C59.6099 145.42 59.7399 145.72 59.6499 145.99Z" fill="black"/>
<path d="M52.18 171L50.71 179.31C50.66 179.59 50.39 179.78 50.11 179.73L2.69996 171.37C2.41996 171.32 2.22996 171.05 2.27996 170.77L3.74996 162.46C3.79996 162.18 4.06996 161.99 4.34996 162.04L51.76 170.4C52.04 170.45 52.23 170.72 52.18 171Z" fill="black"/>
<path d="M49.18 196.93V205.37C49.18 205.66 48.95 205.89 48.66 205.89H0.52C0.23 205.89 0 205.66 0 205.37V196.93C0 196.64 0.23 196.41 0.52 196.41H48.66C48.94 196.41 49.18 196.64 49.18 196.93Z" fill="black"/>
<path d="M50.7202 222.98L52.1902 231.29C52.2402 231.57 52.0502 231.84 51.7702 231.89L4.36022 240.25C4.08022 240.3 3.81022 240.11 3.76022 239.83L2.29022 231.52C2.24022 231.24 2.43022 230.97 2.71022 230.92L50.1202 222.56C50.4002 222.51 50.6702 222.7 50.7202 222.98Z" fill="black"/>
<path d="M56.7601 248.37L59.6501 256.3C59.7501 256.57 59.6101 256.87 59.3401 256.97L14.1001 273.44C13.8301 273.54 13.5301 273.4 13.4301 273.13L10.5401 265.2C10.4401 264.93 10.5801 264.63 10.8501 264.53L56.0801 248.07C56.3601 247.97 56.6601 248.1 56.7601 248.37Z" fill="black"/>
<path d="M67.12 272.33L71.3399 279.64C71.4799 279.89 71.4 280.21 71.15 280.35L29.4599 304.42C29.2099 304.56 28.8899 304.48 28.7499 304.23L24.5299 296.92C24.3899 296.67 24.4699 296.35 24.7199 296.21L66.41 272.14C66.66 272 66.97 272.08 67.12 272.33Z" fill="black"/>
<path d="M81.48 294.12L86.91 300.59C87.09 300.81 87.07 301.14 86.85 301.32L49.97 332.26C49.75 332.44 49.42 332.42 49.24 332.2L43.81 325.73C43.63 325.51 43.65 325.18 43.87 325L80.75 294.06C80.97 293.88 81.3 293.9 81.48 294.12Z" fill="black"/>
<path d="M99.4099 313.09L105.88 318.52C106.1 318.7 106.13 319.03 105.94 319.25L74.9999 356.13C74.8199 356.35 74.4899 356.38 74.2699 356.19L67.7999 350.76C67.5799 350.58 67.5499 350.25 67.7399 350.03L98.6799 313.15C98.8599 312.94 99.1899 312.91 99.4099 313.09Z" fill="black"/>
<path d="M120.36 328.66L127.67 332.88C127.92 333.02 128 333.34 127.86 333.59L103.79 375.28C103.65 375.53 103.33 375.61 103.08 375.47L95.7702 371.25C95.5202 371.11 95.4402 370.79 95.5802 370.54L119.65 328.85C119.79 328.6 120.11 328.52 120.36 328.66Z" fill="black"/>
<path d="M143.69 340.35L151.62 343.24C151.89 343.34 152.03 343.64 151.93 343.91L135.47 389.14C135.37 389.41 135.07 389.55 134.8 389.45L126.87 386.56C126.6 386.46 126.46 386.16 126.56 385.89L143.02 340.66C143.12 340.39 143.42 340.26 143.69 340.35Z" fill="black"/>
<path d="M168.7 347.82L177.01 349.29C177.29 349.34 177.48 349.61 177.43 349.89L169.07 397.3C169.02 397.58 168.75 397.77 168.47 397.72L160.16 396.25C159.88 396.2 159.69 395.93 159.74 395.65L168.1 348.24C168.15 347.96 168.42 347.77 168.7 347.82Z" fill="black"/>
<path d="M194.63 350.82H203.07C203.36 350.82 203.59 351.05 203.59 351.34V399.48C203.59 399.77 203.36 400 203.07 400H194.63C194.34 400 194.11 399.77 194.11 399.48V351.34C194.11 351.06 194.34 350.82 194.63 350.82Z" fill="black"/>
<path d="M220.68 349.28L228.99 347.81C229.27 347.76 229.54 347.95 229.59 348.23L237.95 395.64C238 395.92 237.81 396.19 237.53 396.24L229.22 397.71C228.94 397.76 228.67 397.57 228.62 397.29L220.26 349.88C220.21 349.6 220.4 349.33 220.68 349.28Z" fill="black"/>
<path d="M246.08 343.24L254.01 340.35C254.28 340.25 254.58 340.39 254.68 340.66L271.14 385.89C271.24 386.16 271.1 386.46 270.83 386.56L262.9 389.45C262.63 389.55 262.33 389.41 262.23 389.14L245.77 343.91C245.67 343.64 245.81 343.34 246.08 343.24Z" fill="black"/>
<path d="M270.03 332.88L277.34 328.66C277.59 328.52 277.91 328.6 278.05 328.85L302.12 370.54C302.26 370.79 302.18 371.11 301.93 371.25L294.62 375.47C294.37 375.61 294.05 375.53 293.91 375.28L269.84 333.59C269.7 333.34 269.78 333.03 270.03 332.88Z" fill="black"/>
<path d="M291.83 318.52L298.3 313.09C298.52 312.91 298.85 312.93 299.03 313.15L329.97 350.03C330.15 350.25 330.13 350.58 329.91 350.76L323.44 356.19C323.22 356.37 322.89 356.35 322.71 356.13L291.77 319.25C291.58 319.03 291.61 318.7 291.83 318.52Z" fill="black"/>
<path d="M310.8 300.59L316.23 294.12C316.41 293.9 316.74 293.87 316.96 294.06L353.83 325C354.05 325.18 354.08 325.51 353.89 325.73L348.46 332.2C348.28 332.42 347.95 332.45 347.73 332.26L310.85 301.32C310.64 301.14 310.61 300.81 310.8 300.59Z" fill="black"/>
<path d="M326.36 279.64L330.58 272.33C330.72 272.08 331.04 272 331.29 272.14L372.98 296.21C373.23 296.35 373.31 296.67 373.17 296.92L368.95 304.23C368.81 304.48 368.49 304.56 368.24 304.42L326.55 280.35C326.3 280.21 326.22 279.89 326.36 279.64Z" fill="black"/>
<path d="M338.06 256.31L340.95 248.38C341.05 248.11 341.35 247.97 341.62 248.07L386.85 264.53C387.12 264.63 387.26 264.93 387.16 265.2L384.27 273.13C384.17 273.4 383.87 273.54 383.6 273.44L338.37 256.98C338.1 256.88 337.96 256.58 338.06 256.31Z" fill="black"/>
<path d="M345.52 231.3L346.99 222.99C347.04 222.71 347.31 222.52 347.59 222.57L395 230.93C395.28 230.98 395.47 231.25 395.42 231.53L393.95 239.84C393.9 240.12 393.63 240.31 393.35 240.26L345.94 231.9C345.66 231.85 345.47 231.58 345.52 231.3Z" fill="black"/>
<path d="M348.53 205.37V196.93C348.53 196.64 348.76 196.41 349.05 196.41H397.19C397.48 196.41 397.71 196.64 397.71 196.93V205.37C397.71 205.66 397.48 205.89 397.19 205.89H349.05C348.76 205.89 348.53 205.66 348.53 205.37Z" fill="black"/>
<path d="M346.99 179.32L345.52 171.01C345.47 170.73 345.66 170.46 345.94 170.41L393.35 162.05C393.63 162 393.9 162.19 393.95 162.47L395.42 170.78C395.47 171.06 395.28 171.33 395 171.38L347.59 179.74C347.3 179.79 347.04 179.6 346.99 179.32Z" fill="black"/>
<path d="M340.94 153.92L338.05 145.99C337.95 145.72 338.09 145.42 338.36 145.32L383.59 128.86C383.86 128.76 384.16 128.9 384.26 129.17L387.15 137.1C387.25 137.37 387.11 137.67 386.84 137.77L341.61 154.23C341.34 154.33 341.04 154.19 340.94 153.92Z" fill="black"/>
<path d="M330.58 129.97L326.36 122.66C326.22 122.41 326.3 122.09 326.55 121.95L368.24 97.88C368.49 97.74 368.81 97.82 368.95 98.07L373.17 105.38C373.31 105.63 373.23 105.95 372.98 106.09L331.29 130.16C331.05 130.3 330.73 130.22 330.58 129.97Z" fill="black"/>
<path d="M316.22 108.17L310.79 101.7C310.61 101.48 310.63 101.15 310.85 100.97L347.73 70.03C347.95 69.85 348.28 69.87 348.46 70.09L353.89 76.56C354.07 76.78 354.05 77.11 353.83 77.29L316.95 108.23C316.73 108.42 316.41 108.39 316.22 108.17Z" fill="black"/>
<path d="M298.29 89.2L291.82 83.77C291.6 83.59 291.57 83.26 291.76 83.04L322.7 46.16C322.88 45.94 323.21 45.91 323.43 46.1L329.9 51.53C330.12 51.71 330.15 52.04 329.96 52.26L299.02 89.14C298.84 89.36 298.51 89.39 298.29 89.2Z" fill="black"/>
<path d="M277.34 73.64L270.03 69.42C269.78 69.28 269.7 68.96 269.84 68.71L293.91 27.02C294.05 26.77 294.37 26.69 294.62 26.83L301.93 31.05C302.18 31.19 302.26 31.51 302.12 31.76L278.05 73.45C277.91 73.7 277.59 73.78 277.34 73.64Z" fill="black"/>
<path d="M254.01 61.94L246.08 59.05C245.81 58.95 245.67 58.65 245.77 58.38L262.23 13.15C262.33 12.88 262.63 12.74 262.9 12.84L270.83 15.73C271.1 15.83 271.24 16.13 271.14 16.4L254.68 61.63C254.58 61.9 254.28 62.04 254.01 61.94Z" fill="black"/>
<path d="M229 54.48L220.69 53.01C220.41 52.96 220.22 52.69 220.27 52.41L228.63 4.99998C228.68 4.71998 228.95 4.52998 229.23 4.57998L237.54 6.04998C237.82 6.09998 238.01 6.36998 237.96 6.64998L229.6 54.06C229.55 54.34 229.28 54.53 229 54.48Z" fill="black"/>
</g>
<defs>
<clipPath id="clip0_26_743">
<rect width="400" height="400" fill="white"/>
</clipPath>
</defs>
</svg>
