<?xml version="1.0" encoding="utf-8"?>
<!-- Generator: Adobe Illustrator 27.3.1, SVG Export Plug-In . SVG Version: 6.00 Build 0)  -->
<svg version="1.1" id="Layer_1" xmlns="http://www.w3.org/2000/svg" xmlns:xlink="http://www.w3.org/1999/xlink" x="0px" y="0px"
	 viewBox="0 0 500 500" style="enable-background:new 0 0 500 500;" xml:space="preserve">
<style type="text/css">
	.st0{fill-rule:evenodd;clip-rule:evenodd;fill:#666666;stroke:#000000;stroke-width:0.5;stroke-miterlimit:10;}
	
		.st1{fill-rule:evenodd;clip-rule:evenodd;fill:none;stroke:#171717;stroke-width:0.5;stroke-linecap:round;stroke-linejoin:round;stroke-miterlimit:10;}
	.st2{fill-rule:evenodd;clip-rule:evenodd;fill:#FFFFFF;stroke:#000000;stroke-width:0.5;stroke-miterlimit:10;}
	.st3{fill-rule:evenodd;clip-rule:evenodd;fill:#FFFFFF;stroke:#000000;stroke-width:0.8;stroke-miterlimit:10;}
	
		.st4{fill-rule:evenodd;clip-rule:evenodd;fill:none;stroke:#000000;stroke-width:0.45;stroke-linecap:round;stroke-linejoin:round;stroke-miterlimit:10;}
</style>
<path class="st0" d="M54.34,97.04c84.31-108.15,240.5-127.49,348.62-43.19c108.15,84.27,127.49,240.47,43.22,348.62
	c-84.31,108.12-240.5,127.46-348.62,43.19C-10.6,361.35-29.93,205.16,54.34,97.04z"/>
<line class="st1" x1="147.97" y1="351.89" x2="147.94" y2="351.72"/>
<path class="st2" d="M250.35,497.38L202,427.22l96.59-0.24L250.35,497.38z M374.54,464.52l-75.57-36.17l83.55-51.27l-0.03,0.24
	l46.97-79.25l35.58,75.64l-82.93,7.95L374.54,464.52z M126.74,463.93l-7.57-82.86l-82.93-7.91l35.58-75.64l46.94,79.21v-0.24
	l83.52,51.31L126.74,463.93z M430.56,298.04l-0.24-96.59l67.65,48.28L430.56,298.04z M70.72,297.49L3.31,249.14l67.65-48.28
	L70.72,297.49z M69.48,201.07l-34.2-75.57l82.72-7.98l8.16-82.55l75.64,34.48L118,117.51L69.48,201.07z M430.9,201.07l-48.52-83.55
	l-83.79-48.07L202,69.68l48.28-67.65l48.31,67.41l75.64-34.48l8.16,82.55l82.72,7.98L430.9,201.07z"/>
<path class="st3" d="M142.67,97.28c83.28-59.39,199.07-39.99,258.46,43.29s39.99,199.07-43.29,258.46s-199.07,39.99-258.46-43.29
	S59.4,156.67,142.67,97.28z"/>
<line class="st4" x1="250.28" y1="0" x2="250.28" y2="499.48"/>
<line class="st4" x1="0.52" y1="249.76" x2="500" y2="249.76"/>
<line class="st4" x1="33.97" y1="124.88" x2="466.55" y2="374.6"/>
<line class="st4" x1="125.4" y1="33.45" x2="375.12" y2="466.03"/>
<line class="st4" x1="466.55" y1="124.88" x2="33.97" y2="374.6"/>
<line class="st4" x1="375.12" y1="33.45" x2="125.4" y2="466.03"/>
</svg>
