<svg width="400" height="400" viewBox="0 0 400 400" fill="none" xmlns="http://www.w3.org/2000/svg">
<path d="M199 393C304.486 393 390 307.486 390 202C390 96.5136 304.486 11 199 11C93.5136 11 8 96.5136 8 202C8 307.486 93.5136 393 199 393Z" stroke="#020203" stroke-width="3" stroke-miterlimit="10"/>
<path d="M199.5 352C282.619 352 350 284.619 350 201.5C350 118.381 282.619 51 199.5 51C116.381 51 49 118.381 49 201.5C49 284.619 116.381 352 199.5 352Z" stroke="#020203" stroke-width="3" stroke-miterlimit="10"/>
<path d="M199 52V11" stroke="#020203" stroke-width="3" stroke-miterlimit="10"/>
<path d="M199 393V352" stroke="#020203" stroke-width="3" stroke-miterlimit="10"/>
<path d="M186 52L182 11" stroke="#020203" stroke-width="3" stroke-miterlimit="10"/>
<path d="M216 392L213 352" stroke="#020203" stroke-width="3" stroke-miterlimit="10"/>
<path d="M174 54L166 14" stroke="#020203" stroke-width="3" stroke-miterlimit="10"/>
<path d="M232 390L225 350" stroke="#020203" stroke-width="3" stroke-miterlimit="10"/>
<path d="M160 57L150 17" stroke="#020203" stroke-width="3" stroke-miterlimit="10"/>
<path d="M249 386L238 347" stroke="#020203" stroke-width="3" stroke-miterlimit="10"/>
<path d="M148 61L133 22" stroke="#020203" stroke-width="3" stroke-miterlimit="10"/>
<path d="M265 381L251 343" stroke="#020203" stroke-width="3" stroke-miterlimit="10"/>
<path d="M135 66L119 29" stroke="#020203" stroke-width="3" stroke-miterlimit="10"/>
<path d="M280 375L263 338" stroke="#020203" stroke-width="3" stroke-miterlimit="10"/>
<path d="M124 72L104 36" stroke="#020203" stroke-width="3" stroke-miterlimit="10"/>
<path d="M295 368L274 332" stroke="#020203" stroke-width="3" stroke-miterlimit="10"/>
<path d="M113 79L89 45" stroke="#020203" stroke-width="3" stroke-miterlimit="10"/>
<path d="M309 359L285 324" stroke="#020203" stroke-width="3" stroke-miterlimit="10"/>
<path d="M103 86L77 55" stroke="#020203" stroke-width="3" stroke-miterlimit="10"/>
<path d="M322 348L296 317" stroke="#020203" stroke-width="3" stroke-miterlimit="10"/>
<path d="M93 95L64 67" stroke="#020203" stroke-width="3" stroke-miterlimit="10"/>
<path d="M334 337L306 308" stroke="#020203" stroke-width="3" stroke-miterlimit="10"/>
<path d="M84 105L53 79" stroke="#020203" stroke-width="3" stroke-miterlimit="10"/>
<path d="M346 324L315 298" stroke="#020203" stroke-width="3" stroke-miterlimit="10"/>
<path d="M77 116L42 92" stroke="#020203" stroke-width="3" stroke-miterlimit="10"/>
<path d="M356 312L322 288" stroke="#020203" stroke-width="3" stroke-miterlimit="10"/>
<path d="M69 127L33 106" stroke="#020203" stroke-width="3" stroke-miterlimit="10"/>
<path d="M365 297L329 277" stroke="#020203" stroke-width="3" stroke-miterlimit="10"/>
<path d="M63 138L26 121" stroke="#020203" stroke-width="3" stroke-miterlimit="10"/>
<path d="M372 282L335 266" stroke="#020203" stroke-width="3" stroke-miterlimit="10"/>
<path d="M58 150L20 136" stroke="#020203" stroke-width="3" stroke-miterlimit="10"/>
<path d="M379 268L340 253" stroke="#020203" stroke-width="3" stroke-miterlimit="10"/>
<path d="M54 163L15 152" stroke="#020203" stroke-width="3" stroke-miterlimit="10"/>
<path d="M384 251L344 241" stroke="#020203" stroke-width="3" stroke-miterlimit="10"/>
<path d="M51 176L11 169" stroke="#020203" stroke-width="3" stroke-miterlimit="10"/>
<path d="M387 235L347 227" stroke="#020203" stroke-width="3" stroke-miterlimit="10"/>
<path d="M49 188L9 185" stroke="#020203" stroke-width="3" stroke-miterlimit="10"/>
<path d="M390 219L349 215" stroke="#020203" stroke-width="3" stroke-miterlimit="10"/>
<path d="M49 202H8" stroke="#020203" stroke-width="3" stroke-miterlimit="10"/>
<path d="M390 202H349" stroke="#020203" stroke-width="3" stroke-miterlimit="10"/>
<path d="M49 215L9 219" stroke="#020203" stroke-width="3" stroke-miterlimit="10"/>
<path d="M390 185L349 188" stroke="#020203" stroke-width="3" stroke-miterlimit="10"/>
<path d="M51 227L11 235" stroke="#020203" stroke-width="3" stroke-miterlimit="10"/>
<path d="M387 169L347 176" stroke="#020203" stroke-width="3" stroke-miterlimit="10"/>
<path d="M54 241L15 251" stroke="#020203" stroke-width="3" stroke-miterlimit="10"/>
<path d="M384 152L344 163" stroke="#020203" stroke-width="3" stroke-miterlimit="10"/>
<path d="M58 253L20 268" stroke="#020203" stroke-width="3" stroke-miterlimit="10"/>
<path d="M379 136L340 150" stroke="#020203" stroke-width="3" stroke-miterlimit="10"/>
<path d="M63 266L26 282" stroke="#020203" stroke-width="3" stroke-miterlimit="10"/>
<path d="M372 121L335 138" stroke="#020203" stroke-width="3" stroke-miterlimit="10"/>
<path d="M69 277L33 297" stroke="#020203" stroke-width="3" stroke-miterlimit="10"/>
<path d="M365 106L329 127" stroke="#020203" stroke-width="3" stroke-miterlimit="10"/>
<path d="M77 288L42 312" stroke="#020203" stroke-width="3" stroke-miterlimit="10"/>
<path d="M356 92L322 116" stroke="#020203" stroke-width="3" stroke-miterlimit="10"/>
<path d="M84 298L53 324" stroke="#020203" stroke-width="3" stroke-miterlimit="10"/>
<path d="M346 79L315 105" stroke="#020203" stroke-width="3" stroke-miterlimit="10"/>
<path d="M93 308L64 337" stroke="#020203" stroke-width="3" stroke-miterlimit="10"/>
<path d="M334 67L306 95" stroke="#020203" stroke-width="3" stroke-miterlimit="10"/>
<path d="M103 317L77 348" stroke="#020203" stroke-width="3" stroke-miterlimit="10"/>
<path d="M322 55L296 86" stroke="#020203" stroke-width="3" stroke-miterlimit="10"/>
<path d="M113 324L89 359" stroke="#020203" stroke-width="3" stroke-miterlimit="10"/>
<path d="M309 45L285 79" stroke="#020203" stroke-width="3" stroke-miterlimit="10"/>
<path d="M124 332L104 368" stroke="#020203" stroke-width="3" stroke-miterlimit="10"/>
<path d="M295 36L274 72" stroke="#020203" stroke-width="3" stroke-miterlimit="10"/>
<path d="M135 338L119 375" stroke="#020203" stroke-width="3" stroke-miterlimit="10"/>
<path d="M280 29L263 66" stroke="#020203" stroke-width="3" stroke-miterlimit="10"/>
<path d="M148 343L133 381" stroke="#020203" stroke-width="3" stroke-miterlimit="10"/>
<path d="M265 22L251 61" stroke="#020203" stroke-width="3" stroke-miterlimit="10"/>
<path d="M160 347L150 386" stroke="#020203" stroke-width="3" stroke-miterlimit="10"/>
<path d="M249 17L238 57" stroke="#020203" stroke-width="3" stroke-miterlimit="10"/>
<path d="M174 350L166 390" stroke="#020203" stroke-width="3" stroke-miterlimit="10"/>
<path d="M232 14L225 54" stroke="#020203" stroke-width="3" stroke-miterlimit="10"/>
<path d="M186 352L182 392" stroke="#020203" stroke-width="3" stroke-miterlimit="10"/>
<path d="M216 11L213 52" stroke="#020203" stroke-width="3" stroke-miterlimit="10"/>
<path d="M199 253C227.167 253 250 230.167 250 202C250 173.833 227.167 151 199 151C170.833 151 148 173.833 148 202C148 230.167 170.833 253 199 253Z" stroke="#020203" stroke-width="3" stroke-miterlimit="10"/>
<path d="M199 219C208.389 219 216 211.389 216 202C216 192.611 208.389 185 199 185C189.611 185 182 192.611 182 202C182 211.389 189.611 219 199 219Z" fill="#020203"/>
</svg>
