<svg width="400" height="400" viewBox="0 0 400 400" fill="none" xmlns="http://www.w3.org/2000/svg">
<g clip-path="url(#clip0_52_724)">
<path d="M199.47 205.58C201.707 205.58 203.52 203.767 203.52 201.53C203.52 199.293 201.707 197.48 199.47 197.48C197.233 197.48 195.42 199.293 195.42 201.53C195.42 203.767 197.233 205.58 199.47 205.58Z" fill="#C6C6C6"/>
<path fill-rule="evenodd" clip-rule="evenodd" d="M397.94 201.53C397.94 311.142 309.082 400 199.47 400C89.858 400 1 311.142 1 201.53C1 91.9181 89.858 3.06006 199.47 3.06006C309.082 3.06006 397.94 91.9181 397.94 201.53ZM221.87 201.53C221.87 213.901 211.841 223.93 199.47 223.93C187.099 223.93 177.07 213.901 177.07 201.53C177.07 189.159 187.099 179.13 199.47 179.13C211.841 179.13 221.87 189.159 221.87 201.53ZM162.73 153.9C167.43 156.61 170.72 160.87 172.28 165.67C174.1 171.19 173.66 177.44 170.51 182.9L160 201.08C159.02 202.77 156.86 203.35 155.17 202.38C153.48 201.4 152.9 199.24 153.87 197.55L164 180C167.74 173.53 166.37 164.97 160.24 160.7C153.33 155.89 143.96 158.1 139.86 165.21L129.36 183.39C128.38 185.08 126.22 185.66 124.53 184.69C122.84 183.71 122.26 181.55 123.23 179.86L133.73 161.68C136.88 156.22 142.07 152.72 147.76 151.53C152.7 150.46 158.03 151.19 162.73 153.9ZM154.82 207.15C149.88 206.09 144.55 206.82 139.85 209.53C135.15 212.24 131.86 216.5 130.31 221.29C128.48 226.82 128.93 233.06 132.08 238.52L142.58 256.7C143.55 258.4 145.72 258.98 147.41 258C149.11 257.03 149.69 254.86 148.71 253.17L138.21 234.99C134.1 227.88 136.87 218.65 144.49 215.08C151.26 211.9 159.35 215 163.09 221.47L173.22 239.01C174.19 240.71 176.36 241.29 178.05 240.31C179.75 239.34 180.33 237.17 179.35 235.48L168.85 217.3C165.7 211.84 160.51 208.34 154.82 207.15ZM176.59 257.16C176.59 251.74 178.63 246.75 182.01 243.01C185.88 238.67 191.51 235.93 197.82 235.93H218.81C220.76 235.93 222.35 237.51 222.35 239.47C222.35 241.42 220.77 243.01 218.81 243.01H198.55C191.08 243.01 184.35 248.47 183.71 255.92C182.99 264.31 189.6 271.32 197.81 271.32H218.8C220.75 271.32 222.34 272.9 222.34 274.86C222.34 276.81 220.76 278.4 218.8 278.4H197.81C191.51 278.4 185.88 275.66 182 271.32C178.63 267.57 176.59 262.59 176.59 257.16ZM226.66 237.39C228.22 242.19 231.51 246.45 236.21 249.16C240.9 251.87 246.24 252.6 251.17 251.52C256.86 250.33 262.05 246.83 265.2 241.37L275.7 223.19C276.67 221.5 276.09 219.34 274.4 218.36C272.71 217.39 270.55 217.97 269.57 219.66L259.07 237.84C254.97 244.95 245.6 247.16 238.69 242.35C232.56 238.08 231.19 229.52 234.93 223.05L245.06 205.51C246.03 203.82 245.45 201.66 243.76 200.68C242.07 199.71 239.91 200.29 238.93 201.98L228.43 220.16C225.28 225.62 224.84 231.87 226.66 237.39ZM259.09 193.53C254.39 196.24 249.06 196.97 244.12 195.91C238.43 194.72 233.24 191.22 230.09 185.76L219.59 167.58C218.61 165.89 219.19 163.72 220.89 162.75C222.58 161.77 224.75 162.35 225.72 164.05L235.85 181.59C239.59 188.06 247.68 191.16 254.45 187.98C262.07 184.41 264.84 175.18 260.73 168.07L250.23 149.89C249.25 148.2 249.83 146.03 251.53 145.06C253.22 144.08 255.39 144.66 256.36 146.36L266.86 164.54C270.01 170 270.46 176.24 268.63 181.77C267.08 186.56 263.78 190.82 259.09 193.53ZM216.93 160.05C220.31 156.31 222.35 151.32 222.35 145.9C222.35 140.48 220.31 135.49 216.94 131.74C213.06 127.4 207.43 124.66 201.13 124.66H180.14C178.18 124.66 176.6 126.25 176.6 128.2C176.6 130.16 178.19 131.74 180.14 131.74H201.13C209.34 131.74 215.95 138.75 215.23 147.14C214.59 154.59 207.86 160.05 200.39 160.05H180.13C178.17 160.05 176.59 161.64 176.59 163.59C176.59 165.55 178.18 167.13 180.13 167.13H201.12C207.43 167.13 213.06 164.39 216.93 160.05ZM113.79 80.61C111.25 75.33 110.9 69.52 112.43 64.28C114.17 58.24 118.37 52.93 124.5 49.98L144.94 40.13C146.84 39.21 149.13 40.01 150.05 41.92C150.97 43.82 150.17 46.11 148.26 47.03L128.53 56.53C121.25 60.04 117.26 68.51 120.14 76.06C123.38 84.56 133.1 88.29 141.09 84.44L161.53 74.59C163.43 73.67 165.72 74.47 166.64 76.38C167.56 78.28 166.76 80.57 164.85 81.49L144.41 91.34C138.27 94.3 131.51 94.27 125.7 91.86C120.65 89.79 116.33 85.9 113.79 80.61ZM61.5002 115.64C62.3902 121.02 65.2302 126.1 69.8102 129.76C74.3902 133.42 79.9802 135.05 85.4202 134.7C91.6902 134.35 97.8002 131.44 102.05 126.11L116.2 108.37C117.51 106.72 117.24 104.32 115.59 103C113.94 101.69 111.54 101.96 110.22 103.61L96.0702 121.35C90.5402 128.29 80.1702 129.15 73.5602 122.89C67.7002 117.33 67.6102 107.97 72.6502 101.65L86.3002 84.53C87.6102 82.88 87.3402 80.48 85.6902 79.16C84.0402 77.85 81.6402 78.12 80.3202 79.77L66.1702 97.51C61.9202 102.84 60.4402 109.44 61.5002 115.64ZM51.5102 193.13C45.7902 191.83 41.0302 188.48 37.9002 184.01C34.2602 178.88 32.7302 172.29 34.2402 165.65L39.2902 143.53C39.7602 141.47 41.8102 140.18 43.8702 140.65C45.9302 141.12 47.2202 143.17 46.7502 145.23L41.8802 166.58C40.0802 174.46 44.2202 182.86 51.9202 185.32C60.5902 188.09 69.5602 182.81 71.5402 174.16L76.5902 152.04C77.0602 149.98 79.1102 148.69 81.1702 149.16C83.2302 149.63 84.5202 151.68 84.0502 153.74L79.0002 175.86C77.4802 182.5 73.2502 187.78 67.7402 190.81C62.9702 193.48 57.2202 194.43 51.5102 193.13ZM46.3002 255.85C51.0602 258.51 56.8002 259.46 62.5202 258.16C68.2302 256.85 72.9902 253.51 76.1202 249.06C79.7602 243.93 81.3002 237.34 79.7802 230.7L74.7302 208.58C74.2602 206.52 72.2102 205.23 70.1502 205.7C68.0902 206.17 66.8002 208.22 67.2702 210.28L72.3202 232.4C74.3002 241.05 68.5002 249.7 59.4902 250.96C51.4902 252.08 44.1202 246.31 42.3202 238.43L37.4502 217.08C36.9802 215.02 34.9302 213.73 32.8702 214.2C30.8102 214.67 29.5202 216.72 29.9902 218.78L35.0402 240.9C36.5602 247.54 40.8002 252.81 46.3002 255.85ZM100.65 311.97C96.0702 315.63 90.4802 317.26 85.0302 316.92C78.7502 316.57 72.6402 313.66 68.4002 308.33L54.2502 290.6C52.9302 288.95 53.2002 286.54 54.8602 285.23C56.5102 283.91 58.9202 284.18 60.2302 285.84L73.8802 302.96C78.9202 309.28 88.0702 311.28 94.7902 306.8C102.36 301.75 103.83 291.45 98.3002 284.51L84.1502 266.77C82.8302 265.12 83.1002 262.71 84.7602 261.4C86.4102 260.08 88.8202 260.35 90.1302 262.01L104.28 279.75C108.53 285.08 110.01 291.68 108.95 297.88C108.07 303.23 105.23 308.32 100.65 311.97ZM146.43 355.15C151.48 353.09 155.81 349.19 158.35 343.91C160.9 338.63 161.25 332.82 159.71 327.55C157.98 321.51 153.78 316.21 147.64 313.25L127.2 303.4C125.29 302.49 123.01 303.29 122.09 305.19C121.18 307.1 121.98 309.38 123.88 310.3L144.32 320.15C152.31 324 155.46 333.93 150.83 341.76C146.72 348.72 137.61 350.89 130.33 347.38L110.6 337.88C108.69 336.97 106.41 337.77 105.49 339.67C104.58 341.58 105.38 343.86 107.28 344.78L127.72 354.63C133.85 357.58 140.62 357.56 146.43 355.15ZM224.2 347.65C224.2 353.51 221.99 358.9 218.34 362.95C214.15 367.64 208.07 370.6 201.25 370.6H178.56C176.45 370.6 174.74 368.89 174.74 366.78C174.74 364.67 176.45 362.96 178.56 362.96H200.46C208.54 362.96 215.81 357.05 216.5 349C217.27 339.93 210.13 332.36 201.26 332.36H178.57C176.46 332.36 174.75 330.65 174.75 328.54C174.75 326.43 176.46 324.72 178.57 324.72H201.26C208.07 324.72 214.16 327.68 218.35 332.37C221.99 336.4 224.2 341.79 224.2 347.65ZM286.51 338.78C288.04 333.54 287.69 327.73 285.15 322.45C282.61 317.17 278.28 313.27 273.24 311.2C267.43 308.79 260.67 308.76 254.53 311.72L234.09 321.57C232.18 322.49 231.38 324.78 232.3 326.68C233.22 328.59 235.51 329.39 237.41 328.47L257.85 318.62C265.84 314.77 275.56 318.5 278.8 327C281.68 334.55 277.69 343.02 270.41 346.53L250.68 356.03C248.77 356.95 247.97 359.24 248.89 361.14C249.81 363.05 252.1 363.85 254 362.93L274.44 353.08C280.57 350.13 284.77 344.82 286.51 338.78ZM329.13 273.3C333.71 276.96 336.55 282.04 337.44 287.42C338.5 293.62 337.02 300.22 332.77 305.55L318.62 323.29C317.3 324.94 314.9 325.21 313.25 323.9C311.6 322.58 311.33 320.18 312.64 318.53L326.29 301.41C331.33 295.09 331.24 285.73 325.38 280.17C318.77 273.91 308.4 274.77 302.87 281.71L288.72 299.45C287.4 301.1 285 301.37 283.35 300.06C281.7 298.74 281.43 296.34 282.74 294.69L296.89 276.95C301.14 271.62 307.25 268.71 313.52 268.36C318.96 268.01 324.55 269.64 329.13 273.3ZM361.04 219.05C357.91 214.58 353.15 211.23 347.43 209.93C341.71 208.63 335.97 209.58 331.2 212.25C325.69 215.28 321.46 220.56 319.94 227.2L314.89 249.32C314.42 251.38 315.71 253.43 317.77 253.9C319.83 254.37 321.88 253.08 322.35 251.02L327.4 228.9C329.38 220.25 338.35 214.97 347.02 217.74C354.72 220.2 358.86 228.6 357.06 236.48L352.19 257.83C351.72 259.89 353.01 261.94 355.07 262.41C357.13 262.88 359.18 261.59 359.65 259.53L364.7 237.41C366.21 230.77 364.68 224.18 361.04 219.05ZM336.42 144.91C342.14 143.61 347.88 144.56 352.64 147.22C358.14 150.26 362.38 155.53 363.9 162.17L368.95 184.29C369.42 186.35 368.13 188.4 366.07 188.87C364.01 189.34 361.96 188.05 361.49 185.99L356.62 164.64C354.82 156.76 347.45 150.99 339.45 152.11C330.44 153.37 324.64 162.02 326.62 170.67L331.67 192.79C332.14 194.85 330.85 196.9 328.79 197.37C326.73 197.84 324.68 196.55 324.21 194.49L319.16 172.37C317.64 165.73 319.18 159.14 322.82 154.01C325.94 149.56 330.71 146.21 336.42 144.91ZM313.91 86.14C308.46 85.8 302.87 87.43 298.29 91.09C293.71 94.75 290.87 99.83 289.99 105.19C288.93 111.39 290.41 117.99 294.66 123.32L308.81 141.06C310.12 142.72 312.53 142.99 314.18 141.67C315.84 140.36 316.11 137.95 314.79 136.3L300.64 118.56C295.11 111.62 296.58 101.32 304.15 96.27C310.87 91.79 320.02 93.79 325.06 100.11L338.71 117.23C340.02 118.89 342.43 119.16 344.08 117.84C345.74 116.53 346.01 114.12 344.69 112.47L330.54 94.73C326.3 89.4 320.19 86.49 313.91 86.14ZM240.58 59.15C243.12 53.87 247.45 49.97 252.5 47.91C258.31 45.5 265.08 45.48 271.21 48.43L291.65 58.28C293.55 59.2 294.35 61.48 293.44 63.39C292.52 65.29 290.24 66.09 288.33 65.18L268.6 55.68C261.32 52.17 252.21 54.34 248.1 61.3C243.47 69.13 246.62 79.06 254.61 82.91L275.05 92.76C276.95 93.68 277.75 95.96 276.84 97.87C275.92 99.77 273.64 100.57 271.73 99.66L251.29 89.81C245.15 86.85 240.95 81.55 239.22 75.51C237.69 70.24 238.04 64.43 240.58 59.15ZM180.6 40.11C176.95 44.16 174.74 49.55 174.74 55.41C174.74 61.27 176.94 66.66 180.59 70.69C184.78 75.38 190.87 78.34 197.68 78.34H220.37C222.48 78.34 224.19 76.63 224.19 74.52C224.19 72.41 222.48 70.7 220.37 70.7H197.68C188.81 70.7 181.67 63.13 182.44 54.06C183.13 46.01 190.4 40.1 198.48 40.1H220.38C222.49 40.1 224.2 38.39 224.2 36.28C224.2 34.17 222.49 32.46 220.38 32.46H197.69C190.87 32.46 184.79 35.42 180.6 40.11Z" fill="black"/>
</g>
<defs>
<clipPath id="clip0_52_724">
<rect width="400" height="400" fill="white"/>
</clipPath>
</defs>
</svg>
