<?xml version="1.0" encoding="utf-8"?>
<!-- Generator: Adobe Illustrator 27.3.1, SVG Export Plug-In . SVG Version: 6.00 Build 0)  -->
<svg version="1.1" id="Layer_1" xmlns="http://www.w3.org/2000/svg" xmlns:xlink="http://www.w3.org/1999/xlink" x="0px" y="0px"
	 viewBox="0 0 400 400" style="enable-background:new 0 0 400 400;" xml:space="preserve">
<path d="M199.231 141.51C166.501 141.51 139.971 168.04 139.971 200.77C139.971 233.5 166.501 260.03 199.231 260.03C231.961 260.03 258.491 233.5 258.491 200.77C258.491 168.04 231.961 141.51 199.231 141.51ZM199.231 243.27C175.761 243.27 156.731 224.24 156.731 200.77C156.731 177.3 175.761 158.27 199.231 158.27C222.701 158.27 241.731 177.3 241.731 200.77C241.731 224.24 222.711 243.27 199.231 243.27Z" fill="black"/>
<path fill-rule="evenodd" clip-rule="evenodd" d="M227.11 45.3801C227.11 71.7901 210.97 91.1501 203.71 85.8301C201.368 84.1093 202.939 80.1955 205.276 74.3739C207.937 67.7455 211.59 58.6439 211.59 47.4901C211.59 26.7801 198.48 9.14005 180.03 2.49005C186.35 1.88005 192.77 1.55005 199.23 1.55005C199.57 1.55005 200.037 1.54768 200.577 1.54449C200.129 1.54153 199.68 1.54004 199.231 1.54004C174.863 1.54004 151.517 5.91511 129.935 13.9226C147.169 17.311 158.157 28.7597 165.52 46.5501C175.63 70.9501 168.13 95.0101 159.38 92.8701C156.555 92.1777 156.508 87.958 156.44 81.6818C156.361 74.5411 156.253 64.7384 151.99 54.4401C144.07 35.3101 125.2 24.0301 105.62 24.9401C111.22 21.9501 117.02 19.1901 123 16.7201C123.337 16.5796 123.81 16.3805 124.356 16.1508L124.361 16.1486L124.366 16.1465L124.368 16.1458C125.2 15.7956 126.199 15.3752 127.141 14.9835C103.514 24.1587 82.0711 37.7115 63.8088 54.646C80.9931 51.2239 95.4878 57.5976 109.07 71.1901C127.75 89.8701 130.02 114.97 121.12 116.34C118.243 116.784 116.585 112.902 114.119 107.128C111.313 100.559 107.462 91.5419 99.5803 83.6601C84.9503 69.0101 63.2003 65.8101 45.4603 74.1501C49.5003 69.2501 53.8003 64.4801 58.3703 59.9101C58.6845 59.5959 59.152 59.1226 59.6863 58.5818L59.6873 58.5808L59.7692 58.4979C42.5294 75.401 28.3488 95.413 18.1347 117.626C32.7204 107.862 48.5708 108.191 66.3503 115.55C90.7503 125.66 102.46 147.98 94.7603 152.65C92.2714 154.161 89.255 151.209 84.768 146.819C79.6642 141.824 72.6576 134.968 62.3603 130.7C43.2303 122.78 21.9103 128.14 8.71027 142.63C10.5603 136.56 12.7103 130.5 15.1903 124.53C15.3851 124.062 15.6833 123.329 16.0191 122.503L16.0192 122.503L16.0194 122.502C16.2572 121.917 16.5139 121.286 16.766 120.67C6.95098 142.999 1.11398 167.472 0.152199 193.192C9.89369 178.638 24.6472 172.89 43.8503 172.89C70.2603 172.89 89.6203 189.03 84.3003 196.29C82.5795 198.633 78.6657 197.062 72.8441 194.725C66.2157 192.064 57.1141 188.41 45.9603 188.41C25.2503 188.41 7.61027 201.52 0.960269 219.97C0.350269 213.65 0.0202691 207.23 0.0202691 200.77C0.0202691 200.439 0.0180144 199.986 0.0149414 199.463C0.0121433 199.898 0.0107422 200.334 0.0107422 200.77C0.0107422 225.131 4.38325 248.471 12.3862 270.048C15.7888 252.824 27.2358 241.841 45.0103 234.48C69.4103 224.37 93.4703 231.87 91.3303 240.62C90.6379 243.445 86.4182 243.492 80.142 243.561C73.0013 243.639 63.1986 243.747 52.9003 248.01C33.7703 255.93 22.4903 274.8 23.4003 294.38C20.4103 288.78 17.6503 282.98 15.1803 277C15.0394 276.662 14.8396 276.187 14.6091 275.64L14.606 275.632C14.3006 274.907 13.9419 274.055 13.5953 273.224C22.7655 296.702 36.2611 318.014 53.1024 336.181C49.6992 318.996 56.0731 304.507 69.6503 290.93C88.3303 272.25 113.43 269.98 114.8 278.88C115.245 281.757 111.363 283.415 105.588 285.881C99.0196 288.687 90.0021 292.538 82.1203 300.42C67.4803 315.06 64.2803 336.81 72.6103 354.55C67.7103 350.51 62.9403 346.21 58.3703 341.64C58.1498 341.42 57.851 341.124 57.5054 340.782C74.2968 357.779 94.123 371.77 116.105 381.878C106.332 367.289 106.659 351.434 114.02 333.65C124.13 309.25 146.45 297.54 151.12 305.24C152.631 307.729 149.68 310.745 145.289 315.232C140.295 320.336 133.438 327.343 129.17 337.64C121.25 356.77 126.61 378.09 141.1 391.29C135.03 389.44 128.97 387.29 123 384.81C122.532 384.615 121.799 384.317 120.972 383.981L120.965 383.978C120.294 383.705 119.561 383.407 118.861 383.12C141.27 393.012 165.846 398.895 191.679 399.859C177.112 390.118 171.36 375.36 171.36 356.15C171.36 329.74 187.5 310.38 194.76 315.7C197.103 317.421 195.532 321.335 193.195 327.156C190.534 333.785 186.88 342.886 186.88 354.04C186.88 374.75 199.99 392.39 218.44 399.04C212.12 399.65 205.7 399.98 199.24 399.98C198.794 399.98 198.127 399.984 197.365 399.989L197.203 399.99C197.881 399.997 198.561 400 199.241 400C223.607 400 246.952 395.626 268.533 387.619C251.305 384.223 240.315 372.773 232.94 354.99C222.83 330.59 230.33 306.53 239.08 308.67C241.906 309.362 241.952 313.582 242.021 319.858C242.1 326.999 242.207 336.802 246.47 347.1C254.39 366.23 273.26 377.51 292.84 376.6C287.24 379.59 281.44 382.35 275.46 384.82C275.316 384.88 275.148 384.951 274.959 385.03C274.703 385.137 274.41 385.261 274.093 385.394L274.082 385.399C273.201 385.769 272.136 386.218 271.148 386.628C294.849 377.452 316.356 363.873 334.666 346.895C317.474 350.305 302.981 343.931 289.4 330.35C270.72 311.67 268.45 286.57 277.35 285.2C280.227 284.756 281.885 288.638 284.352 294.412C287.157 300.981 291.008 309.998 298.89 317.88C313.53 332.52 335.28 335.72 353.02 327.39C348.98 332.29 344.68 337.06 340.11 341.63C339.806 341.934 339.358 342.387 338.845 342.907C356.03 326.026 370.167 306.054 380.356 283.89C365.764 293.669 349.898 293.342 332.12 285.98C307.72 275.87 296.01 253.55 303.71 248.88C306.199 247.369 309.216 250.321 313.702 254.711C318.806 259.706 325.813 266.562 336.11 270.83C355.24 278.75 376.56 273.39 389.76 258.9C387.91 264.97 385.76 271.03 383.28 277C383.087 277.464 382.792 278.19 382.459 279.008L382.456 279.015L382.453 279.022L382.451 279.028L382.176 279.704C382.024 280.078 381.868 280.461 381.713 280.838C381.65 280.994 381.586 281.148 381.524 281.301C391.458 258.848 397.365 234.216 398.33 208.32C388.589 222.887 373.831 228.64 354.62 228.64C328.21 228.64 308.85 212.5 314.17 205.24C315.891 202.897 319.805 204.469 325.626 206.805C332.255 209.466 341.356 213.12 352.51 213.12C373.22 213.12 390.86 200.01 397.51 181.56C398.12 187.88 398.45 194.3 398.45 200.76C398.45 201.206 398.454 201.874 398.459 202.636L398.46 202.834C398.467 202.147 398.471 201.459 398.471 200.77C398.471 176.396 394.093 153.044 386.081 131.458C382.697 148.692 371.247 159.684 353.45 167.06C329.05 177.17 304.99 169.67 307.13 160.92C307.823 158.095 312.042 158.048 318.319 157.979C325.459 157.901 335.262 157.793 345.56 153.53C364.69 145.61 375.97 126.74 375.06 107.16C378.05 112.76 380.81 118.56 383.28 124.54C383.352 124.713 383.44 124.921 383.538 125.156C383.634 125.384 383.741 125.637 383.854 125.908C384.249 126.845 384.733 127.994 385.164 129.035C375.985 105.264 362.379 83.6956 345.356 65.3394C348.774 82.5289 342.4 97.0204 328.81 110.6C310.13 129.28 285.03 131.55 283.66 122.65C283.216 119.773 287.098 118.115 292.872 115.649C299.441 112.843 308.458 108.992 316.34 101.11C330.98 86.4701 334.18 64.7201 325.85 46.9801C330.75 51.0201 335.52 55.3201 340.09 59.8901C340.362 60.1615 340.752 60.5475 341.202 60.992C324.362 43.8912 304.455 29.8184 282.374 19.6649C292.138 34.2505 291.809 50.1108 284.45 67.8801C274.34 92.2801 252.02 103.99 247.35 96.2901C245.839 93.8012 248.791 90.7848 253.182 86.2978C258.176 81.194 265.032 74.1874 269.3 63.8901C277.22 44.7601 271.86 23.4401 257.37 10.2401C263.44 12.0901 269.5 14.2401 275.47 16.7201C275.938 16.915 276.672 17.2133 277.498 17.5492C278.08 17.786 278.709 18.0414 279.322 18.2925C256.995 8.47911 232.524 2.64307 206.808 1.68147C221.362 11.423 227.11 26.1766 227.11 45.3801ZM199.231 303.44C142.531 303.44 96.5607 257.47 96.5607 200.77C96.5607 144.07 142.531 98.1 199.231 98.1C255.931 98.1 301.901 144.07 301.901 200.77C301.911 257.47 255.941 303.44 199.231 303.44Z" fill="black"/>
</svg>
