<svg width="400" height="400" viewBox="0 0 400 400" fill="none" xmlns="http://www.w3.org/2000/svg">
<g clip-path="url(#clip0_37_259)">
<path d="M199.85 0.310059C89.47 0.310059 0 89.7801 0 200.15C0 310.53 89.47 400 199.85 400C310.23 400 399.7 310.53 399.7 200.15C399.69 89.7801 310.22 0.310059 199.85 0.310059ZM199.85 386.92C96.7 386.92 13.08 303.3 13.08 200.15C13.08 97.0001 96.7 13.3801 199.85 13.3801C303 13.3801 386.62 97.0001 386.62 200.15C386.62 303.3 303 386.92 199.85 386.92Z" fill="black"/>
<path d="M199.85 129.32C160.73 129.32 129.02 161.03 129.02 200.15C129.02 239.27 160.73 270.98 199.85 270.98C238.97 270.98 270.68 239.27 270.68 200.15C270.68 161.03 238.96 129.32 199.85 129.32ZM199.85 260.68C166.42 260.68 139.33 233.58 139.33 200.16C139.33 166.73 166.43 139.64 199.85 139.64C233.27 139.64 260.37 166.74 260.37 200.16C260.37 233.58 233.27 260.68 199.85 260.68Z" fill="black"/>
<path d="M199.85 234.47C218.804 234.47 234.17 219.104 234.17 200.15C234.17 181.196 218.804 165.83 199.85 165.83C180.895 165.83 165.53 181.196 165.53 200.15C165.53 219.104 180.895 234.47 199.85 234.47Z" fill="black"/>
<path d="M193.3 29.1101C177.69 38.2601 165.51 50.7201 158.13 66.3801C150.75 82.0401 148.86 99.3601 151.73 117.23C167.34 108.08 179.52 95.6201 186.9 79.9601C194.28 64.3001 196.17 46.9801 193.3 29.1101Z" fill="black"/>
<path d="M54.3198 115.09C69.0298 125.63 85.3698 131.68 102.68 132.06C119.99 132.44 136.58 127.11 151.73 117.22C137.02 106.68 120.68 100.63 103.37 100.25C86.0598 99.8702 69.4698 105.2 54.3198 115.09Z" fill="black"/>
<path d="M48.4399 120.3C48.5599 138.39 53.2599 155.17 63.1299 169.4C72.9999 183.63 87.0599 193.91 103.97 200.36C103.85 182.27 99.1499 165.49 89.2799 151.26C79.4099 137.04 65.3499 126.75 48.4399 120.3Z" fill="black"/>
<path d="M53.41 283.65C69.89 276.18 83.3 265.06 92.29 250.26C101.27 235.46 104.95 218.43 103.97 200.36C87.49 207.83 74.08 218.95 65.09 233.75C56.1 248.55 52.43 265.58 53.41 283.65Z" fill="black"/>
<path d="M54.9897 291.35C70.7197 300.3 87.5997 304.61 104.85 303.18C122.1 301.75 138.04 294.71 152.08 283.3C136.35 274.35 119.47 270.04 102.22 271.47C84.9697 272.9 69.0297 279.93 54.9897 291.35Z" fill="black"/>
<path d="M198.94 368.72C200.72 350.71 197.79 333.54 189.46 318.36C181.13 303.18 168.22 291.48 152.08 283.3C150.3 301.31 153.23 318.48 161.56 333.66C169.89 348.83 182.8 360.53 198.94 368.72Z" fill="black"/>
<path d="M206.39 371.2C222 362.05 234.18 349.59 241.56 333.93C248.94 318.27 250.83 300.95 247.96 283.08C232.35 292.23 220.17 304.69 212.79 320.35C205.4 336.01 203.52 353.33 206.39 371.2Z" fill="black"/>
<path d="M345.37 285.22C330.66 274.68 314.32 268.63 297.01 268.25C279.7 267.87 263.11 273.2 247.96 283.09C262.67 293.63 279.01 299.68 296.32 300.06C313.63 300.43 330.22 295.1 345.37 285.22Z" fill="black"/>
<path d="M351.25 280.01C351.13 261.92 346.43 245.14 336.56 230.91C326.69 216.68 312.63 206.4 295.72 199.95C295.84 218.04 300.54 234.82 310.41 249.05C320.28 263.27 334.34 273.56 351.25 280.01Z" fill="black"/>
<path d="M346.28 116.66C329.8 124.13 316.39 135.25 307.4 150.05C298.42 164.85 294.74 181.88 295.72 199.95C312.2 192.48 325.61 181.36 334.6 166.56C343.59 151.76 347.26 134.72 346.28 116.66Z" fill="black"/>
<path d="M344.7 108.96C328.97 100.01 312.09 95.7002 294.84 97.1302C277.59 98.5602 261.65 105.6 247.61 117.01C263.34 125.96 280.22 130.27 297.47 128.84C314.72 127.41 330.66 120.38 344.7 108.96Z" fill="black"/>
<path d="M200.75 31.5901C198.97 49.6001 201.9 66.7701 210.23 81.9501C218.56 97.1301 231.47 108.83 247.61 117.01C249.39 99.0001 246.46 81.8301 238.13 66.6501C229.8 51.4701 216.89 39.7701 200.75 31.5901Z" fill="black"/>
<path d="M120.43 77.75C128.797 77.75 135.58 70.9671 135.58 62.5999C135.58 54.2328 128.797 47.45 120.43 47.45C112.063 47.45 105.28 54.2328 105.28 62.5999C105.28 70.9671 112.063 77.75 120.43 77.75Z" fill="black"/>
<path d="M41.0099 215.3C49.377 215.3 56.1599 208.517 56.1599 200.15C56.1599 191.783 49.377 185 41.0099 185C32.6427 185 25.8599 191.783 25.8599 200.15C25.8599 208.517 32.6427 215.3 41.0099 215.3Z" fill="black"/>
<path d="M120.43 352.86C128.797 352.86 135.58 346.077 135.58 337.71C135.58 329.343 128.797 322.56 120.43 322.56C112.063 322.56 105.28 329.343 105.28 337.71C105.28 346.077 112.063 352.86 120.43 352.86Z" fill="black"/>
<path d="M279.26 352.86C287.627 352.86 294.41 346.077 294.41 337.71C294.41 329.343 287.627 322.56 279.26 322.56C270.893 322.56 264.11 329.343 264.11 337.71C264.11 346.077 270.893 352.86 279.26 352.86Z" fill="black"/>
<path d="M358.68 215.3C367.047 215.3 373.83 208.517 373.83 200.15C373.83 191.783 367.047 185 358.68 185C350.313 185 343.53 191.783 343.53 200.15C343.53 208.517 350.313 215.3 358.68 215.3Z" fill="black"/>
<path d="M279.26 77.75C287.627 77.75 294.41 70.9671 294.41 62.5999C294.41 54.2328 287.627 47.45 279.26 47.45C270.893 47.45 264.11 54.2328 264.11 62.5999C264.11 70.9671 270.893 77.75 279.26 77.75Z" fill="black"/>
</g>
<defs>
<clipPath id="clip0_37_259">
<rect width="400" height="400" fill="white"/>
</clipPath>
</defs>
</svg>
