<svg width="400" height="400" viewBox="0 0 400 400" fill="none" xmlns="http://www.w3.org/2000/svg">
<path d="M200 6.1001C92.9096 6.1001 6.09961 92.9101 6.09961 200C6.09961 307.09 92.9096 393.9 200 393.9C307.09 393.9 393.9 307.09 393.9 200C393.9 92.9101 307.09 6.1001 200 6.1001ZM200 379.2C101.03 379.2 20.7996 298.97 20.7996 200C20.7996 101.03 101.03 20.8001 200 20.8001C298.97 20.8001 379.2 101.03 379.2 200C379.2 298.97 298.97 379.2 200 379.2Z" fill="black"/>
<path d="M200 212.45C206.876 212.45 212.45 206.876 212.45 200C212.45 193.124 206.876 187.55 200 187.55C193.124 187.55 187.55 193.124 187.55 200C187.55 206.876 193.124 212.45 200 212.45Z" fill="black"/>
<path d="M252.56 118.59C247.13 132.39 238.6 143.49 226.89 150.74C215.18 157.99 201.44 160.69 186.67 159.4C192.1 145.6 200.63 134.5 212.34 127.25C224.05 120 237.79 117.31 252.56 118.59Z" fill="black"/>
<path d="M179.6 105.27C185.52 118.87 187.33 132.75 184.18 146.15C181.03 159.56 173.22 171.18 161.87 180.71C155.95 167.11 154.14 153.23 157.29 139.83C160.44 126.43 168.25 114.81 179.6 105.27Z" fill="black"/>
<path d="M118.589 147.44C132.389 152.87 143.489 161.4 150.739 173.11C157.989 184.82 160.689 198.56 159.399 213.33C145.599 207.9 134.499 199.37 127.249 187.66C119.999 175.95 117.309 162.21 118.589 147.44Z" fill="black"/>
<path d="M105.27 220.4C118.87 214.48 132.75 212.67 146.15 215.82C159.56 218.97 171.18 226.78 180.71 238.13C167.11 244.05 153.23 245.86 139.83 242.71C126.43 239.56 114.81 231.75 105.27 220.4Z" fill="black"/>
<path d="M147.439 281.41C152.869 267.61 161.399 256.51 173.109 249.26C184.819 242.01 198.559 239.31 213.329 240.6C207.899 254.4 199.369 265.5 187.659 272.75C175.949 280 162.209 282.69 147.439 281.41Z" fill="black"/>
<path d="M220.4 294.73C214.48 281.13 212.67 267.25 215.82 253.85C218.97 240.44 226.78 228.82 238.13 219.29C244.05 232.89 245.86 246.77 242.71 260.17C239.56 273.57 231.75 285.19 220.4 294.73Z" fill="black"/>
<path d="M281.41 252.56C267.61 247.13 256.51 238.6 249.26 226.89C242.01 215.18 239.31 201.44 240.6 186.67C254.4 192.1 265.5 200.63 272.75 212.34C280 224.05 282.69 237.79 281.41 252.56Z" fill="black"/>
<path d="M294.729 179.6C281.129 185.52 267.249 187.33 253.849 184.18C240.439 181.03 228.819 173.22 219.289 161.87C232.889 155.95 246.769 154.14 260.169 157.29C273.569 160.44 285.189 168.25 294.729 179.6Z" fill="black"/>
<path d="M113.11 55.4702C124.67 66.6502 138.37 74.4002 153.82 77.6402C169.26 80.8802 184.92 79.2802 200 73.6902C188.44 62.5102 174.74 54.7602 159.29 51.5202C143.84 48.2802 128.19 49.8802 113.11 55.4702Z" fill="black"/>
<path d="M59.0098 107.49C74.2798 112.55 89.9898 113.58 105.3 109.8C120.62 106.02 134.04 97.7902 145.19 86.2002C129.92 81.1402 114.21 80.1102 98.8998 83.8902C83.5898 87.6702 70.1698 95.9102 59.0098 107.49Z" fill="black"/>
<path d="M32.8301 177.82C48.7801 175.75 63.3801 169.87 75.5401 159.82C87.7001 149.77 96.2201 136.53 101.25 121.25C85.3001 123.32 70.7001 129.2 58.5401 139.25C46.3801 149.31 37.8601 162.55 32.8301 177.82Z" fill="black"/>
<path d="M39.7601 252.55C53.2301 243.77 63.8401 232.13 70.4301 217.8C77.0201 203.47 78.9501 187.84 76.8601 171.9C63.3901 180.68 52.7801 192.32 46.1901 206.65C39.6001 220.98 37.6701 236.6 39.7601 252.55Z" fill="black"/>
<path d="M78.4304 316.87C86.7604 303.11 91.2604 288.03 90.9804 272.25C90.7004 256.48 85.6604 241.56 76.8504 228.11C68.5204 241.87 64.0204 256.95 64.3004 272.73C64.5904 288.5 69.6204 303.41 78.4304 316.87Z" fill="black"/>
<path d="M141.18 358.04C142.71 342.03 140.23 326.48 133.13 312.39C126.03 298.3 115.02 287.05 101.25 278.75C99.7201 294.76 102.2 310.31 109.3 324.4C116.4 338.49 127.41 349.74 141.18 358.04Z" fill="black"/>
<path d="M215.57 367.91C210 352.82 201.02 339.89 188.51 330.28C176 320.67 161.2 315.3 145.19 313.8C150.76 328.89 159.74 341.82 172.25 351.43C184.76 361.05 199.56 366.41 215.57 367.91Z" fill="black"/>
<path d="M286.89 344.53C275.33 333.35 261.63 325.6 246.18 322.36C230.73 319.12 215.08 320.72 200 326.31C211.56 337.49 225.26 345.24 240.71 348.48C256.16 351.72 271.81 350.12 286.89 344.53Z" fill="black"/>
<path d="M340.991 292.51C325.721 287.45 310.011 286.42 294.701 290.2C279.381 293.98 265.961 302.21 254.811 313.8C270.081 318.86 285.791 319.89 301.101 316.11C316.411 312.33 329.831 304.09 340.991 292.51Z" fill="black"/>
<path d="M367.17 222.18C351.22 224.25 336.62 230.13 324.46 240.18C312.3 250.23 303.78 263.47 298.75 278.75C314.7 276.68 329.3 270.8 341.46 260.75C353.62 250.69 362.14 237.45 367.17 222.18Z" fill="black"/>
<path d="M360.24 147.45C346.77 156.23 336.16 167.87 329.57 182.2C322.98 196.53 321.05 212.16 323.14 228.1C336.61 219.32 347.22 207.68 353.81 193.35C360.4 179.02 362.33 163.4 360.24 147.45Z" fill="black"/>
<path d="M321.57 83.1301C313.24 96.8901 308.74 111.97 309.02 127.75C309.3 143.53 314.34 158.44 323.15 171.89C331.48 158.13 335.98 143.05 335.7 127.27C335.41 111.5 330.38 96.5901 321.57 83.1301Z" fill="black"/>
<path d="M258.82 41.9602C257.29 57.9702 259.77 73.5202 266.87 87.6102C273.97 101.7 284.98 112.95 298.75 121.25C300.28 105.24 297.8 89.6902 290.7 75.6002C283.61 61.5102 272.59 50.2602 258.82 41.9602Z" fill="black"/>
<path d="M184.43 32.0901C190 47.1801 198.98 60.1101 211.49 69.7201C224 79.3301 238.79 84.7001 254.8 86.2001C249.23 71.1101 240.25 58.1801 227.74 48.5701C215.23 38.9601 200.44 33.5901 184.43 32.0901Z" fill="black"/>
</svg>
