<svg width="500" height="500" viewBox="0 0 500 500" fill="none" xmlns="http://www.w3.org/2000/svg">
<path d="M147.79 352.111L147.76 351.931" stroke="#171717" stroke-width="0.5" stroke-miterlimit="10" stroke-linecap="round" stroke-linejoin="round"/>
<path fill-rule="evenodd" clip-rule="evenodd" d="M250.27 497.28V435.63L155.93 478.49L179.288 420.589C179.196 420.551 179.103 420.512 179.011 420.474L74.55 424.77L118.89 380.18L20.93 344.04L79.197 320.088C78.9216 319.425 78.6503 318.76 78.3831 318.095L2.79004 249.04H63.82L22.13 155.49L78 178.63L75.24 75.0401L118.136 117.936C118.185 117.887 118.233 117.837 118.281 117.788L155.23 21.4501L178.181 76.8365C178.487 76.7058 178.793 76.5759 179.099 76.447L178.51 76.5601L250.267 0.87312C176.235 0.929776 102.981 33.8482 53.9596 96.73C-30.5204 205.07 -11.1004 361.59 97.2396 446.07C205.62 530.55 362.1 511.14 446.58 402.8C503.671 329.557 513.311 234.333 480.123 154.223L423.176 177.811C423.438 178.452 423.697 179.094 423.951 179.737L497.82 249.77H436.994C436.993 249.896 436.992 250.021 436.991 250.146L479.72 344.15L422.373 321.045C422.171 321.526 421.967 322.007 421.761 322.487L426 425.53L381.59 381.369C381.462 381.496 381.333 381.622 381.204 381.748L345.31 479.15L321.437 421.17C320.579 421.522 319.721 421.867 318.86 422.206L250.27 497.28ZM65.0003 249.04C65.0002 248.991 65.0001 248.943 65.0001 248.894L64.97 249.04H65.0003ZM78.4595 178.831C78.5081 178.71 78.5569 178.588 78.6058 178.467L78.38 178.8L78.4595 178.831ZM323.542 76.754L426.06 74.0101L383.06 117.01L480.12 154.216C464.199 115.788 438.422 80.8373 403.3 53.46C357.806 17.9958 303.835 0.832736 250.27 0.873118V62.0008C250.562 61.9999 250.853 61.9998 251.145 62.0003L344.65 20.3201L321.6 75.9452C322.249 76.2111 322.896 76.4807 323.542 76.754Z" fill="black"/>
<path d="M250.27 435.63H250.52V435.242L250.167 435.403L250.27 435.63ZM250.27 497.28H250.02V497.924L250.455 497.449L250.27 497.28ZM155.93 478.49L155.698 478.397L155.464 478.976L156.033 478.718L155.93 478.49ZM179.288 420.589L179.52 420.683L179.612 420.454L179.384 420.359L179.288 420.589ZM179.011 420.474L179.108 420.243L179.057 420.222L179.001 420.224L179.011 420.474ZM74.55 424.77L74.3728 424.594L73.923 425.046L74.5603 425.02L74.55 424.77ZM118.89 380.18L119.067 380.356L119.342 380.08L118.977 379.946L118.89 380.18ZM20.93 344.04L20.835 343.809L20.2419 344.053L20.8435 344.275L20.93 344.04ZM79.197 320.088L79.292 320.319L79.5241 320.224L79.4278 319.992L79.197 320.088ZM78.3831 318.095L78.615 318.002L78.5938 317.949L78.5517 317.911L78.3831 318.095ZM2.79004 249.04V248.79H2.1457L2.62142 249.225L2.79004 249.04ZM63.82 249.04V249.29H64.2052L64.0484 248.938L63.82 249.04ZM22.13 155.49L22.2257 155.259L21.6465 155.019L21.9017 155.592L22.13 155.49ZM78 178.63L77.9044 178.861L78.2602 179.008L78.2499 178.623L78 178.63ZM75.24 75.0401L75.4168 74.8633L74.9734 74.4199L74.9901 75.0468L75.24 75.0401ZM118.136 117.936L117.959 118.113L118.138 118.292L118.315 118.111L118.136 117.936ZM118.281 117.788L118.46 117.963L118.496 117.926L118.515 117.878L118.281 117.788ZM155.23 21.4501L155.461 21.3544L155.221 20.7754L154.997 21.3606L155.23 21.4501ZM178.181 76.8365L177.95 76.9322L178.047 77.1657L178.279 77.0664L178.181 76.8365ZM179.099 76.447L179.196 76.6774L181.396 75.7516L179.052 76.2015L179.099 76.447ZM178.51 76.5601L178.329 76.3881L177.794 76.9522L178.557 76.8056L178.51 76.5601ZM250.267 0.87312L250.449 1.04512L250.849 0.622675L250.267 0.62312L250.267 0.87312ZM53.9596 96.73L54.1568 96.8838L54.1568 96.8837L53.9596 96.73ZM97.2396 446.07L97.0859 446.267L97.0859 446.267L97.2396 446.07ZM446.58 402.8L446.777 402.954L446.777 402.954L446.58 402.8ZM480.123 154.223L480.354 154.127L480.258 153.896L480.027 153.992L480.123 154.223ZM423.176 177.811L423.08 177.58L422.851 177.675L422.945 177.905L423.176 177.811ZM423.951 179.737L423.719 179.829L423.739 179.88L423.779 179.918L423.951 179.737ZM497.82 249.77V250.02H498.447L497.992 249.589L497.82 249.77ZM436.994 249.77V249.52H436.746L436.744 249.768L436.994 249.77ZM436.991 250.146L436.741 250.144L436.741 250.199L436.763 250.25L436.991 250.146ZM479.72 344.15L479.627 344.382L480.206 344.616L479.948 344.047L479.72 344.15ZM422.373 321.045L422.466 320.813L422.238 320.721L422.142 320.948L422.373 321.045ZM421.761 322.487L421.531 322.388L421.509 322.44L421.511 322.497L421.761 322.487ZM426 425.53L425.824 425.707L426.276 426.157L426.25 425.52L426 425.53ZM381.59 381.369L381.766 381.192L381.591 381.017L381.414 381.191L381.59 381.369ZM381.204 381.748L381.029 381.57L380.989 381.609L380.97 381.662L381.204 381.748ZM345.31 479.15L345.079 479.245L345.323 479.838L345.545 479.237L345.31 479.15ZM321.437 421.17L321.668 421.075L321.573 420.844L321.342 420.939L321.437 421.17ZM318.86 422.206L318.769 421.973L318.715 421.994L318.675 422.037L318.86 422.206ZM65.0003 249.04V249.29H65.2508L65.2503 249.04L65.0003 249.04ZM65.0001 248.894L65.2501 248.894L65.2476 246.451L64.7552 248.844L65.0001 248.894ZM64.97 249.04L64.7252 248.99L64.6633 249.29H64.97V249.04ZM78.4595 178.831L78.3683 179.064L78.5994 179.155L78.6916 178.924L78.4595 178.831ZM78.6058 178.467L78.8376 178.561L79.7123 176.389L78.3988 178.327L78.6058 178.467ZM78.38 178.8L78.1731 178.66L77.9976 178.919L78.2888 179.033L78.38 178.8ZM426.06 74.0101L426.237 74.1869L426.68 73.7434L426.053 73.7602L426.06 74.0101ZM323.542 76.754L323.444 76.9843L323.494 77.0054L323.549 77.0039L323.542 76.754ZM383.06 117.01L382.883 116.833L382.611 117.106L382.971 117.244L383.06 117.01ZM480.12 154.216L480.031 154.45L480.574 154.658L480.351 154.121L480.12 154.216ZM403.3 53.46L403.146 53.6572L403.146 53.6572L403.3 53.46ZM250.27 0.873118L250.27 0.623118L250.02 0.623307V0.873118H250.27ZM250.27 62.0008H250.02V62.2515L250.271 62.2508L250.27 62.0008ZM251.145 62.0003L251.144 62.2503L251.198 62.2504L251.246 62.2287L251.145 62.0003ZM344.65 20.3201L344.881 20.4158L345.121 19.8364L344.548 20.0918L344.65 20.3201ZM321.6 75.9452L321.369 75.8495L321.273 76.0813L321.505 76.1765L321.6 75.9452ZM250.02 435.63V497.28H250.52V435.63H250.02ZM156.033 478.718L250.373 435.858L250.167 435.403L155.827 478.263L156.033 478.718ZM179.056 420.496L155.698 478.397L156.162 478.584L179.52 420.683L179.056 420.496ZM179.384 420.359C179.292 420.32 179.2 420.282 179.108 420.243L178.915 420.704C179.007 420.743 179.099 420.782 179.192 420.82L179.384 420.359ZM74.5603 425.02L179.021 420.723L179.001 420.224L74.5398 424.52L74.5603 425.02ZM118.713 380.004L74.3728 424.594L74.7273 424.946L119.067 380.356L118.713 380.004ZM20.8435 344.275L118.804 380.415L118.977 379.946L21.0166 343.806L20.8435 344.275ZM79.1019 319.857L20.835 343.809L21.0251 344.271L79.292 320.319L79.1019 319.857ZM79.4278 319.992C79.1528 319.33 78.8819 318.666 78.615 318.002L78.1511 318.188C78.4187 318.854 78.6903 319.52 78.9661 320.184L79.4278 319.992ZM2.62142 249.225L78.2144 318.28L78.5517 317.911L2.95865 248.856L2.62142 249.225ZM63.82 248.79H2.79004V249.29H63.82V248.79ZM21.9017 155.592L63.5917 249.142L64.0484 248.938L22.3584 155.388L21.9017 155.592ZM78.0957 178.399L22.2257 155.259L22.0344 155.721L77.9044 178.861L78.0957 178.399ZM74.9901 75.0468L77.7501 178.637L78.2499 178.623L75.4899 75.0335L74.9901 75.0468ZM118.313 117.759L75.4168 74.8633L75.0633 75.2169L117.959 118.113L118.313 117.759ZM118.315 118.111C118.363 118.062 118.411 118.012 118.46 117.963L118.103 117.613C118.054 117.662 118.006 117.712 117.958 117.761L118.315 118.111ZM154.997 21.3606L118.048 117.699L118.515 117.878L155.463 21.5396L154.997 21.3606ZM178.412 76.7408L155.461 21.3544L154.999 21.5458L177.95 76.9322L178.412 76.7408ZM178.279 77.0664C178.585 76.9359 178.89 76.8062 179.196 76.6774L179.002 76.2166C178.696 76.3457 178.389 76.4757 178.083 76.6066L178.279 77.0664ZM178.557 76.8056L179.146 76.6925L179.052 76.2015L178.463 76.3146L178.557 76.8056ZM250.086 0.701116L178.329 76.3881L178.691 76.7321L250.449 1.04512L250.086 0.701116ZM54.1568 96.8837C103.128 34.0653 176.309 1.17972 250.267 1.12312L250.267 0.62312C176.162 0.679832 102.833 33.6312 53.7624 96.5763L54.1568 96.8837ZM97.3933 445.873C-10.8379 361.478 -30.2383 205.115 54.1568 96.8838L53.7625 96.5763C-30.8025 205.025 -11.3629 361.702 97.0859 446.267L97.3933 445.873ZM446.382 402.646C361.987 510.877 205.664 530.268 97.3933 445.873L97.0859 446.267C205.575 530.832 362.212 511.403 446.777 402.954L446.382 402.646ZM479.892 154.319C513.047 234.349 503.416 329.477 446.382 402.646L446.777 402.954C503.926 329.637 513.575 234.317 480.354 154.127L479.892 154.319ZM423.272 178.042L480.219 154.454L480.027 153.992L423.08 177.58L423.272 178.042ZM422.945 177.905C423.207 178.545 423.465 179.187 423.719 179.829L424.184 179.645C423.929 179.001 423.67 178.358 423.408 177.716L422.945 177.905ZM497.992 249.589L424.123 179.555L423.779 179.918L497.648 249.952L497.992 249.589ZM436.994 250.02H497.82V249.52H436.994V250.02ZM436.744 249.768C436.743 249.893 436.742 250.019 436.741 250.144L437.241 250.149C437.242 250.023 437.243 249.898 437.244 249.772L436.744 249.768ZM479.948 344.047L437.219 250.043L436.763 250.25L479.492 344.254L479.948 344.047ZM422.279 321.277L479.627 344.382L479.813 343.918L422.466 320.813L422.279 321.277ZM422.142 320.948C421.94 321.429 421.737 321.909 421.531 322.388L421.99 322.586C422.197 322.105 422.401 321.624 422.603 321.142L422.142 320.948ZM426.25 425.52L422.01 322.477L421.511 322.497L425.75 425.54L426.25 425.52ZM381.414 381.546L425.824 425.707L426.176 425.353L381.766 381.192L381.414 381.546ZM381.414 381.191C381.286 381.317 381.158 381.444 381.029 381.57L381.379 381.927C381.508 381.8 381.637 381.674 381.765 381.547L381.414 381.191ZM345.545 479.237L381.439 381.835L380.97 381.662L345.075 479.064L345.545 479.237ZM321.205 421.265L345.079 479.245L345.541 479.055L321.668 421.075L321.205 421.265ZM321.342 420.939C320.486 421.291 319.628 421.635 318.769 421.973L318.951 422.439C319.813 422.1 320.673 421.754 321.532 421.402L321.342 420.939ZM250.455 497.449L319.045 422.374L318.675 422.037L250.085 497.111L250.455 497.449ZM65.2503 249.04C65.2502 248.991 65.2501 248.942 65.2501 248.894L64.7501 248.894C64.7501 248.943 64.7502 248.992 64.7503 249.041L65.2503 249.04ZM65.2149 249.091L65.245 248.944L64.7552 248.844L64.7252 248.99L65.2149 249.091ZM65.0003 248.79H64.97V249.29H65.0003V248.79ZM78.6916 178.924C78.7402 178.803 78.7888 178.682 78.8376 178.561L78.3739 178.374C78.3249 178.495 78.2761 178.617 78.2274 178.738L78.6916 178.924ZM78.587 178.94L78.8127 178.607L78.3988 178.327L78.1731 178.66L78.587 178.94ZM78.5507 178.598L78.4712 178.567L78.2888 179.033L78.3683 179.064L78.5507 178.598ZM426.053 73.7602L323.535 76.5041L323.549 77.0039L426.067 74.26L426.053 73.7602ZM383.237 117.187L426.237 74.1869L425.883 73.8333L382.883 116.833L383.237 117.187ZM480.21 153.983L383.15 116.777L382.971 117.244L480.031 154.45L480.21 153.983ZM403.146 53.6572C438.233 81.0072 463.984 115.922 479.889 154.312L480.351 154.121C464.413 115.653 438.61 80.6674 403.453 53.2629L403.146 53.6572ZM250.27 1.12312C303.781 1.08278 357.698 18.2284 403.146 53.6572L403.453 53.2629C357.915 17.7631 303.888 0.582695 250.27 0.623118L250.27 1.12312ZM250.52 62.0008V0.873118H250.02V62.0008H250.52ZM250.271 62.2508C250.562 62.2499 250.853 62.2498 251.144 62.2503L251.145 61.7503C250.853 61.7498 250.561 61.7499 250.269 61.7508L250.271 62.2508ZM344.548 20.0918L251.043 61.772L251.246 62.2287L344.752 20.5485L344.548 20.0918ZM321.831 76.0409L344.881 20.4158L344.419 20.2244L321.369 75.8495L321.831 76.0409ZM321.505 76.1765C322.153 76.442 322.799 76.7113 323.444 76.9843L323.639 76.5238C322.993 76.2501 322.344 75.9801 321.695 75.7139L321.505 76.1765Z" fill="black"/>
</svg>
