<svg width="500" height="500" viewBox="0 0 500 500" fill="none" xmlns="http://www.w3.org/2000/svg">
<g clip-path="url(#clip0_55_816)">
<path fill-rule="evenodd" clip-rule="evenodd" d="M53.28 96.1804C138.02 -12.5396 295.07 -32.0196 403.82 52.7604C512.54 137.53 532.02 294.55 447.24 403.3C362.47 512.02 205.41 531.5 96.7 446.72C-12.05 361.95 -31.49 204.93 53.28 96.1804Z" stroke="black" stroke-width="0.5" stroke-miterlimit="10"/>
<path fill-rule="evenodd" clip-rule="evenodd" d="M58.5 100.05C140.99 -5.81975 293.89 -24.7497 399.74 57.7703C505.58 140.26 524.51 293.16 442.02 399C359.5 504.84 206.63 523.77 100.79 441.28C-5.09001 358.77 -24.02 205.9 58.5 100.05Z" stroke="black" stroke-width="0.5" stroke-miterlimit="10"/>
<path d="M371.3 39.6104C294.94 91.4404 253.1 162.1 250.06 249.64" stroke="black" stroke-width="0.81" stroke-miterlimit="10" stroke-linecap="round" stroke-linejoin="round"/>
<path d="M460.25 128.19C368.21 134.9 296.66 175.18 250.26 249.47" stroke="black" stroke-width="0.81" stroke-miterlimit="10" stroke-linecap="round" stroke-linejoin="round"/>
<path d="M492.95 249.841C409.87 209.631 327.8 208.731 250.47 249.841" stroke="black" stroke-width="0.81" stroke-miterlimit="10" stroke-linecap="round" stroke-linejoin="round"/>
<path d="M460.46 371.121C408.63 294.761 338.01 252.921 250.47 249.841" stroke="black" stroke-width="0.81" stroke-miterlimit="10" stroke-linecap="round" stroke-linejoin="round"/>
<path d="M371.5 459.45C364.79 367.41 324.51 295.86 250.26 249.46" stroke="black" stroke-width="0.81" stroke-miterlimit="10" stroke-linecap="round" stroke-linejoin="round"/>
<path d="M250.26 492.5C290.47 409.39 291.37 327.32 250.26 249.98" stroke="black" stroke-width="0.81" stroke-miterlimit="10" stroke-linecap="round" stroke-linejoin="round"/>
<path d="M129.19 459.871C205.55 408.041 247.39 337.381 250.47 249.841" stroke="black" stroke-width="0.81" stroke-miterlimit="10" stroke-linecap="round" stroke-linejoin="round"/>
<path d="M40.23 371.22C132.27 364.51 203.82 324.23 250.26 249.94" stroke="black" stroke-width="0.81" stroke-miterlimit="10" stroke-linecap="round" stroke-linejoin="round"/>
<path d="M7.74023 249.46C90.8202 289.67 172.89 290.57 250.26 249.46" stroke="black" stroke-width="0.81" stroke-miterlimit="10" stroke-linecap="round" stroke-linejoin="round"/>
<path d="M40.0298 128.36C91.8998 204.72 162.52 246.56 250.06 249.64" stroke="black" stroke-width="0.81" stroke-miterlimit="10" stroke-linecap="round" stroke-linejoin="round"/>
<path d="M129.12 39.5C135.83 131.57 176.07 203.09 250.36 249.53" stroke="black" stroke-width="0.81" stroke-miterlimit="10" stroke-linecap="round" stroke-linejoin="round"/>
<path d="M250.26 6.98047C210.05 90.0905 209.12 172.16 250.26 249.53" stroke="black" stroke-width="0.81" stroke-miterlimit="10" stroke-linecap="round" stroke-linejoin="round"/>
<path d="M150.82 349.011V348.841" stroke="#171717" stroke-width="0.81" stroke-miterlimit="10" stroke-linecap="round" stroke-linejoin="round"/>
</g>
<defs>
<clipPath id="clip0_55_816">
<rect width="500" height="500" fill="white"/>
</clipPath>
</defs>
</svg>
