<svg width="400" height="400" viewBox="0 0 400 400" fill="none" xmlns="http://www.w3.org/2000/svg">
<path d="M199 164.28C178.55 164.28 161.98 180.85 161.98 201.3C161.98 221.75 178.55 238.32 199 238.32C219.45 238.32 236.02 221.75 236.02 201.3C236.02 180.85 219.45 164.28 199 164.28ZM199 231.98C182.05 231.98 168.32 218.24 168.32 201.3C168.32 184.36 182.06 170.62 199 170.62C215.94 170.62 229.68 184.36 229.68 201.3C229.68 218.24 215.95 231.98 199 231.98Z" stroke="black" stroke-miterlimit="10"/>
<path d="M199 231.98C215.944 231.98 229.68 218.244 229.68 201.3C229.68 184.356 215.944 170.62 199 170.62C182.056 170.62 168.32 184.356 168.32 201.3C168.32 218.244 182.056 231.98 199 231.98Z" stroke="black" stroke-miterlimit="10"/>
<path d="M181.55 168.62C182.21 168.24 182.9 167.92 183.57 167.58L134.28 82.2002L128.22 85.7002L177.62 171.27C178.87 170.33 180.16 169.43 181.55 168.62Z" fill="black"/>
<path d="M167.55 181.72C167.93 181.06 168.37 180.44 168.79 179.81L83.4097 130.52L79.9097 136.58L165.48 185.98C166.08 184.54 166.75 183.11 167.55 181.72Z" fill="black"/>
<path d="M161.98 200.07C161.98 199.3 162.05 198.55 162.09 197.8H63.5098V204.8H162.31C162.12 203.25 161.98 201.67 161.98 200.07Z" fill="black"/>
<path d="M166.33 218.74C165.95 218.08 165.63 217.39 165.29 216.72L79.9097 266.01L83.4097 272.07L168.98 222.67C168.03 221.43 167.13 220.13 166.33 218.74Z" fill="black"/>
<path d="M179.43 232.74C178.77 232.36 178.15 231.92 177.52 231.5L128.23 316.88L134.29 320.38L183.69 234.81C182.25 234.21 180.82 233.55 179.43 232.74Z" fill="black"/>
<path d="M197.77 238.32C197 238.32 196.25 238.25 195.5 238.21V336.79H202.5V237.99C200.95 238.18 199.38 238.32 197.77 238.32Z" fill="black"/>
<path d="M216.45 233.97C215.79 234.35 215.1 234.67 214.43 235.01L263.72 320.39L269.78 316.89L220.38 231.32C219.13 232.27 217.84 233.17 216.45 233.97Z" fill="black"/>
<path d="M230.45 220.87C230.07 221.53 229.63 222.15 229.21 222.78L314.59 272.07L318.09 266.01L232.52 216.61C231.92 218.05 231.25 219.48 230.45 220.87Z" fill="black"/>
<path d="M236.02 202.53C236.02 203.3 235.95 204.05 235.91 204.8H334.49V197.8H235.69C235.88 199.35 236.02 200.92 236.02 202.53Z" fill="black"/>
<path d="M231.67 183.85C232.05 184.51 232.37 185.2 232.71 185.87L318.09 136.58L314.59 130.52L229.02 179.92C229.97 181.17 230.87 182.46 231.67 183.85Z" fill="black"/>
<path d="M218.57 169.85C219.23 170.23 219.85 170.67 220.48 171.09L269.77 85.71L263.71 82.21L214.31 167.78C215.75 168.38 217.18 169.05 218.57 169.85Z" fill="black"/>
<path d="M200.23 164.28C201 164.28 201.75 164.35 202.5 164.39V65.8101H195.5V164.61C197.05 164.42 198.62 164.28 200.23 164.28Z" fill="black"/>
<path d="M131.17 18.0201C129.56 18.9501 129.01 21.0001 129.94 22.6101L140.04 40.1101C148.35 54.5001 143.18 72.9701 128.43 80.9002C114.18 88.5702 96.3198 82.5801 88.2298 68.5701L78.7498 52.1601C77.8198 50.5501 75.7698 50.0001 74.1598 50.9301C72.5498 51.8601 71.9998 53.9101 72.9298 55.5201L83.0298 73.0201C86.9398 79.7901 92.7098 84.8301 99.3398 87.8401C109.64 92.5702 122 92.4002 132.57 86.2902C143.13 80.1902 149.46 69.5901 150.53 58.3201C151.25 51.0701 149.76 43.5301 145.85 36.7501L135.75 19.2501C134.82 17.6401 132.77 17.0901 131.16 18.0201H131.17Z" fill="black"/>
<path d="M48.6199 76.4901C47.6899 78.1001 48.2399 80.1501 49.8499 81.0801L67.3499 91.1801C81.7399 99.4901 86.4999 118.07 77.6999 132.31C69.1898 146.07 50.7399 149.82 36.7199 141.73L20.3099 132.25C18.6999 131.32 16.6499 131.87 15.7199 133.48C14.7899 135.09 15.3399 137.14 16.9499 138.07L34.4499 148.17C41.2199 152.08 48.7399 153.56 55.9899 152.85C67.2699 151.79 77.8899 145.47 83.9999 134.89C90.0999 124.33 90.2799 111.98 85.5699 101.69C82.5599 95.0501 77.5099 89.2701 70.7299 85.3501L53.2299 75.2501C51.6199 74.3201 49.5699 74.8701 48.6399 76.4801L48.6199 76.4901Z" fill="black"/>
<path d="M6.35986 168.4C6.35986 170.25 7.85986 171.76 9.71986 171.76H29.9299C46.5499 171.76 59.9599 185.48 59.4599 202.21C58.9699 218.38 44.8599 230.85 28.6799 230.85H9.72986C7.87986 230.85 6.36986 232.35 6.36986 234.21C6.36986 236.06 7.86986 237.57 9.72986 237.57H29.9399C37.7599 237.57 45.0099 235.09 50.9299 230.86C60.1699 224.3 66.1999 213.52 66.1999 201.31C66.1999 189.12 60.1799 178.33 50.9599 171.77C45.0399 167.52 37.7699 165.04 29.9399 165.04H9.71986C7.86986 165.04 6.35986 166.54 6.35986 168.4Z" fill="black"/>
<path d="M15.7199 269.13C16.6499 270.74 18.6999 271.29 20.3099 270.36L37.8099 260.26C52.1999 251.95 70.6699 257.12 78.5999 271.87C86.2699 286.12 80.2799 303.98 66.2699 312.07L49.8599 321.55C48.2499 322.48 47.6999 324.53 48.6299 326.14C49.5599 327.75 51.6099 328.3 53.2199 327.37L70.7199 317.27C77.4899 313.36 82.5299 307.59 85.5399 300.96C90.2699 290.66 90.0999 278.3 83.9899 267.73C77.8899 257.17 67.2899 250.84 56.0199 249.77C48.7699 249.05 41.2299 250.54 34.4499 254.45L16.9499 264.55C15.3399 265.48 14.7899 267.53 15.7199 269.14V269.13Z" fill="black"/>
<path d="M74.1898 351.68C75.7998 352.61 77.8498 352.06 78.7798 350.45L88.8798 332.95C97.1898 318.56 115.77 313.8 130.01 322.6C143.77 331.11 147.52 349.56 139.43 363.58L129.95 380C129.02 381.61 129.57 383.66 131.18 384.59C132.79 385.52 134.84 384.97 135.77 383.36L145.87 365.86C149.78 359.09 151.26 351.57 150.55 344.32C149.49 333.04 143.17 322.42 132.59 316.31C122.03 310.21 109.68 310.03 99.3898 314.74C92.7498 317.75 86.9698 322.8 83.0498 329.58L72.9498 347.08C72.0198 348.69 72.5698 350.74 74.1798 351.67L74.1898 351.68Z" fill="black"/>
<path d="M166.1 393.94C167.95 393.94 169.46 392.44 169.46 390.58V370.37C169.46 353.75 183.18 340.34 199.91 340.84C216.08 341.33 228.55 355.44 228.55 371.62V390.57C228.55 392.42 230.05 393.93 231.91 393.93C233.76 393.93 235.27 392.43 235.27 390.57V370.36C235.27 362.54 232.79 355.29 228.56 349.37C222 340.14 211.21 334.1 199 334.1C186.81 334.1 176.02 340.12 169.46 349.34C165.21 355.26 162.73 362.53 162.73 370.36V390.57C162.73 392.42 164.23 393.93 166.09 393.93H166.1V393.94Z" fill="black"/>
<path d="M266.83 384.58C268.44 383.65 268.99 381.6 268.06 379.99L257.96 362.49C249.65 348.1 254.82 329.63 269.57 321.7C283.82 314.03 301.68 320.02 309.77 334.03L319.25 350.44C320.18 352.05 322.23 352.6 323.84 351.67C325.45 350.74 326 348.69 325.07 347.08L314.97 329.58C311.06 322.81 305.29 317.77 298.66 314.76C288.36 310.03 276 310.2 265.43 316.31C254.87 322.41 248.54 333.01 247.47 344.28C246.75 351.53 248.24 359.07 252.15 365.85L262.25 383.35C263.18 384.96 265.23 385.51 266.84 384.58H266.83Z" fill="black"/>
<path d="M349.38 326.11C350.31 324.5 349.76 322.45 348.15 321.52L330.65 311.42C316.26 303.11 311.5 284.53 320.3 270.29C328.81 256.53 347.26 252.78 361.28 260.87L377.69 270.35C379.3 271.28 381.35 270.73 382.28 269.12C383.21 267.51 382.66 265.46 381.05 264.53L363.55 254.43C356.78 250.52 349.26 249.04 342.01 249.75C330.73 250.81 320.11 257.13 314 267.71C307.9 278.27 307.72 290.62 312.43 300.91C315.44 307.55 320.49 313.33 327.27 317.25L344.77 327.35C346.38 328.28 348.43 327.73 349.36 326.12L349.38 326.11Z" fill="black"/>
<path d="M391.64 234.19C391.64 232.34 390.14 230.83 388.28 230.83H368.07C351.45 230.83 338.04 217.11 338.54 200.38C339.03 184.21 353.14 171.74 369.32 171.74H388.27C390.12 171.74 391.63 170.24 391.63 168.38C391.63 166.53 390.13 165.02 388.27 165.02H368.06C360.24 165.02 352.99 167.5 347.07 171.73C337.83 178.29 331.8 189.07 331.8 201.28C331.8 213.47 337.82 224.26 347.04 230.82C352.96 235.07 360.23 237.55 368.06 237.55H388.27C390.12 237.55 391.63 236.05 391.63 234.19H391.64Z" fill="black"/>
<path d="M382.28 133.47C381.35 131.86 379.3 131.31 377.69 132.24L360.19 142.34C345.8 150.65 327.33 145.48 319.4 130.73C311.73 116.48 317.72 98.6201 331.73 90.5301L348.14 81.0501C349.75 80.1201 350.3 78.0701 349.37 76.4601C348.44 74.8501 346.39 74.3001 344.78 75.2301L327.28 85.3301C320.51 89.2401 315.47 95.0101 312.46 101.64C307.73 111.94 307.9 124.3 314.01 134.87C320.11 145.43 330.71 151.76 341.98 152.83C349.23 153.55 356.77 152.06 363.55 148.15L381.05 138.05C382.66 137.12 383.21 135.07 382.28 133.46V133.47Z" fill="black"/>
<path d="M323.81 50.9201C322.2 49.9901 320.15 50.5401 319.22 52.1502L309.12 69.6502C300.81 84.0402 282.23 88.8001 267.99 80.0001C254.23 71.4902 250.48 53.0401 258.57 39.0201L268.05 22.6101C268.98 21.0001 268.43 18.9501 266.82 18.0201C265.21 17.0901 263.16 17.6401 262.23 19.2501L252.13 36.7501C248.22 43.5201 246.74 51.0401 247.45 58.2901C248.51 69.5701 254.83 80.1902 265.41 86.3002C275.97 92.4002 288.32 92.5802 298.61 87.8702C305.25 84.8602 311.03 79.8101 314.95 73.0301L325.05 55.5301C325.98 53.9201 325.43 51.8701 323.82 50.9401L323.81 50.9201Z" fill="black"/>
<path d="M231.9 8.66016C230.05 8.66016 228.54 10.1602 228.54 12.0202V32.2302C228.54 48.8502 214.82 62.2602 198.09 61.7602C181.92 61.2702 169.45 47.1602 169.45 30.9802V12.0202C169.45 10.1702 167.95 8.66016 166.09 8.66016C164.24 8.66016 162.73 10.1602 162.73 12.0202V32.2302C162.73 40.0502 165.21 47.3002 169.44 53.2202C176 62.4602 186.79 68.4902 199 68.4902C211.19 68.4902 221.98 62.4702 228.54 53.2502C232.79 47.3302 235.27 40.0602 235.27 32.2302V12.0202C235.27 10.1702 233.77 8.66016 231.91 8.66016H231.9Z" fill="black"/>
</svg>
