<svg width="400" height="400" viewBox="0 0 400 400" fill="none" xmlns="http://www.w3.org/2000/svg">
<path fill-rule="evenodd" clip-rule="evenodd" d="M199.66 399C309.272 399 398.13 310.142 398.13 200.53C398.13 90.9181 309.272 2.06006 199.66 2.06006C90.048 2.06006 1.18994 90.9181 1.18994 200.53C1.18994 310.142 90.048 399 199.66 399ZM92.9601 156.34C94.9001 151.67 98.4301 148.1 102.69 146.08C107.58 143.72 113.41 143.37 118.84 145.62L136.93 153.11C138.61 153.81 139.41 155.74 138.72 157.42C138.02 159.1 136.09 159.9 134.41 159.21L116.95 151.98C110.51 149.31 102.76 151.62 99.5601 157.81C95.9501 164.78 99.1401 173.18 106.21 176.11L124.3 183.6C125.98 184.3 126.78 186.23 126.09 187.91C125.39 189.59 123.46 190.39 121.78 189.7L103.69 182.21C98.2601 179.96 94.3901 175.59 92.6001 170.47C91.0001 166.03 91.0201 161.01 92.9601 156.34ZM92.5801 230.6C91.0001 235.03 91.0201 240.06 92.9601 244.73C94.8901 249.4 98.4301 252.97 102.66 254.99C107.55 257.35 113.38 257.7 118.81 255.45L136.9 247.96C138.59 247.26 139.39 245.33 138.69 243.65C137.99 241.96 136.06 241.16 134.38 241.86L116.29 249.35C109.21 252.28 101.02 248.6 98.6401 241.12C96.5301 234.48 100.38 227.37 106.82 224.7L124.28 217.47C125.97 216.77 126.77 214.84 126.07 213.16C125.37 211.47 123.44 210.67 121.76 211.37L103.67 218.86C98.2401 221.11 94.3701 225.48 92.5801 230.6ZM155.46 307.23C150.79 305.29 147.22 301.76 145.2 297.5C142.84 292.61 142.49 286.78 144.74 281.35L152.23 263.26C152.93 261.58 154.86 260.78 156.54 261.47C158.22 262.17 159.02 264.1 158.33 265.78L151.1 283.24C148.43 289.68 150.74 297.43 156.93 300.63C163.9 304.24 172.3 301.05 175.23 293.98L182.72 275.89C183.42 274.21 185.35 273.41 187.03 274.1C188.71 274.8 189.51 276.73 188.82 278.41L181.33 296.5C179.08 301.93 174.71 305.8 169.59 307.59C165.16 309.19 160.14 309.17 155.46 307.23ZM229.72 307.61C234.15 309.19 239.18 309.17 243.85 307.23C248.53 305.29 252.09 301.76 254.11 297.53C256.47 292.64 256.82 286.81 254.57 281.38L247.08 263.29C246.38 261.6 244.45 260.8 242.77 261.5C241.08 262.2 240.28 264.13 240.98 265.81L248.47 283.9C251.4 290.98 247.72 299.17 240.24 301.55C233.6 303.66 226.49 299.81 223.82 293.37L216.59 275.91C215.89 274.22 213.96 273.42 212.28 274.12C210.59 274.82 209.79 276.75 210.49 278.43L217.98 296.52C220.23 301.95 224.6 305.82 229.72 307.61ZM306.36 244.73C304.42 249.4 300.89 252.97 296.63 254.99C291.74 257.35 285.91 257.7 280.48 255.45L262.39 247.96C260.71 247.26 259.91 245.33 260.6 243.65C261.3 241.97 263.23 241.17 264.91 241.86L282.37 249.09C288.81 251.76 296.56 249.45 299.76 243.26C303.37 236.29 300.18 227.89 293.11 224.96L275.02 217.47C273.34 216.77 272.54 214.84 273.23 213.16C273.93 211.48 275.86 210.68 277.54 211.37L295.63 218.86C301.06 221.11 304.93 225.48 306.72 230.6C308.31 235.03 308.29 240.05 306.36 244.73ZM306.74 170.47C308.32 166.04 308.3 161.01 306.36 156.34C304.42 151.66 300.88 148.1 296.66 146.08C291.77 143.72 285.94 143.37 280.51 145.62L262.42 153.11C260.73 153.81 259.93 155.74 260.63 157.42C261.33 159.11 263.26 159.91 264.94 159.21L283.03 151.72C290.11 148.79 298.3 152.47 300.68 159.95C302.79 166.59 298.94 173.7 292.5 176.37L275.04 183.6C273.35 184.3 272.55 186.23 273.25 187.91C273.95 189.6 275.88 190.4 277.56 189.7L295.65 182.21C301.08 179.96 304.95 175.59 306.74 170.47ZM243.85 93.8302C248.52 95.7702 252.09 99.3002 254.11 103.56C256.47 108.45 256.82 114.28 254.57 119.71L247.08 137.8C246.38 139.48 244.45 140.28 242.77 139.59C241.09 138.89 240.29 136.96 240.98 135.28L248.21 117.82C250.88 111.38 248.57 103.63 242.38 100.43C235.41 96.8202 227.01 100.01 224.08 107.08L216.59 125.17C215.89 126.85 213.96 127.65 212.28 126.96C210.6 126.26 209.8 124.33 210.49 122.65L217.98 104.56C220.23 99.1302 224.6 95.2602 229.72 93.4702C234.16 91.8802 239.18 91.9002 243.85 93.8302ZM169.59 93.4502C165.16 91.8702 160.13 91.8902 155.46 93.8302C150.79 95.7702 147.22 99.3102 145.2 103.53C142.84 108.42 142.49 114.25 144.74 119.68L152.23 137.77C152.93 139.46 154.86 140.26 156.54 139.56C158.23 138.86 159.03 136.93 158.33 135.25L150.84 117.16C147.91 110.08 151.59 101.89 159.07 99.5102C165.71 97.4002 172.82 101.25 175.49 107.69L182.72 125.15C183.42 126.84 185.35 127.64 187.03 126.94C188.72 126.24 189.52 124.31 188.82 122.63L181.33 104.54C179.08 99.1102 174.71 95.2402 169.59 93.4502ZM199.66 200.51L196.51 199.2H196.5H196.47V199.23L196.5 199.2L199.66 200.51ZM202.85 192.85L295.125 100.575C288.566 92.6681 286.134 82.4787 287.82 72.8402C288.99 65.9802 292.25 59.4002 297.55 54.1002L304.73 46.9202C305.97 45.6802 307.98 45.6802 309.22 46.9202L309.23 46.9302C310.47 48.1702 310.47 50.1802 309.23 51.4202L302.05 58.6002C290.8 69.8502 290.91 88.1102 302.45 98.9702C313.6 109.47 331.51 108.26 342.46 97.3102L348.79 90.9802C350.03 89.7402 352.04 89.7402 353.28 90.9802C354.52 92.2202 354.52 94.2302 353.3 95.4902L346.12 102.67C340.82 107.97 334.25 111.21 327.41 112.39C317.747 114.078 307.54 111.649 299.628 105.081L207.31 197.36H337.845C338.789 187.121 344.275 178.187 352.29 172.55C357.96 168.53 364.92 166.18 372.42 166.18H382.57C384.33 166.18 385.75 167.6 385.75 169.36V169.38C385.75 171.14 384.33 172.56 382.57 172.56H372.42C356.51 172.56 343.67 185.55 344.15 201.39C344.62 216.7 358.13 228.51 373.62 228.51H382.57C384.33 228.51 385.75 229.93 385.75 231.69C385.75 233.45 384.33 234.87 382.57 234.86H372.42C364.93 234.86 357.99 232.51 352.32 228.5C344.3 222.875 338.799 213.942 337.847 203.7H207.31L202.85 201.86L199.702 200.555L199.704 200.56L202.83 201.86L207.3 203.7L299.615 296.005C307.522 289.446 317.712 287.014 327.35 288.7C334.21 289.87 340.79 293.13 346.09 298.43L353.27 305.61C354.51 306.85 354.51 308.86 353.27 310.1L353.26 310.11C352.02 311.35 350.01 311.35 348.77 310.11L341.59 302.93C330.34 291.68 312.08 291.79 301.22 303.33C290.72 314.48 291.93 332.39 302.88 343.34L309.21 349.67C310.45 350.91 310.45 352.92 309.21 354.16C307.97 355.4 305.96 355.4 304.7 354.18L297.52 347C292.22 341.7 288.98 335.13 287.8 328.29C286.111 318.62 288.544 308.406 295.122 300.492L202.85 208.22V338.727C213.081 339.676 222.007 345.16 227.64 353.17C231.66 358.84 234.01 365.8 234.01 373.3V383.45C234.01 385.21 232.59 386.63 230.83 386.63H230.81C229.05 386.63 227.63 385.21 227.63 383.45V373.3C227.63 357.39 214.64 344.55 198.8 345.03C183.49 345.5 171.68 359.01 171.68 374.5V383.45C171.68 385.21 170.26 386.63 168.5 386.63C166.74 386.63 165.32 385.21 165.33 383.45V373.3C165.33 365.81 167.68 358.87 171.69 353.2C177.311 345.185 186.237 339.686 196.47 338.729V208.21L198.35 203.7L199.66 200.55L198.34 203.7L196.47 208.21L104.181 300.49C110.743 308.398 113.177 318.59 111.49 328.23C110.32 335.09 107.06 341.67 101.76 346.97L94.5801 354.15C93.3401 355.39 91.3301 355.39 90.0901 354.15L90.0801 354.14C88.8401 352.9 88.8401 350.89 90.0801 349.65L97.2601 342.47C108.51 331.22 108.4 312.96 96.8601 302.1C85.7101 291.6 67.8001 292.81 56.8501 303.76L50.5201 310.09C49.2801 311.33 47.2701 311.33 46.0301 310.09C44.7901 308.85 44.7901 306.83 46.0101 305.58L53.1901 298.4C58.4901 293.1 65.0601 289.86 71.9001 288.68C81.5701 286.991 91.7842 289.425 99.6979 296.003L192 203.7H61.4651C60.5212 213.94 55.0355 222.873 47.0201 228.51C41.3501 232.53 34.3901 234.88 26.8901 234.88H16.7401C14.9801 234.88 13.5601 233.46 13.5601 231.7V231.68C13.5601 229.92 14.9801 228.5 16.7401 228.5H26.8901C42.8001 228.5 55.6401 215.51 55.1601 199.67C54.6901 184.36 41.1801 172.55 25.6901 172.55H16.7401C14.9801 172.55 13.5601 171.13 13.5601 169.37C13.5601 167.62 14.9801 166.19 16.7401 166.2H26.8901C34.3801 166.2 41.3201 168.55 46.9901 172.56C55.0101 178.185 60.5115 187.119 61.4631 197.36H192L99.6793 105.079C91.7741 111.628 81.592 114.056 71.9601 112.37C65.1001 111.2 58.5201 107.94 53.2201 102.64L46.0401 95.4602C44.8001 94.2202 44.8001 92.2102 46.0401 90.9702L46.0501 90.9602C47.2901 89.7202 49.3001 89.7202 50.5401 90.9602L57.7201 98.1402C68.9701 109.39 87.2301 109.28 98.0901 97.7402C108.59 86.5902 107.38 68.6802 96.4301 57.7302L90.1001 51.4002C88.8601 50.1602 88.8601 48.1502 90.1001 46.9102C91.3401 45.6702 93.3601 45.6702 94.6101 46.8902L101.79 54.0702C107.09 59.3702 110.33 65.9402 111.51 72.7802C113.199 82.4501 110.766 92.6642 104.188 100.578L196.47 192.86C196.755 193.534 197.1 194.362 197.48 195.274L197.483 195.282L197.484 195.284C197.757 195.941 198.049 196.642 198.35 197.36C198.79 198.37 199.24 199.46 199.66 200.51L200.97 197.36L202.85 192.85ZM202.85 62.3313V192.85L200.97 197.35L199.66 200.5C199.25 199.45 198.8 198.36 198.35 197.35C197.64 195.62 196.96 194.01 196.47 192.85V62.3334C186.239 61.3843 177.314 55.9005 171.68 47.8902C167.66 42.2202 165.31 35.2602 165.31 27.7602V17.6102C165.31 15.8502 166.73 14.4302 168.49 14.4302H168.51C170.27 14.4302 171.69 15.8502 171.69 17.6102V27.7602C171.69 43.6702 184.68 56.5102 200.52 56.0302C215.83 55.5602 227.64 42.0502 227.64 26.5602V17.6102C227.64 15.8502 229.06 14.4302 230.82 14.4302C232.57 14.4302 234 15.8602 233.99 17.6102V27.7602C233.99 35.2502 231.64 42.1902 227.63 47.8602C222.009 55.875 213.083 61.3744 202.85 62.3313ZM202.85 199.2V199.23L202.81 199.2H202.85ZM74.3702 86.5301C80.6055 86.5301 85.6602 81.4753 85.6602 75.2401C85.6602 69.0048 80.6055 63.9501 74.3702 63.9501C68.1349 63.9501 63.0802 69.0048 63.0802 75.2401C63.0802 81.4753 68.1349 86.5301 74.3702 86.5301ZM33.7602 200.53C33.7602 206.765 28.7055 211.82 22.4702 211.82C16.2349 211.82 11.1802 206.765 11.1802 200.53C11.1802 194.295 16.2349 189.24 22.4702 189.24C28.7055 189.24 33.7602 194.295 33.7602 200.53ZM74.3702 337.11C80.6055 337.11 85.6602 332.055 85.6602 325.82C85.6602 319.585 80.6055 314.53 74.3702 314.53C68.1349 314.53 63.0802 319.585 63.0802 325.82C63.0802 332.055 68.1349 337.11 74.3702 337.11ZM210.95 377.72C210.95 383.955 205.895 389.01 199.66 389.01C193.425 389.01 188.37 383.955 188.37 377.72C188.37 371.485 193.425 366.43 199.66 366.43C205.895 366.43 210.95 371.485 210.95 377.72ZM324.95 337.11C331.185 337.11 336.24 332.055 336.24 325.82C336.24 319.585 331.185 314.53 324.95 314.53C318.715 314.53 313.66 319.585 313.66 325.82C313.66 332.055 318.715 337.11 324.95 337.11ZM388.13 200.53C388.13 206.765 383.075 211.82 376.84 211.82C370.605 211.82 365.55 206.765 365.55 200.53C365.55 194.295 370.605 189.24 376.84 189.24C383.075 189.24 388.13 194.295 388.13 200.53ZM324.95 86.5301C331.185 86.5301 336.24 81.4753 336.24 75.2401C336.24 69.0048 331.185 63.9501 324.95 63.9501C318.715 63.9501 313.66 69.0048 313.66 75.2401C313.66 81.4753 318.715 86.5301 324.95 86.5301ZM210.95 23.3501C210.95 29.5854 205.895 34.6401 199.66 34.6401C193.425 34.6401 188.37 29.5854 188.37 23.3501C188.37 17.1148 193.425 12.0601 199.66 12.0601C205.895 12.0601 210.95 17.1148 210.95 23.3501Z" fill="black"/>
</svg>
